<?xml version="1.0" encoding="utf-8"?>
<!-- Generator: Adobe Illustrator 16.0.0, SVG Export Plug-In . SVG Version: 6.00 Build 0)  -->
<!DOCTYPE svg PUBLIC "-//W3C//DTD SVG 1.1//EN" "http://www.w3.org/Graphics/SVG/1.1/DTD/svg11.dtd">
<svg version="1.1" id="Parts" xmlns="http://www.w3.org/2000/svg" xmlns:xlink="http://www.w3.org/1999/xlink" x="0px" y="0px"
	 width="3113px" height="1599px" viewBox="0 0 3113 1599" enable-background="new 0 0 3113 1599" xml:space="preserve">
<g id="ICs">
	<path id="_TL082" d="M2489.86,988.73h148.33v188.47h-148.33V988.73z M879.01,55.82H729.77V273h149.24V55.82z"/>
	<rect id="_TL071" x="1142.71" y="904.3" width="148.21" height="170"/>
	<rect id="_THAT_2180_VCA" x="2247.51" y="556.1" width="64.49" height="375.92"/>
	<rect id="_NTE929" x="448.98" y="787.6" width="143.93" height="339.41"/>
	<rect id="_NE5534" x="2346.47" y="637.68" width="143.39" height="198.146"/>
	<rect id="_LM337" x="1309.52" y="1444.05" width="159" height="66.5"/>
	<rect id="_LM317" x="1053" y="1451" width="159" height="66.5"/>
	<path id="_LM301" d="M352.65,991.84H204.5V808.08h148.15V991.84z M769.89,796.86H626.24V993.84H769.89V796.86z M2563.5,83.15
		h-178.03V250h178.03V83.15z"/>
	<rect id="_4558" x="967.54" y="538.57" width="169.33" height="180.68"/>
</g>
<g id="Transistors">
	<rect id="_NTE129" x="2901.75" y="963.92" fill="#999999" width="146.82" height="142.4"/>
	<rect id="_NTE128" x="2886.89" y="533.84" fill="#999999" width="140.19" height="134.74"/>
	<rect id="_BC550C" x="460.43" y="1181.82" fill="#999999" width="99.32" height="94.854"/>
</g>
<g id="Diodes">
	<path id="_1N4148" fill="#CC0000" d="M2845.09,719.75h163.74v33.65h-163.74V719.75z M2845.09,815.24h163.74v-33.65h-163.74V815.24z
		 M2845.09,867.97h163.74V834.32h-163.74V867.97z M2845.09,928.54h163.74v-33.65h-163.74V928.54z M961.21,534.84H791.5v36.01h169.71
		V534.84z M972.44,574.21H802.72v36.01h169.71v-36.01H972.44z M967.88,616.43H798.16v36.018h169.71L967.88,616.43L967.88,616.43z
		 M1085.24,485.73H915.53v36.01h169.71V485.73z M1086.83,445.22H917.12v36.018h169.71V445.22z M1064.96,404.37H895.25v36.01h169.71
		V404.37z M1065.59,363.85H895.87v36.01h169.71L1065.59,363.85L1065.59,363.85z"/>
	<path id="_1N4007" fill="#CC0000" d="M423.1,1332.35H197V1292h226.1V1332.35z M418.75,1329.42h-226.1v40.35h226.1V1329.42z
		 M414.34,1429.82h-226.1v40.35h226.1V1429.82z M416.93,1471.86h-226.1v40.35h226.1V1471.86z M1449,1292h-202.66v57.6H1449V1292z
		 M1246.34,1312.18H1034V1358h212.34V1312.18z M1665.18,1212.21h-36.67V1412h36.67V1212.21z M1734.189,1217.9H1698V1408h36.189
		V1217.9z"/>
</g>
<g id="Capacitors">
	<g id="Electrolytic">
		<path id="_1000uF_50v" fill="#003366" d="M928.9,1426.705c0-73.309-55.896-132.735-124.849-132.735
			c-68.946,0-124.845,59.429-124.845,132.735c0,73.306,55.896,132.734,124.845,132.734
			C873.005,1559.439,928.9,1500.012,928.9,1426.705z M637.07,1411.411c0-73.308-55.977-132.734-125.021-132.734
			s-125.02,59.429-125.02,132.734c0,73.308,55.973,132.735,125.02,132.735S637.07,1484.719,637.07,1411.411z"/>
		<path id="_22uF_16v" fill="#003366" d="M2955.08,1212.21h-90.561V1108.98h90.561V1212.21z M2709.561,677.59H2592v83.91h117.561
			V677.59z M2810.23,514H2934v-83.52h-123.77V514z"/>
		<path id="_10uF_25v" fill="#003366" d="M1589.45,1430.811h-93.5v-86.863h93.5V1430.811z M1582.95,1241.64h-93.5v86.87h93.5
			V1241.64z M1270,1219.35h-93.5v86.87h93.5V1219.35z M1269.49,1125.34h-93.5v86.87h93.5V1125.34z"/>
		<rect id="_4.7uF_25v" x="2131.02" y="274" fill="#003366" width="450.98" height="126"/>
		<rect id="_1uF_50v" x="2592.75" y="546.87" fill="#003366" width="124.24" height="108.05"/>
	</g>
	<g id="Tantalum">
		<rect id="_22uF" x="872.18" y="857.21" fill="#FF9900" width="138.896" height="94.79"/>
	</g>
	<g id="Film">
		<rect id="_1.8uF" x="1166.55" y="193.58" fill="#FFFF33" width="438.45" height="158.42"/>
		<rect id="_0.47uF" x="2027.67" y="1059" fill="#FFFF33" width="284.33" height="124.5"/>
		<rect id="_0.33uF" x="287.57" y="389" fill="#FFFF33" width="272.42" height="123"/>
		<rect id="_0.01uF" x="1111" y="415.85" fill="#FFFF33" width="273" height="119.15"/>
		<path id="_100nF" fill="#FFFF33" d="M1661.67,1532.6h-156.3v-79.104h156.3V1532.6z M680.92,1411.307h-47.68v154.124h47.68
			V1411.307z M990,1277.96h-62.91v178.021H990V1277.96z M1204.311,1366.97h-158.863V1423h158.863V1366.97z M1435.46,1349.66h-164.4
			v61.59h164.4V1349.66z M1730.89,1406.02h59.4V1261.2h-59.4V1406.02z"/>
		<path id="_1nF" fill="#FFFF33" d="M791.46,971.41h50.34v205.79h-50.34V971.41z M175.33,202.56h-66.2v150.8h66.2V202.56z
			 M251.97,202.56h-66.2v150.8h66.2V202.56z M2761.79,476.97h-153.62v59.33h153.62V476.97z M2608.17,953.54h49.89V794.86h-49.89
			V953.54z M679.92,147.5H507.16v55.06h172.76V147.5z M671.64,213.31H507.16v61.42H671.64V213.31z"/>
	</g>
	<g id="Ceramic">
		<path id="_150pF" fill="#996633" d="M3008.83,430.48H2842V379.46h166.83V430.48z M592.91,732.14H440.4v55.46h152.51V732.14z"/>
		<path id="_100pF" fill="#996633" d="M961.21,799.5h-48.35V662.35h48.35V799.5z M1117.78,719.25H967.54v58.46h150.24V719.25z
			 M2476,578.83h-156V502.02h156V578.83z M2811.45,379.46h237.12v-77.35h-237.121L2811.45,379.46L2811.45,379.46z M2554.13,899.62
			h-207.66V968h207.66V899.62z"/>
		<rect id="_27pF" x="2515.16" y="695" fill="#996633" width="48.34" height="182.75"/>
		<rect id="_22pF" x="2325.72" y="1051.4" fill="#996633" width="59.75" height="153.05"/>
		<rect id="_15pF" x="621.51" y="1001.54" fill="#996633" width="150.41" height="56.42"/>
		<path id="_10pF" fill="#996633" d="M458.14,725.24H298.79v-52.67h159.35V725.24z M2631.311,106.47h-59.75v120.69h59.75V106.47z
			 M2385.47,106.47h-59.75v120.69h59.75V106.47z"/>
		<rect id="_5pF" x="204.5" y="1001.54" fill="#996633" width="150.41" height="56.42"/>
	</g>
</g>
<g id="Resistors">
	<g id="Trimpot">
		<rect id="_500K" x="90.61" y="527.61" fill="#0099CC" width="126.81" height="129.81"/>
		<path id="_50K" fill="#0099CC" d="M1580,1183.5h-127.5V1059H1580V1183.5z M1722.21,1059h-127.5v124.5h127.5V1059z M1869.27,1059
			h-127.5v124.5h127.5V1059z M2027.67,1059h-127.5v124.5h127.5V1059z M1429.58,973.53h-127.5v124.5h127.5V973.53z M574.82,529.39
			h-127.5v124.5h127.5V529.39z M413.56,529.16h-127.5v124.5h127.5V529.16z M1053.5,210.51H925.19V336.2h128.31V210.51z"/>
		<path id="_5K" fill="#0099CC" d="M1172,1257h-121v-123h121V1257z M1406.71,1134.64h-121v123h121V1134.64z"/>
	</g>
	<path id="_22M" fill="#FFCC99" d="M287.56,1214.061H63.1v47.146h224.47L287.56,1214.061L287.56,1214.061z M844.25,928.54H791.5
		v-203.3h52.75V928.54z"/>
	<rect id="_1M29" x="1790.29" y="1216.38" fill="#FFCC99" width="213.85" height="63.62"/>
	<path id="_1M5" fill="#FFCC99" d="M592.91,350.13h49.3V541h-49.3V350.13z M2007,1280h-216.71v44.35H2007V1280z"/>
	<path id="_909K" fill="#FFCC99" d="M281.59,527.61H90.61V487.93h190.98V527.61z M900,335H690.5v53.5H900V335z"/>
	<rect id="_523K" x="1647" y="188.31" fill="#FFCC99" width="227.64" height="61.69"/>
	<rect id="_390K" x="642.21" y="350.13" fill="#FFCC99" width="48.12" height="186.86"/>
	<rect id="_200K" x="2247" y="1294.5" fill="#FFCC99" width="210.79" height="59.7"/>
	<rect id="_133K" x="1136.87" y="637.68" fill="#FFCC99" width="211.64" height="57.32"/>
	<path id="_100K" fill="#FFCC99" d="M1063.4,855.21h59.33V1059h-59.33V855.21z M1317.82,846.03H1110.26v56.3h207.563L1317.82,846.03
		L1317.82,846.03z M1463.98,778.04h-52.598v194.38h52.598V778.04z M423.11,874.18H375V1075h48.11V874.18z M769.21,672.04H569.2v60.1
		h200.01V672.04z M2672.98,1224H2475.02v70.5h197.961V1224L2672.98,1224z M2860.68,513.74h-58.42v211.5h58.42V513.74z
		 M1420.189,358.94H1214.04v52.08h206.149V358.94L1420.189,358.94z"/>
	<rect id="_90K9" x="2063.08" y="1204.45" fill="#FFCC99" width="197.54" height="60.81"/>
	<rect id="_23K2" x="592.91" y="550.38" fill="#FFCC99" width="203.75" height="46.12"/>
	<path id="_22K1" fill="#FFCC99" d="M2608.17,342.24h222.13v61.1h-222.13V342.24z M2622.96,192.58h222.13v-61.1h-222.13V192.58z"/>
	<path id="_20K" fill="#FFCC99" d="M2442.51,1229H2395.9v-190.99h46.604L2442.51,1229L2442.51,1229z M2131.02,250H1901v69.61h230.02
		V250z M492.81,150.09H278.58v43.11H492.81V150.09z M490.34,208.29v43.11H276.11v-43.11H490.34L490.34,208.29z M2457.79,1425.11
		h-215.16v-70.91h215.16V1425.11z"/>
	<path id="_10K" fill="#FFCC99" d="M1454.78,545.15h-55.16V355.99h55.16V545.15z M2817.09,297.08h209.99v-62.01h-209.99V297.08z
		 M2808.11,165.49H3018.1v62.01H2808.11V165.49z M2078.8,181.52h222.12v61.14H2078.8V181.52z M877.91,76.02h207.43v53.81H877.91
		V76.02z M267.36,320.68h225.16V370H267.36V320.68z M267.36,263.68h225.16V313H267.36V263.68z M1326.84,845.94h-211V799.5h211
		V845.94z"/>
	<rect id="_7K5" x="1111.72" y="188.31" fill="#FFCC99" width="45.15" height="202.69"/>
	<rect id="_6K04" x="54.63" y="697" fill="#FFCC99" width="46.33" height="207.29"/>
	<rect id="_5K49" x="690.5" y="272.79" fill="#FFCC99" width="212.32" height="62.21"/>
	<path id="_5K6" fill="#FFCC99" d="M2864.52,1254h-53.063v-213.25h53.063V1254z M2781.39,942.49h60.11V735.95h-60.11V942.49z"/>
	<rect id="_5K1" x="2515.16" y="509.02" fill="#FFCC99" width="48.34" height="185.98"/>
	<path id="_4K7" fill="#FFCC99" d="M109.13,1125H61V931.86h48.13V1125z M1115.84,799.5H912.86v55.71h202.979L1115.84,799.5
		L1115.84,799.5z M2761.79,1048.05H2715V1254h46.79V1048.05z M2702.46,1008.5h-46.79v205.95h46.79V1008.5z M1085.34,129.83H885.4
		v55.43h199.938L1085.34,129.83L1085.34,129.83z"/>
	<rect id="_3K3_or_10K" x="1359.5" y="749.4" fill="#FFCC99" width="55.42" height="209.1"/>
	<rect id="_3K02" x="121.46" y="853.95" fill="#FFCC99" width="66.78" height="213.01"/>
	<path id="_2K4" fill="#FFCC99" d="M2796.11,278.9h-198.65v-51.4h198.65V278.9z M1111.72,188.31H1058V391h53.72V188.31z"/>
	<path id="_2K2" fill="#FFCC99" d="M2605.64,409.31h222.13v57h-222.129L2605.64,409.31L2605.64,409.31z M2609.46,335.9h222.13v-57
		h-222.13V335.9z M487.34,93.97H278.58v56.12h208.75L487.34,93.97L487.34,93.97z M697.33,83.15H488.58v56.12h208.75V83.15
		L697.33,83.15z M2901.75,1014.54h-190.4v-50.62h190.4V1014.54z M2811.45,1048.061h-49.66V1254h49.66V1048.061z"/>
	<path id="_1K5" fill="#FFCC99" d="M1063.4,1066.96h-51.33V855.21h51.33V1066.96z M1399.62,533.84h-51.11v204.68h51.11V533.84z
		 M796.36,602.5H592.91v51.45h203.45V602.5z"/>
	<path id="_1K" fill="#FFCC99" d="M492.52,295.22H694.07v54.91H492.52V295.22z M690.5,441.88H896V388.5H690.5V441.88z M2247,1294.5
		h196.98V1229H2247V1294.5z M2518.21,578.83H2320v60.01h198.21V578.83z M845.85,1212.21H633.24v48.99H845.85V1212.21z
		 M1335.88,556.1h-199.01v65.15h199.01V556.1z M1330.59,722.15h-212.81v55.56h212.81V722.15L1330.59,722.15z M2539.33,461H2320
		v41.02h219.33V461z"/>
	<rect id="_270R" x="1414.92" y="550.38" fill="#FFCC99" width="49.38" height="199.021"/>
	<path id="_120R" fill="#FFCC99" d="M1491.09,1451.5h-42.53v-213.87h42.53V1451.5z M1045.061,1204.45H990v205.729h55.061V1204.45z"
		/>
	<path id="_100R" fill="#FFCC99" d="M2747.189,513.74h55.063v211.5h-55.063V513.74z M2078.8,181.52h-204.16V250h204.16V181.52z"/>
	<rect id="_51R" x="2317" y="835.82" fill="#FFCC99" width="198.16" height="63.8"/>
	<path id="_22R" fill="#FFCC99" d="M2727.13,943.42h56.56V725.24h-56.56V943.42z M2666.5,722.62h56.561V940.8H2666.5V722.62z
		 M2624,74.63h218V125h-218V74.63z"/>
</g>
</svg>
