<?xml version="1.0" encoding="utf-8"?>
<svg version="1.1" id="Layer_1" xmlns="http://www.w3.org/2000/svg" xmlns:xlink="http://www.w3.org/1999/xlink" x="0px" y="0px"
	 width="4147px" height="2458px" viewBox="0 0 4147 2458" enable-background="new 0 0 4147 2458" xml:space="preserve">
<path id="_470pF_Ceramic" fill="#CB0000" d="M2347,344.5c-27.134,0-54.268,0-81.701,0c0-43.294,0-86.35,0-130
	c27.195,0,54.448,0,81.701,0C2347,257.833,2347,301.167,2347,344.5z M2347,390.5c-27.253,0-54.506,0-81.701,0
	c0,43.65,0,86.706,0,130c27.433,0,54.567,0,81.701,0C2347,477.167,2347,433.833,2347,390.5z M56,387.5
	c0.333,1.148,0.956,2.295,0.958,3.444c0.053,31.037,0.053,62.075,0,93.112c-0.002,1.148-0.624,2.296-0.958,3.444c0,2,0,4,0,6
	c1.734,0.333,3.467,0.953,5.202,0.957c25.332,0.063,50.664,0.048,75.996,0.029c1.252-0.001,2.504-0.206,3.584-0.301
	c0-38.055,0-75.67,0-113.368c-0.658-0.129-1.121-0.298-1.584-0.298c-26.332-0.015-52.664-0.031-78.995,0.024
	c-1.401,0.003-2.801,0.624-4.202,0.957C56,383.5,56,385.5,56,387.5z M61,210.5c0,37.917,0,75.834,0,113.697c28.315,0,56.042,0,84,0
	c0-38.101,0-75.899,0-113.697C117,210.5,89,210.5,61,210.5z M2146.71,212.795c-27.348,0-54.405,0-81.42,0
	c0,43.346,0,86.397,0,129.576c27.229,0,54.167,0,81.42,0C2146.71,298.859,2146.71,255.809,2146.71,212.795z M2065.302,388.807
	c0,43.359,0,86.41,0,129.386c27.361,0,54.418,0,81.572,0c0-43.24,0-86.173,0-129.386
	C2119.337,388.807,2092.28,388.807,2065.302,388.807z M265.294,326.203c28.017,0,55.74,0,83.413,0c0-38.016,0-75.735,0-113.577
	c-27.898,0-55.503,0-83.413,0C265.294,250.813,265.294,288.531,265.294,326.203z M342.706,506.203c0-38.017,0-75.735,0-113.405
	c-28.018,0-55.741,0-83.583,0c0,37.898,0,75.498,0,113.405C287.312,506.203,315.035,506.203,342.706,506.203z"/>
<path id="_22pF_Ceramic" fill="#CB0000" d="M2573,1929.5c-0.667-1.296-1.912-2.59-1.915-3.887
	c-0.089-38.614-0.056-77.228-0.025-115.842c0-0.286,0.238-0.571,0.455-1.063c26.951,0,53.992,0,81.259,0c0,39.896,0,79.613,0,119.24
	c-1.285,0.529-2.529,1.041-3.774,1.553c-0.667,0-1.333,0-2,0c-0.98-0.333-1.959-0.955-2.94-0.958
	c-21.374-0.056-42.747-0.056-64.121,0c-0.981,0.003-1.96,0.624-2.94,0.958C2575.667,1929.5,2574.333,1929.5,2573,1929.5z
	 M219,1090.5c0,42.205,0,84.103,0,126c25.922,0,51.844,0,78,0c0-42.4,0-84.2,0-126C271,1090.5,244.999,1090.5,219,1090.5z
	 M4051,1652.5c-24.587,0-49.174,0-73.701,0c0,42.984,0,85.372,0,128c24.766,0,49.234,0,73.701,0
	C4051,1737.833,4051,1695.167,4051,1652.5z M1239.295,1290.206c36.682,0,73.068,0,109.41,0c0-32.016,0-63.738,0-95.582
	c-36.563,0-72.831,0-109.41,0C1239.295,1226.81,1239.295,1258.531,1239.295,1290.206z M1810.696,1200.803
	c-36.691,0-73.078,0-109.392,0c0,32.025,0,63.747,0,95.571c36.572,0,72.84,0,109.392,0
	C1810.696,1264.172,1810.696,1232.45,1810.696,1200.803z M573.29,1912.206c28.014,0,55.737,0,83.42,0c0-40.679,0-81.064,0-121.577
	c-27.895,0-55.5,0-83.42,0C573.29,1831.473,573.29,1871.858,573.29,1912.206z M1899.289,1638.794c0,42.012,0,83.73,0,125.412
	c26.681,0,53.071,0,79.585,0c0-41.893,0-83.493,0-125.412C1952.03,1638.794,1925.64,1638.794,1899.289,1638.794z M3808.705,1194.794
	c-35.349,0-70.402,0-105.41,0c0,31.349,0,62.404,0,93.582c35.23,0,70.165,0,105.41,0
	C3808.705,1256.857,3808.705,1225.802,3808.705,1194.794z M3233.299,1298.202c35.354,0,70.407,0,105.401,0
	c0-31.354,0-62.409,0-93.58c-35.235,0-70.169,0-105.401,0C3233.299,1236.152,3233.299,1267.207,3233.299,1298.202z
	 M2239.289,1218.205c22.015,0,43.74,0,65.422,0c0-40.012,0-79.729,0-119.574c-21.895,0-43.502,0-65.422,0
	C2239.289,1138.807,2239.289,1178.524,2239.289,1218.205z"/>
<path id="_47pF_Ceramic" fill="#CB0000" d="M2415,1753.5c0-19.797,0-39.594,0-59.405c3.835-0.556,7.418-1.075,11-1.595
	c2.333,0,4.667,0,7,0c1.651,0.333,3.303,0.955,4.955,0.958c39.682,0.054,79.364,0.042,119.045,0.042c0,20,0,40,0,60
	C2509.667,1753.5,2462.333,1753.5,2415,1753.5z M417,1752.5c38.349,0,76.698-0.012,115.046,0.042
	c1.652,0.002,3.303,0.624,4.954,0.958c3.333,0,6.667,0,10,0c1.909-0.515,3.818-1.029,5.693-1.535c0-17.406,0-34.811,0-52.465
	c-45.435,0-90.564,0-135.693,0C417,1717.167,417,1734.833,417,1752.5z"/>
<path id="_470uF-25v_Electro" fill="#CB0000" d="M4016,1937.5c-39.852,0-79.703,0-120.682,0c0-42.333,0-83.755,0-126
	c39.569,0,80.125,0,120.682,0C4016,1853.5,4016,1895.5,4016,1937.5z M406,705.5c0,39.333,0,78.667,0,118
	c39.736,0,79.472,0,119.666,0c0-5.38-0.011-9.333,0.002-13.286c0.108-34.905,0.221-69.81,0.332-104.714
	C486,705.5,446,705.5,406,705.5z M3922,2407.5c0.007-0.609,0.037-1.216,0.089-1.823c-36.707-0.042-73.413-0.085-110.12-0.127
	c0.01,0.65,0.02,1.3,0.031,1.95C3848.667,2407.5,3885.333,2407.5,3922,2407.5z M1981.581,1794.114
	c-0.006-2.097-1.135-4.19-1.726-6.231c-39.604,0-78.478,0-117.079,0c0.309,6.226,0.832,12.077,0.85,17.93
	c0.087,28.966,0.024,57.933,0.064,86.9c0.004,2.829,0.355,5.657,0.537,8.375c39.401,0,77.915,0,117.431,0
	C1981.659,1864.656,1981.69,1829.385,1981.581,1794.114z M2423.385,709.965c0,37.198,0,73.957,0,111.02c40.601,0,80.028,0,119.39,0
	c2.183-18.055,1.353-103.925-1.135-111.02C2501.956,709.965,2462.139,709.965,2423.385,709.965z M3923.579,2402.308
	c0.083-34.978,0.099-69.956-0.001-104.933c-0.005-1.801-1.135-3.599-1.655-5.145c-37.598,0-74.633,0-111.292,0
	c0.382,4.941,0.971,9.17,0.994,13.403c0.176,33.306,0.244,66.612,0.345,99.917c36.707,0.042,73.413,0.085,110.12,0.127
	C3922.608,2404.554,3923.577,2403.432,3923.579,2402.308z M3787.647,2265.208c-0.014-9.642-0.119-9.687-10.308-9.695
	c-30.612-0.023-61.223-0.008-91.835-0.008c-3.615,0-7.231,0-9.988,0c0,38.157,0,75.587,0,113.504c37.607,0,74.361,0,112.149,0
	C3787.666,2333.699,3787.696,2299.453,3787.647,2265.208z M1771.874,2373.477c2.65-0.001,5.3-0.323,7.95-0.496
	c-0.053-32.603-0.067-65.206-0.21-97.808c-0.016-3.752-0.753-7.501-1.12-10.925c-38.949,0-76.597,0-113.845,0
	c0.376,4.954,0.952,9.177,0.977,13.405c0.191,31.93,0.274,63.861,0.391,95.792
	C1701.303,2373.462,1736.589,2373.492,1771.874,2373.477z M1897.874,2397.477c2.65-0.001,5.3-0.323,7.95-0.496
	c-0.053-32.603-0.067-65.206-0.21-97.808c-0.016-3.752-0.753-7.501-1.12-10.925c-38.949,0-76.597,0-113.845,0
	c0.376,4.954,0.952,9.177,0.977,13.405c0.191,31.93,0.274,63.861,0.391,95.792
	C1827.303,2397.462,1862.589,2397.492,1897.874,2397.477z"/>
<path id="_47uF-25v_Electro" fill="#CB0000" d="M3078,2088.5c0-26.918,0-53.837,0-81.377c32.757,0,64.564,0,97.448,0
	c0.183,27.034,0.367,54.206,0.552,81.377C3143.333,2088.5,3110.667,2088.5,3078,2088.5z M44,616.5
	c25.968-0.099,51.936-0.196,77.904-0.319c0.259-0.001,0.537-0.32,0.77-0.531c0.246-0.222,0.449-0.491,0.503-0.552
	c0-26.045,0-51.899,0-78.599c-26.718,0-52.947,0-79.177,0C44,563.167,44,589.833,44,616.5z M3772,1698.5
	c-24.506,0-49.012,0-73.921,0c0,25.637,0,50.374,0,76c24.908,0,49.415,0,73.921,0C3772,1749.167,3772,1723.833,3772,1698.5z
	 M3431.578,26.971c0.141-0.824,0.281-1.647,0.422-2.471c-26.667,0-53.333,0-80,0c0.142,0.822,0.283,1.644,0.425,2.466
	C3378.809,26.968,3405.194,26.969,3431.578,26.971z M1280.171,1627.996c0,17.984,0,35.448,0,53.946c-23.178,0-45.303,0-67.39,0
	c0,27.926,0,54.788,0,81.577c12.914,1.866,73.614,1.386,81.249-0.766c0-18.664,0-37.537,0-57.517c25.085,0,49.477,0,73.933,0
	c0-26.341,0-51.548,0-77.24C1338.316,1627.996,1309.77,1627.996,1280.171,1627.996z M3210.893,1681.997c0,26.958,0,53.387,0,79.927
	c29.367,0,58.164,0,87.114,0c0-26.825,0-53.064,0-79.927C3268.322,1681.997,3239.794,1681.997,3210.893,1681.997z
	 M1155.849,2069.222c0-27.551,0-54.75,0-82.315c-26.609,0-53.109,0-79.913,0c0,27.337,0,54.26,0,82.315
	C1102.912,2069.222,1129.122,2069.222,1155.849,2069.222z M2380.676,1462.978c26.498,0,52.633,0,79.21,0c0-26.422,0-52.579,0-78.901
	c-26.64,0-52.787,0-79.21,0C2380.676,1410.595,2380.676,1436.48,2380.676,1462.978z M2429.158,849.05c0-26.969,0-53.385,0-80.106
	c-26.333,0-52.125,0-78.386,0c0,26.633,0,52.808,0,80.106C2377.189,849.05,2402.985,849.05,2429.158,849.05z M310.659,836.961
	c25.802,0,51.276,0,77.236,0c0-26.355,0-52.513,0-78.901c-25.943,0-51.418,0-77.236,0
	C310.659,784.56,310.659,810.446,310.659,836.961z M1319.835,141.03c0-25.955,0-51.446,0-76.901c-26.04,0-51.534,0-77.088,0
	c0,25.906,0,51.125,0,76.901C1268.638,141.03,1294.093,141.03,1319.835,141.03z M1542.248,1753.087
	c23.512,1.705,73.88,0.968,80.896-1.101c0-23.886,0-47.737,0-72.061c-27.112,0-53.682,0-80.896,0
	C1542.248,1704.836,1542.248,1728.989,1542.248,1753.087z M197.046,871.094c-26.731,0-52.828,0-78.796,0c0,26.01,0,51.42,0,77.117
	c26.434,0,52.277,0,78.796,0C197.046,921.853,197.046,896.451,197.046,871.094z M451.848,1479.997c0-25.924,0-51.332,0-76.968
	c-26.57,0-52.643,0-79.117,0c0,25.679,0,50.832,0,76.968C399.503,1479.997,425.59,1479.997,451.848,1479.997z M2208.941,863.977
	c0,25.279,0,50.02,0,74.911c26.054,0,51.47,0,77.047,0c0-25.258,0-49.809,0-74.911
	C2259.702,863.977,2234.472,863.977,2208.941,863.977z M1311.717,379.158c-26.029,0-51.426,0-76.734,0c0,26.067,0,51.469,0,77.047
	c25.836,0,51.013,0,76.734,0C1311.717,429.847,1311.717,404.438,1311.717,379.158z M3316.07,1706.001c25.862,0,51.311,0,76.955,0
	c0-25.585,0-50.655,0-76.113c-25.851,0-51.051,0-76.955,0C3316.07,1655.891,3316.07,1680.754,3316.07,1706.001z M1678.968,1759.904
	c27.411,0,54.175,0,80.765,0c0-24.689,0-48.768,0-73.119c-27.114,0-53.62,0-80.765,0
	C1678.968,1711.853,1678.968,1735.924,1678.968,1759.904z M2143.139,631.015c0-24.319,0-48.057,0-72.122
	c-26.669,0-52.784,0-79.035,0c0,24.232,0,48.054,0,72.122C2090.678,631.015,2116.769,631.015,2143.139,631.015z M3566.097,1696.968
	c0,25.211,0,49.951,0,75.064c25.186,0,49.931,0,75.126,0c0-24.958,0-49.444,0-75.064
	C3615.931,1696.968,3591.181,1696.968,3566.097,1696.968z M3501.13,2005.807c0-25.097,0-49.83,0-74.793c-25.303,0-50.058,0-75.141,0
	c0,25.037,0,49.563,0,74.793C3450.877,2005.807,3475.87,2005.807,3501.13,2005.807z M1481.192,2044.955c0-24.569,0-49.085,0-73.526
	c-13.747-1.854-67.797-1.313-74.715,0.722c0,24.219,0,48.484,0,73.385C1420.558,2047.434,1474.603,2046.893,1481.192,2044.955z
	 M3329.214,511.359c0-24.309,0-47.152,0-69.92c-13.241-1.831-71.557-1.345-78.435,0.558c0,22.865,0,45.701,0,69.628
	C3277.271,511.454,3303.28,511.898,3329.214,511.359z M3352.425,95.508c14.104,1.946,72.208,1.394,79.153-0.683
	c0-22.578,0-45.216,0-67.854c-26.385-0.002-52.769-0.003-79.153-0.005C3352.425,49.857,3352.425,72.747,3352.425,95.508z"/>
<path id="_47uF-NP_Electro" fill="#CB0000" d="M3415,1734.5c-1.329-1.249-3.133-1.624-3.121-4.418
	c0.175-41.609,0.121-83.22,0.121-125.206c30.574,0,61.063,0,91.777,0c0,42.727,0,85.438,0,128.025
	c-1.64,0.549-3.209,1.074-4.777,1.599c-0.667,0-1.333,0-2,0c-0.981-0.333-1.96-0.955-2.942-0.958
	c-24.039-0.054-48.078-0.054-72.116,0c-0.981,0.002-1.961,0.624-2.942,0.958C3417.667,1734.5,3416.333,1734.5,3415,1734.5z
	 M1406,1706.5c30.585,0,61.17,0,91.699,0c0-35.316,0-70.04,0-105c-30.767,0-61.233,0-91.699,0C1406,1636.5,1406,1671.5,1406,1706.5z
	 M3533,21.5c-26.333,0-52.667,0-79,0c0,25.254,0,50.508,0,76c26.731,0,52.865,0,79,0C3533,72.167,3533,46.833,3533,21.5z
	 M1491.304,151.197c47.691,0,95.078,0,142.392,0c0-41.692,0-83.08,0-124.571c-47.573,0-94.841,0-142.392,0
	C1491.304,68.495,1491.304,109.883,1491.304,151.197z M3189.293,139.203c27.017,0,53.74,0,80.414,0c0-38.349,0-76.401,0-114.577
	c-26.898,0-53.503,0-80.414,0C3189.293,63.146,3189.293,101.197,3189.293,139.203z"/>
<path id="_100uF-NP_Electro" fill="#CB0000" d="M3636,153.5c-27.463,0-54.927,0-83,0c0-27.168,0-54.084,0-81c27.667,0,55.333,0,83,0
	C3636,99.5,3636,126.5,3636,153.5z M1542,411.5c21.687,0,43.374-0.022,65.061,0.043c1.647,0.005,3.292,0.624,4.939,0.957
	c2,0,4,0,6,0c1.909-0.514,3.818-1.029,5.698-1.536c0-23.069,0-46.137,0-69.464c-27.434,0-54.566,0-81.698,0
	C1542,364.833,1542,388.167,1542,411.5z"/>
<path id="_1nF_Poly" fill="#CB0000" d="M2117,2045.5c0-36.43,0-72.859,0-109.644c55.926,0,111.726,0,167.446,0
	c0.504,1.508,1.029,3.076,1.554,4.644c0,1,0,2,0,3c-0.333,1.645-0.955,3.29-0.958,4.936c-0.057,32.354-0.042,64.709-0.042,97.064
	C2229,2045.5,2173,2045.5,2117,2045.5z M117,2041.5c55.916,0,111.833,0,167.697,0c0-36.981,0-73.375,0-110
	c-56.101,0-111.899,0-167.697,0C117,1968.167,117,2004.833,117,2041.5z"/>
<path id="_1uF_Poly" fill="#CB0000" d="M51,978.5c41.135,0,82.27,0,123.703,0c0,94.63,0,189.016,0,284c-41.195,0-82.449,0-123.703,0
	C51,1167.833,51,1073.167,51,978.5z M2064,977.5c0,95.249,0,190.497,0,285.695c41.313,0,82.042,0,123,0
	c0-95.435,0-190.565,0-285.695C2146,977.5,2105,977.5,2064,977.5z"/>
<path id="_1uF-50v_Poly" fill="#CB0000" d="M165,1704.5c29.1,0,58.3,0,87.7,0c0,26.3,0,52.3,0,79c-29.2,0-58.4,0-87.7,0
	C165,1757.2,165,1730.8,165,1704.5z M2248,1758.5c-0.5,1.3-1,2.5-1.6,3.9c-29.2,0-58.5,0-88.1,0c0-25.2,0-50.2,0-75.6
	c1.2-0.1,2.5-0.2,3.8-0.2c26.8,0,53.6,0,80.5-0.1c2.6,0,4.6,0.3,5.5,3.1c0,1.7,0,3.3,0,5c-0.3,1-1,2-1,2.9
	c-0.1,17.4-0.1,34.7,0,52.1c0,1,0.6,2,1,2.9C2248,1754.5,2248,1756.5,2248,1758.5z"/>
<path id="_100nF_Poly" fill="#CB0000" d="M3813,1687.5c-3.7-0.1-7.3-0.3-11-0.3c-89.9,0-179.8,0-269.7,0c-3.6,0-7.2,0-11.2,0
	c0-25.5,0-49.9,0-75.4c4,0,7.6,0,11.2,0c89.9,0,179.8,0,269.7,0c3.7,0,7.3-0.2,11-0.3C3813,1636.8,3813,1662.2,3813,1687.5z
	 M29,639.5c29.6,0,59.1,0,89.2,0c0,47.1,0,92.9,0,140c-30.1,0-59.6,0-89.2,0C29,732.8,29,686.2,29,639.5z M1481,93.5
	c0,18.2,0,36.4,0,55.2c-44.4,0-88.2,0-133.4,0c-0.2-18.3-0.4-36.7-0.6-55.2C1391.7,93.5,1436.3,93.5,1481,93.5z M161.9,795.7
	c47.1,0,93.5,0,140.7,0c0,22.7,0,44.9,0,68.1c26.9,0,53,0,79.6,0c0,26.2,0,51.4,0,76.5c-7.1,1.9-135.1,2.4-146.7,0.3
	c0-24.7,0-49.5,0-75.4c-24.9,0-49,0-73.6,0C161.9,841.7,161.9,819.2,161.9,795.7z M1509.1,1672.6c0-23.7,0-46.9,0-70.8
	c94.4,0,188.7,0,283.7,0c0,23.4,0,46.8,0,70.8C1698.4,1672.6,1604.4,1672.6,1509.1,1672.6z M2111.9,1815.5c57.1,0,113.6,0,170.8,0
	c0,39.1,0,78.1,0,117.7c-56.7,0-113.5,0-170.8,0C2111.9,1894.3,2111.9,1855.5,2111.9,1815.5z M113,1923.4c0-36.8,0-72.9,0-109.7
	c59,0,117.7,0,177,0c0,36.2,0,72.4,0,108.5C282.4,1924.5,149.2,1925.4,113,1923.4z M2345,948.8c-0.2-3.2-0.4-6.4-0.7-10.7
	c-15,0-29.8,0-45.1,0c0-45.8,0-90.6,0-135.8c15.6,0,30.8,0,47.1,0c0,20.8,0,41.6,0,63.3c46.5,0,91.9,0,137.9,0c0,28.2,0,55.3,0,82.6
	C2477.6,950.2,2357.6,950.8,2345,948.8z M471,1483.4c0-29.1,0-57.7,0-86.9c48.2,0,96.3,0,145,0c0,28.9,0,57.6,0,86.9
	C567.8,1483.4,520,1483.4,471,1483.4z M1464.2,341.7c0,30.9,0,61.4,0,92c-7.1,1.9-112.7,2.6-130.9,0.8c0-30.7,0-61.4,0-92.7
	C1376.8,341.7,1420.3,341.7,1464.2,341.7z M2481.2,1396c47.4,0,93.6,0,139.8,0c2.1,7.2,2.8,64.4,0.9,83.1c-46.7,0-93.4,0-140.7,0
	C2481.2,1451.7,2481.2,1424.3,2481.2,1396z M1190.5,1912.1c0,25.6,0,50.5,0,75.3c-6.9,2.1-136.7,2.7-150.6,0.7c0-25.1,0-50.2,0-75.4
	C1046.5,1910.8,1175.6,1910.1,1190.5,1912.1z M1065.2,1629.6c46.1,0,91.6,0,137.6,0c0,27.2,0,54.1,0,81.6c-45.7,0-91.4,0-137.6,0
	C1065.2,1684.2,1065.2,1657.4,1065.2,1629.6z M1474.9,1933.5c-26.5,0-52.3,0-78.9,0c0-46.2,0-92.3,0-139c26.2,0,52.3,0,78.9,0
	C1474.9,1840.7,1474.9,1886.5,1474.9,1933.5z M3200.2,1635.7c0,25.9,0,51.3,0,77.5c-46.8,0-93.5,0-140.9,0c0-25.6,0-51.3,0-77.5
	C3106.2,1635.7,3152.9,1635.7,3200.2,1635.7z M3200.6,1991c-3,0.2-6,0.5-8.9,0.5c-44.2,0-88.4,0-132.6-0.1c0-25.6,0-51.2,0-77.5
	c46.7,0,93.4,0,141.6,0C3200.6,1939.4,3200.6,1965.2,3200.6,1991z M3484.8,1920.7c-22.9,0-45.5,0-68,0c-1.9-7.1-2.6-127-0.8-144.9
	c22.7,0,45.4,0,68.7,0C3484.8,1824,3484.8,1872.1,3484.8,1920.7z M3199.1,443.4c0-24,0-47.4,0-71.6c44.8,0,89.6,0,134.9,0
	c0,23.7,0,47.4,0,71.6C3288.9,443.4,3244.2,443.4,3199.1,443.4z M2130.2,792.7c-20.7,0-40.3,0-60.4,0c0-47.2,0-94,0-141.2
	c20.1,0,40,0,60.4,0C2130.2,698.6,2130.2,745.4,2130.2,792.7z M3476.2,113.7c0,15.6,0,30.7,0,45.9c-7.1,2-153.4,2.7-172.8,0.8
	c0-15.3,0-30.8,0-46.8C3360.8,113.7,3418.2,113.7,3476.2,113.7z"/>
<path id="_1uF_Tantalum" fill="#CB0000" d="M2967,2219.5c0-47.5,0-95,0-142.4c2.5-0.6,4.8-1.1,7-1.6c1,0,2,0,3,0
	c1.6,0.3,3.3,1,4.9,1c21.7,0.1,43.4,0,65.1,0c0,47.7,0,95.3,0,143C3020.3,2219.5,2993.7,2219.5,2967,2219.5z M982,2082.5
	c26.8,0,53.6,0,80.7,0c0,43.3,0,86.3,0,130c-26.9,0-53.8,0-80.7,0C982,2169.2,982,2125.8,982,2082.5z"/>
<path id="_1N4148" fill="#FE9800" d="M1212,1931.5c2.6-0.3,5.2-1,7.7-1c48.8-0.1,97.6,0,146.4,0c1.8,0,3.6,0,5.6,0
	c0,10.7,0,20.9,0,31.5c-0.8,0.1-1.7,0.4-2.6,0.4c-31.6,0.4-63.1,0.8-94.7,1c-19,0.1-38,0.1-57-0.1c-1.8,0-3.6-1.2-5.5-1.9
	c0-1,0-2,0-3c0-7.3,0-14.7,0-22C1212,1934.8,1212,1933.2,1212,1931.5z M1212,1978.5c52.4,0,104.9,0,157.7,0c0,10.6,0,21,0,32
	c-2.7,0-5.5,0-8.3,0c-47.7,0.3-95.4,0.7-143.2,1c-2.1,0-4.1-0.6-6.2-1C1212,1999.8,1212,1989.2,1212,1978.5z M3371,1964.5
	c-52.4,0-104.9,0-157.7,0c0-10.6,0-21,0-32c52.5,0,105.1,0,157.7,0C3371,1943.2,3371,1953.8,3371,1964.5z M3211,2012.5
	c0-10.5,0-20.9,0-31.7c52.7,0,105,0,158,0c0,10.5,0,21.1,0,31.7C3316.3,2012.5,3263.7,2012.5,3211,2012.5z"/>
<path id="_TL072" fill="#3333CB" d="M1048,1737.5c49.8,0,99.6,0,150,0c0,54.2,0,108.1,0,162c-49.9,0-99.8,0-150,0
	C1048,1845.5,1048,1791.5,1048,1737.5z M3196,1876.5c-47.8,0-95.6,0-143.7,0c0-54.3,0-108.4,0-162.4c1.5-0.5,3.1-1,4.7-1.6
	c3.7,0,7.3,0,11,0c1.7,0.3,3.3,1,5,1c41,0.1,82,0,123,0C3196,1767.8,3196,1822.2,3196,1876.5z"/>
<path id="_NE5532" fill="#3333CB" d="M2136,840.5c0-47.8,0-95.6,0-143.7c59,0,117.7,0,177,0c0,47.9,0,95.8,0,143.7
	C2254,840.5,2195,840.5,2136,840.5z M126,652.5c57.1,0,114.2,0,171.7,0c0,48,0,95.7,0,144c-57.2,0-114.4,0-171.7,0
	C126,748.5,126,700.5,126,652.5z M1485,152.5c1,1.5,2.9,3,2.9,4.5c0.1,54.1,0.1,108.3,0.1,162.4c0,0.5-0.1,1-0.2,1.8
	c-47.7,0-95.4,0-143.4,0c0-55.6,0-111.3,0-167.1c2.2-0.5,4.4-1.1,6.7-1.6c5,0,10,0,15,0c1.2,0.3,2.3,1,3.5,1c32.3,0.1,64.7,0.1,97,0
	c1.2,0,2.3-0.6,3.5-1C1475,152.5,1480,152.5,1485,152.5z M3482,322.5c-48.5,0-96.9,0-145.7,0c0-52.3,0-104.3,0-157
	c48.5,0,97.1,0,145.7,0C3482,217.8,3482,270.2,3482,322.5z"/>
<path id="_NE5534" fill="#3333CB" d="M307,1080.5c67.8,0,135.6,0,203.7,0c0,47,0,93.7,0,141c-67.9,0-135.8,0-203.7,0
	C307,1174.5,307,1127.5,307,1080.5z M409,1956.5c0-60.5,0-120.9,0-181.7c52,0,103.7,0,156,0c0,60.5,0,121.1,0,181.7
	C513,1956.5,461,1956.5,409,1956.5z M3825,1471.5c-51.5,0-102.9,0-154.7,0c0-59.3,0-118.3,0-178c51.5,0,103.1,0,154.7,0
	C3825,1352.8,3825,1412.2,3825,1471.5z M2481.7,1231.4c-55.9,0-111.4,0-167.3,0c0-51.8,0-103.5,0-155.5c55.6,0,111.3,0,167.3,0
	C2481.7,1127.5,2481.7,1179.2,2481.7,1231.4z M3368.8,1296.8c0,55.9,0,111.4,0,167.3c-51.5,0-102.8,0-154.5,0
	c0-55.6,0-111.3,0-167.3C3265.6,1296.8,3317,1296.8,3368.8,1296.8z M2550.9,1771.8c0,59.9,0,119.4,0,179.3c-47.8,0-95.5,0-143.5,0
	c0-59.6,0-119.3,0-179.3C2454.9,1771.8,2502.6,1771.8,2550.9,1771.8z M1367.7,1462.3c-50.6,0-100.9,0-151.4,0
	c0-55.8,0-111.5,0-167.5c50.4,0,100.7,0,151.4,0C1367.7,1350.5,1367.7,1406.2,1367.7,1462.3z M1680.3,1294.7c46.2,0,92.1,0,138.3,0
	c0,59.8,0,119.5,0,179.5c-45.9,0-92,0-138.3,0C1680.3,1414.6,1680.3,1354.9,1680.3,1294.7z"/>
<path id="_39R" fill="#00CB00" d="M603,870.5c3.8,0.5,7.6,1,11.7,1.6c0,16.7,0,33.8,0,51.4c-62.5,0-125.1,0-187.7,0
	c0-17.3,0-34.7,0-52c55,0,110,0,165.1,0c1.6,0,3.3-0.6,4.9-1C599,870.5,601,870.5,603,870.5z M2489,927.5c0-17.1,0-34.3,0-52
	c62.8,0,125.4,0,188,0c0,17.3,0,34.7,0,52C2614.3,927.5,2551.7,927.5,2489,927.5z"/>
<path id="_47K" fill="#00CB00" d="M1200,2037.5c64.8,0,129.6,0,194.7,0c0,19.3,0,38.4,0,58c-64.9,0-129.8,0-194.7,0
	C1200,2076.2,1200,2056.8,1200,2037.5z M3394,2090.5c-0.5,1.2-1,2.5-1.6,3.8c-62.6,0-125.3,0-188.2,0c0-18.6,0-37,0-55.8
	c1.8,0,3.4,0,5.1,0c59.6,0,119.2,0,178.8,0c2.7,0,5-0.1,5.9,3c0,1,0,2,0,3c-0.3,0.8-1,1.6-1,2.4c-0.1,12.4-0.1,24.8,0,37.1
	c0,0.8,0.6,1.6,1,2.4C3394,2087.8,3394,2089.2,3394,2090.5z"/>
<path id="_47R" fill="#00CB00" d="M865,1143.5c1.2,0.5,2.5,1,3.8,1.6c0,59.6,0,119.3,0,179.2c-12.3,0-24.3,0-36.6,0
	c0-59.9,0-119.6,0-179.2c1.3-0.5,2.5-1,3.8-1.6c1,0,2,0,3,0c3.6,0.3,7.2,1,10.8,0.9c4.4,0,8.8-0.6,13.2-0.9
	C863.7,1143.5,864.3,1143.5,865,1143.5z M786,1147.5c12.1,0,24.3,0,36.7,0c0,59.9,0,119.7,0,180c-12.2,0-24.4,0-36.7,0
	C786,1267.5,786,1207.5,786,1147.5z M2780,1333.5c0-61.5,0-122.9,0-184.7c11.6,0,23,0,35,0c0,61.5,0,123.1,0,184.7
	C2803.3,1333.5,2791.7,1333.5,2780,1333.5z M2826,1333.5c0-61.5,0-122.9,0-185c11.8,0,23.4,0,35,0c0,61.7,0,123.3,0,185
	C2849.3,1333.5,2837.7,1333.5,2826,1333.5z"/>
<path id="_75R" fill="#00CB00" d="M1303,31.5c61.8,0,123.6,0,185.7,0c0,16,0,31.7,0,48c-61.9,0-123.8,0-185.7,0
	C1303,63.5,1303,47.5,1303,31.5z M3745,371.5c0-58.4,0-116.9,0-176c2.7,0,5.3,0,7.8,0c11.3,0,22.6,0,34,0c1.7,0,3.5,0.6,5.2,1
	c0,3.7,0,7.3,0,11c-0.3,1.6-1,3.3-1,4.9c-0.1,53,0,106,0,159.1C3775.7,371.5,3760.3,371.5,3745,371.5z M1499.1,205.2
	c0-15.9,0-31.5,0-47.4c61.8,0,123.6,0,185.6,0c0,15.7,0,31.4,0,47.4C1623,205.2,1561.3,205.2,1499.1,205.2z M3678.9,161.8
	c0,13.9,0,27.5,0,41.4c-63.8,0-127.6,0-191.6,0c0-13.7,0-27.4,0-41.4C3551,161.8,3614.7,161.8,3678.9,161.8z"/>
<path id="_100K" fill="#00CB00" d="M3891.3,1826.5c-18.8,0-36.7,0-55.1,0c0-70.3,0-140.5,0-211.2c18.4,0,36.5,0,55.1,0
	C3891.3,1685.6,3891.3,1755.5,3891.3,1826.5z M1976.1,923.3c16.2,0,31.5,0,47.1,0c0,65,0,129.6,0,194.9c-15.6,0-31.1,0-47.1,0
	C1976.1,1053.5,1976.1,988.6,1976.1,923.3z M2147.2,795.5c0,64.6,0,128.4,0,192.9c-15.7,0-30.9,0-46.8,0c0-64,0-128.1,0-192.9
	C2115.6,795.5,2131,795.5,2147.2,795.5z M2138.1,1259.3c15.8,0,31.3,0,47.2,0c0,64.4,0,128.3,0,192.9c-15.7,0-31.2,0-47.2,0
	C2138.1,1388.1,2138.1,1323.9,2138.1,1259.3z M2345.3,1767.4c0,67.1,0,133.6,0,200.9c-15.1,0-29.9,0-45.2,0c0-66.9,0-133.7,0-200.9
	C2315.3,1767.4,2330.2,1767.4,2345.3,1767.4z M1835.3,1816.5c-14.7,0-28.7,0-43.1,0c0-69.6,0-139.2,0-209.2c14.4,0,28.5,0,43.1,0
	C1835.3,1677,1835.3,1746.2,1835.3,1816.5z M185.3,1444.5c-16.1,0-31.3,0-47.1,0c0-59,0-117.8,0-177.2c15.7,0,31.2,0,47.1,0
	C185.3,1326.3,185.3,1384.9,185.3,1444.5z M298,1973.5c0.5-3.5,1.6-6.9,1.6-10.4c0.1-60.9,0.1-121.9,0.1-182.8c0-3.6,0-7.2,0-11
	c16.4,0,31.9,0,48,0c0,4.1,0,7.8,0,11.4c0,60.6,0,121.2,0,181.8c0,3.7,0.2,7.3,0.3,11C331.3,1973.5,314.7,1973.5,298,1973.5z
	 M4026,1019.5c-13.3-0.2-26.5-0.4-39.8-0.6c-3.2,0-6.5,0-10.1,0c0-62.4,0-123.7,0-185.4c16.9,0,33.4,0,49.9,0
	C4026,895.5,4026,957.5,4026,1019.5z M111.6,792c0,58.4,0,116.9,0,176.5c-16.7,0.3-33.2,0.7-49.6,1c0-59.3,0-118.7,0-178
	C78.5,791.7,95.1,791.8,111.6,792z"/>
<path id="_100R" fill="#00CB00" d="M2127,1746.5c-17.8,0-35.6,0-53.7,0c-0.1-1.4-0.3-2.7-0.3-3.9c0-58.9,0-117.8-0.1-176.6
	c0-2.6,0.3-4.6,3.1-5.4c1,0,2,0,3,0c1.5,0.3,2.9,0.9,4.4,1c14.5,0.1,29.1,0,43.6,0C2127,1623.2,2127,1684.8,2127,1746.5z M48,1704.5
	c16.8,0,33.6,0,51,0c0,62.2,0,124.1,0,186c-17,0-34,0-51,0C48,1828.5,48,1766.5,48,1704.5z"/>
<path id="_220R" fill="#00CB00" d="M3820,2077.5c0-60.1,0-120.3,0-181c27.8,0,55.4,0,83,0c0,60.3,0,120.7,0,181
	C3875.3,2077.5,3847.7,2077.5,3820,2077.5z M1853,1877.5c1.4,0.5,2.9,1,4.7,1.6c0,59.3,0,119.1,0,179.4c-23.9,0-47.8,0-71.7,0
	c0-60,0-120,0-180c19.4,0,38.7,0,58.1,0c1.6,0,3.3-0.6,4.9-1C1850.3,1877.5,1851.7,1877.5,1853,1877.5z"/>
<path id="_300R" fill="#00CB00" d="M2958,1331.5c0-62.5,0-124.9,0-187.7c14.3,0,28.3,0,42.4,0c0.5,4.9,1,9.8,1.6,14.7c0,5,0,10,0,15
	c-0.3,1.6-1,3.3-1,4.9c-0.1,51,0,102,0,153.1C2986.7,1331.5,2972.3,1331.5,2958,1331.5z M2910,1331.5c0-62.5,0-124.9,0-187.7
	c14.3,0,28.4,0,43,0c0,62.5,0,125.1,0,187.7C2938.7,1331.5,2924.3,1331.5,2910,1331.5z M907,1148.5c14.1,0,28.3,0,43,0
	c0,61.2,0,122.1,0,183c-14.3,0-28.6,0-43,0C907,1270.5,907,1209.5,907,1148.5z M998.7,1330.4c-14.2,0-28.1,0-42.4,0
	c0-60.8,0-121.5,0-182.5c14,0,28,0,42.4,0C998.7,1208.4,998.7,1269.2,998.7,1330.4z"/>
<path id="_470R" fill="#00CB00" d="M2370,1726.5c0-61.1,0-122.3,0-184c17.5,0,34.7,0,52,0c0,61.3,0,122.7,0,184
	C2404.7,1726.5,2387.3,1726.5,2370,1726.5z M372,1534.5c1.4,0.5,2.9,1,4.7,1.6c0,59.3,0,119.1,0,179.4c-15.2,0-30.5,0-45.7,0
	c0-60,0-120,0-180c11.5,0,23.1,0,34.6,0c1.5,0,2.9-0.6,4.4-1C370.7,1534.5,371.3,1534.5,372,1534.5z"/>
<path id="_1K" fill="#00CB00" d="M929.5,1797.9c0.1,56.6,0.1,113.1,0.2,169.7c0,4,0.2,8,0.3,12c-16,0-32,0-48,0
	c0-60.7,0-121.3,0-182C897.8,1797.6,913.7,1797.8,929.5,1797.9z M2927.5,1801.9c0.1,55.2,0.1,110.4,0.2,165.7c0,4,0.2,8,0.3,12
	c-15.3,0-30.7,0-46,0c-0.1-15.7-0.3-31.3-0.3-47c0-40,0-80,0-120c0-3.7,0.2-7.3,0.4-11C2897.2,1801.7,2912.3,1801.8,2927.5,1801.9z
	 M3888.1,375.5c-0.1-2.7-0.4-5.3-0.4-8c0-54,0-108,0-162c0-2.7,0.2-5.3,0.4-8c14.6,0,29.3,0,43.9-0.1c0,59.3,0,118.7,0,178
	C3917.4,375.5,3902.7,375.5,3888.1,375.5z M1878,193.6c17.2,0.1,34.3,0.3,51.5,0.4c0,58.1,0.1,116.2,0,174.3c0,2.4-1,4.9-1.5,7.3
	c-16.7-0.1-33.3-0.1-50-0.2c-0.1-2-0.4-4-0.4-6c0-56.7,0-113.3,0-170C1877.7,197.5,1877.9,195.6,1878,193.6z M1837.5,199.9
	c-0.1,60.4-0.1,120.9-0.2,181.3c-17.1,0.1-34.2,0.1-51.2,0.2c-0.1-2.7-0.4-5.3-0.4-8c0-55.3,0-110.6,0-166c0-2.7,0.2-5.3,0.4-8
	C1803.2,199.7,1820.3,199.8,1837.5,199.9z M3794.1,373.5c-0.1-2.7-0.4-5.3-0.4-8c0-54,0-108,0-162c0-2.7,0.2-5.3,0.4-8
	c15.1,0.1,30.3,0.2,45.4,0.3c0.1,57.5,0.1,114.9,0.1,172.4c0,1.8-1,3.5-1.5,5.3C3823.4,373.6,3808.7,373.5,3794.1,373.5z"/>
<path id="_1K5" fill="#00CB00" d="M301,755.5c0-61.1,0-122.3,0-183.7c16.6,0,33,0,50,0c0,61.2,0,122.4,0,183.7
	C334.3,755.5,317.7,755.5,301,755.5z M2369,745.5c-16.5,0-32.9,0-49.7,0c-0.1-1.4-0.3-2.7-0.3-3.9c0-56.5,0-113.1-0.1-169.6
	c0-2.6,0.3-4.6,3.1-5.4c1,0,2,0,3,0c1.5,0.3,2.9,0.9,4.4,1c13.2,0.1,26.4,0,39.6,0C2369,626.8,2369,686.2,2369,745.5z M115,583.5
	c61.1,0,122.3,0,183.7,0c0,16,0,31.7,0,48c-61.2,0-122.4,0-183.7,0C115,615.5,115,599.5,115,583.5z M2310.7,677.4
	c-60.5,0-120.7,0-181.3,0c0-14.4,0-28.8,0-43.5c60.2,0,120.6,0,181.3,0C2310.7,648.1,2310.7,662.4,2310.7,677.4z"/>
<path id="_2K" fill="#00CB00" d="M2157,393.5c0-60.5,0-120.9,0-181.7c32.7,0,65.1,0,97.5,0c0.5,2.2,1,4.5,1.5,6.7c0,3.7,0,7.3,0,11
	c-0.3,1.6-1,3.3-1,4.9c-0.1,53,0,106,0,159.1C2222.3,393.5,2189.7,393.5,2157,393.5z M157,191.5c31.8,0,63.6,0,95.7,0
	c0,60.6,0,121,0,182c-31.9,0-63.8,0-95.7,0C157,312.8,157,252.2,157,191.5z"/>
<path id="_3K3" fill="#00CB00" d="M3193,1011.5c-35.8,0-71.6,0-107.7,0c0-60.6,0-121,0-182c35.9,0,71.8,0,107.7,0
	C3193,890.2,3193,950.8,3193,1011.5z M955,1781.5c15.1,0,30.3,0,45.7,0c0,60.6,0,121,0,182c-15.2,0-30.4,0-45.7,0
	C955,1902.8,955,1842.2,955,1781.5z M2953,1967.5c0-61.1,0-122.3,0-183.7c14.6,0,29,0,44,0c0,61.2,0,122.4,0,183.7
	C2982.3,1967.5,2967.7,1967.5,2953,1967.5z M1095.1,1009.2c0-62.6,0-124.8,0-187.4c33.2,0,66.2,0,99.6,0c0,62.3,0,124.7,0,187.4
	C1161.7,1009.2,1128.7,1009.2,1095.1,1009.2z"/>
<path id="_4K7" fill="#00CB00" d="M1333,160.5c0,60.5,0,120.9,0,181.7c-32.6,0-65,0-98,0c0-60.5,0-121.1,0-181.7
	C1267.7,160.5,1300.3,160.5,1333,160.5z M3327,160.5c0,62.5,0,124.9,0,187.7c-30.6,0-61,0-92,0c0-62.5,0-125.1,0-187.7
	C3265.7,160.5,3296.3,160.5,3327,160.5z M649,1142.5c31.1,0,62.3,0,93.7,0c0,61.3,0,122.3,0,184c-31.2,0-62.4,0-93.7,0
	C649,1265.2,649,1203.8,649,1142.5z M3677,346.5c-63.1,0-126.3,0-189.7,0c0-16.6,0-33,0-50c63.2,0,126.4,0,189.7,0
	C3677,313.2,3677,329.8,3677,346.5z M2742.9,1146.8c0,59.9,0,119.5,0,179.4c-32.5,0-64.9,0-97.6,0c0-59.7,0-119.4,0-179.4
	C2677.6,1146.8,2710,1146.8,2742.9,1146.8z M1740.7,374.4c-17.9,0-35.5,0-53.4,0c0-60.5,0-120.9,0-181.6c17.7,0,35.4,0,53.4,0
	C1740.7,253.1,1740.7,313.5,1740.7,374.4z M1493.1,322.2c0-16.5,0-32.8,0-49.4c62.5,0,124.9,0,187.6,0c0,16.3,0,32.7,0,49.4
	C1618.4,322.2,1556,322.2,1493.1,322.2z"/>
<path id="_10K" fill="#00CB00" d="M409.9,1763.9c-0.1,53.3-0.2,106.6-0.2,159.9c0,3.6,0,7.3,0,12.1c-3.9,0.4-7.3,0.9-10.8,1
	c-15,0.3-29.9,0.4-44.9,0.6c0-58,0-116,0-174c10.8-0.2,21.6-0.6,32.4-0.5C394.2,1763,402.1,1763.6,409.9,1763.9z M2965.9,1883.9
	c-0.1,60.9-0.2,121.8-0.2,182.7c0,1.7,0.2,3.3,0.3,5c-15.3,0-30.7,0-46,0c-0.1-1-0.3-2-0.3-3c0-59.9,0-119.8,0-179.8
	c0-1.9,0.6-3.7,0.8-4.9C2936,1883.9,2951,1883.9,2965.9,1883.9z M3952,1799.5c-15.1-0.1-30.2-0.2-45.4-0.3c-0.3-2.6-0.9-5.2-0.9-7.9
	c-0.1-54.6-0.1-109.1,0-163.7c0-2.2,0.5-4.4,0.8-6.2c15.6,0,30.6,0,45.5,0C3952,1680.8,3952,1740.2,3952,1799.5z M1399.9,1847.9
	c0,15.6,0,31.2,0,47.9c-4.4,0.4-8.2,1.1-11.9,1.1c-54.1,0.1-108.3,0-162.4,0.1c-3.6,0-7.3,0.2-10.9,0.3c0-16.5,0-33,0-50.3
	c2.2,0,4.5,0,6.7,0c56.6,0,113.1,0,169.7,0C1394,1846.9,1396.9,1847.6,1399.9,1847.9z M1395.9,1783.9c0,15.6,0,31.2,0,47.9
	c-4.4,0.4-8.2,1.1-11.9,1.1c-54.1,0.1-108.3,0-162.4,0.1c-3.6,0-7.3,0.2-10.9,0.3c0-16.5,0-33,0-50.3c2.2,0,4.5,0,6.7,0
	c56.6,0,113.1,0,169.7,0C1390,1782.9,1392.9,1783.6,1395.9,1783.9z M863.9,1889.9c0,14.3,0,28.5,0,43.9c-4.4,0.4-8.2,1-12,1
	c-58.1,0.1-116.3,0-174.4,0.1c-3.6,0-7.3,0.2-10.9,0.3c0-15.2,0-30.3,0-46.3c2.3,0,4.5,0,6.7,0c60.6,0,121.1,0,181.7,0
	C858,1888.9,860.9,1889.6,863.9,1889.9z M2405.2,1944.4c-15.8,0-31,0-46.8,0c0-61.6,0-123,0-184.9c15.5,0,30.9,0,46.8,0
	C2405.2,1821,2405.2,1882.1,2405.2,1944.4z M3037.9,1861.9c-0.1,58.1-0.2,116.2-0.2,174.3c0,3.6,0,7.2,0,12.3
	c-15.5,0.3-30.3,0.5-45,0.8c-0.3-3-0.9-5.9-0.9-8.9c-0.1-57.2,0-114.4,0-171.7c0-2.5,0.4-5.1,0.6-6.8
	C3008.1,1861.9,3023,1861.9,3037.9,1861.9z M3235.9,169.9c-0.1,55.5-0.2,110.9-0.2,166.4c0,3.6,0,7.2,0,12.3
	c-16.1,0.3-31.6,0.5-47,0.8c-0.3-2.6-0.9-5.2-0.9-7.9c-0.1-55.2,0-110.5,0-165.7c0-2.2,0.5-4.4,0.7-5.8
	C3204.7,169.9,3220.3,169.9,3235.9,169.9z M3887.9,199.9c-0.1,55.5-0.2,110.9-0.2,166.4c0,3.6,0,7.2,0,12.3
	c-16.1,0.3-31.6,0.5-47,0.8c-0.3-2.6-0.9-5.2-0.9-7.9c-0.1-55.2,0-110.5,0-165.7c0-2.2,0.5-4.4,0.7-5.8
	C3856.7,199.9,3872.3,199.9,3887.9,199.9z M3747.9,201.9c-0.1,55.5-0.2,110.9-0.2,166.4c0,3.6,0,7.2,0,12.3
	c-16.1,0.3-31.6,0.5-47,0.8c-0.3-2.6-0.9-5.2-0.9-7.9c-0.1-55.2,0-110.5,0-165.7c0-2.2,0.5-4.4,0.7-5.8
	C3716.7,201.9,3732.3,201.9,3747.9,201.9z M1192,165.6c15.2,0.1,30.3,0.3,45.5,0.4c0,60.4,0,120.8,0,182.5
	c-15.5,0.2-30.3,0.4-45.1,0.6c-0.3-2.6-0.8-5.3-0.8-7.9c0-57.3,0-114.5,0-171.8C1191.7,168.2,1191.9,166.9,1192,165.6z
	 M1787.9,197.9c-0.1,56.8-0.2,113.6-0.2,170.3c0,3.6,0,7.2,0,12.3c-15.5,0.3-30.3,0.5-45,0.8c-0.3-2.6-0.9-5.2-0.9-7.9
	c-0.1-56.6,0-113.1,0-169.7c0-2.2,0.5-4.4,0.7-5.8C1758.1,197.9,1773,197.9,1787.9,197.9z M1879.9,199.9
	c-0.1,56.8-0.2,113.6-0.2,170.3c0,3.6,0,7.2,0,12.3c-15.5,0.3-30.3,0.5-45,0.8c-0.3-2.6-0.9-5.2-0.9-7.9c-0.1-56.6,0-113.1,0-169.7
	c0-2.2,0.5-4.4,0.7-5.8C1850.1,199.9,1865,199.9,1879.9,199.9z M1683.9,217.9c0,13.6,0,27.2,0,41.9c-4.4,0.4-8.2,1-11.9,1
	c-54.1,0.1-108.3,0-162.4,0.1c-3.6,0-7.3,0.2-10.9,0.3c0-14.5,0-29,0-44.3c2.3,0,4.5,0,6.7,0c56.6,0,113.1,0,169.7,0
	C1678,216.9,1680.9,217.6,1683.9,217.9z M3681.9,231.9c0,13.6,0,27.2,0,41.9c-4.4,0.4-8.2,1-11.9,1.1c-53.5,0.1-106.9,0-160.4,0.1
	c-3.6,0-7.3,0.2-10.9,0.3c0-14.5,0-29,0-44.3c2.2,0,4.5,0,6.7,0c55.9,0,111.8,0,167.7,0C3676,230.9,3678.9,231.5,3681.9,231.9z
	 M1037.9,1863.9c-0.1,56.8-0.2,113.6-0.2,170.3c0,3.6,0,7.2,0,12.3c-14.8,0.3-28.9,0.5-43,0.8c-0.3-2.6-0.9-5.2-0.9-7.9
	c-0.1-56.6,0-113.1,0-169.7c0-2.2,0.5-4.4,0.7-5.8C1009.4,1863.9,1023.6,1863.9,1037.9,1863.9z M2879.9,1879.9c0,13.6,0,27.2,0,41.9
	c-4.4,0.4-8.2,1-11.9,1.1c-52.8,0.1-105.6,0-158.4,0.1c-3.6,0-7.3,0.2-10.9,0.3c0-14.5,0-29,0-44.3c2.2,0,4.5,0,6.7,0
	c55.2,0,110.5,0,165.7,0C2874,1878.9,2876.9,1879.5,2879.9,1879.9z M967.9,1887.9c-0.1,54.1-0.2,108.2-0.2,162.3c0,3.6,0,7.2,0,12.3
	c-14.8,0.3-28.9,0.5-43,0.8c-0.3-2.6-0.9-5.2-0.9-7.9c-0.1-53.9,0-107.8,0-161.7c0-2.2,0.5-4.4,0.7-5.8
	C939.4,1887.9,953.6,1887.9,967.9,1887.9z M1877.9,1605.9c-0.1,55.4-0.2,110.9-0.2,166.3c0,3.6,0,7.2,0,12.3
	c-14.1,0.3-27.6,0.5-41,0.8c-0.3-2.6-0.9-5.2-0.9-7.9c-0.1-55.2,0-110.4,0-165.7c0-2.2,0.5-4.4,0.7-5.8
	C1850.7,1605.9,1864.3,1605.9,1877.9,1605.9z M3395.9,1817.9c0,12.3,0,24.5,0,37.9c-4.4,0.4-8.2,1-12,1c-52.1,0.1-104.3,0-156.4,0.1
	c-3.6,0-7.3,0.2-10.9,0.3c0-13.2,0-26.3,0-40.3c2.3,0,4.5,0,6.7,0c54.6,0,109.1,0,163.7,0C3390,1816.9,3392.9,1817.5,3395.9,1817.9z
	 M3393.9,1875.9c0,12.3,0,24.5,0,37.9c-4.4,0.4-8.2,1-12,1c-52.1,0.1-104.3,0-156.4,0.1c-3.6,0-7.3,0.2-10.9,0.3
	c0-13.2,0-26.3,0-40.3c2.3,0,4.5,0,6.7,0c54.6,0,109.1,0,163.7,0C3388,1874.9,3390.9,1875.5,3393.9,1875.9z"/>
<path id="_10R" fill="#00CB00" d="M4107,2367.5c-61.1,0-122.3,0-183.7,0c0-16.6,0-33,0-50c61.2,0,122.4,0,183.7,0
	C4107,2334.2,4107,2350.8,4107,2367.5z M1473,1797.5c15.8,0,31.6,0,47.7,0c0,60,0,119.7,0,180c-15.9,0-31.8,0-47.7,0
	C1473,1917.5,1473,1857.5,1473,1797.5z M1925,2381.5c0-14.5,0-28.9,0-43.7c62,0,123.7,0,186,0c0,14.5,0,29.1,0,43.7
	C2049,2381.5,1987,2381.5,1925,2381.5z M3921.1,2307.2c0-16.5,0-32.8,0-49.4c61.1,0,122.2,0,183.5,0c0,16.3,0,32.7,0,49.4
	C4043.7,2307.2,3982.7,2307.2,3921.1,2307.2z M3538.7,1947.4c-15.9,0-31.5,0-47.4,0c0-60.5,0-120.9,0-181.6c15.7,0,31.4,0,47.4,0
	C3538.7,1826.1,3538.7,1886.5,3538.7,1947.4z M1925.1,2313.2c0-14.6,0-28.9,0-43.4c61.8,0,123.6,0,185.6,0c0,14.4,0,28.8,0,43.4
	C2049,2313.2,1987.3,2313.2,1925.1,2313.2z"/>
<path id="_13K" fill="#00CB00" d="M2155,621.5c0-69.8,0-139.6,0-209.7c33.3,0,66.4,0,100,0c0,69.9,0,139.8,0,209.7
	C2221.7,621.5,2188.3,621.5,2155,621.5z M161,379.5c31.8,0,63.6,0,95.7,0c0,62,0,123.7,0,186c-31.9,0-63.8,0-95.7,0
	C161,503.5,161,441.5,161,379.5z"/>
</svg>
