<?xml version="1.0" encoding="utf-8"?>
<svg version="1.1" id="Layer_1" xmlns="http://www.w3.org/2000/svg" xmlns:xlink="http://www.w3.org/1999/xlink" x="0px" y="0px"
	 width="1423px" height="1394px" viewBox="0 0 1423 1394" style="enable-background:new 0 0 1423 1394;" xml:space="preserve">
<style type="text/css">
	.st0{fill:#FFFFFF;}
</style>
<g>
	<g>
		<path d="M1,1384C1,923,1,462,1,1c474,0,948,0,1422,0c0,461.7,0,923.3,0,1385c-2.7,1-5.5,2.9-8.2,2.9c-246.7,0.5-493.3,0.9-740,1.1
			c-57.4,0-114.8-0.7-172.2-0.9c-35.7-0.1-71.3-0.3-107,0.2c-8.2,0.1-16.4,3.1-24.6,4.8c-9,0-18,0-27,0c-2.3-0.5-4.6-0.9-6.9-1.5
			c-9.3-2.3-18.6-3.7-28.2-3.6c-99.3,0.2-198.6,0.1-298,0.2C6.4,1389.1,3,1388.2,1,1384z M1357.2,849.3c0,50.1,0,99.8,0,149.5
			c18.1,0,35.7,0,53.5,0c0-330,0-659.7,0-989.4c-16.4,0-32.4,0-48.7,0c0,2.2,0,4,0,5.8c0,37.3,0,74.7-0.1,112c0,2.3-0.6,5.8-2,6.5
			c-3.2,1.7-2.9,3.9-2.9,6.5c0,50.2,0,100.3,0,150.5c0,1.9,0,3.9,0,6c-80.2,0-160,0-240,0c0-53.9,0-107.6,0-161.2
			c-3.2-1.2-6.1-3.3-8.9-3.3c-78.7-0.2-157.3-0.1-236-0.1c-1.3,0-2.6,0.2-3.8,0.5c-2.7,0.7-5.3,2.3-8,2.4
			c-64.3,0.1-128.7,0.1-193,0.1c-1.9,0-3.9,0-5.9,0c0,20,0,39.5,0,58c2.5-1.3,4.9-3.3,7.6-3.9c10.8-2.5,21.7-4.6,32.5-6.8
			c5.9-1.2,11.9-2.3,17.8-3.2c3.3-0.5,6,0.6,6.6,4.2c0.6,3.5-0.8,6.1-4.6,6.8c-1.1,0.2-2.2,0.7-3.3,0.9c-14.9,3.1-29.9,6.3-45,9.4
			c0,2.1,0,4,0,5.8c0,20,0,40,0,60c0,3.3-0.6,6-4.2,6.7c-4,0.8-6.3-1.5-7.2-5c-0.7-2.6-0.6-5.4-0.8-7.3c-2.8,0.4-5.4,1.2-8,1.2
			c-78,0.1-156,0.1-234,0.1c-7.4,0-8.6-1-10.1-8.2c-4.1,3.4-8,7.2-12.5,10.1c-15.2,10-32.3,14-50.3,14.1c-21.5,0.1-43,0-64.5,0
			c-1.7,0-3.5,0-5.3,0c3.1,21.2-9.9,29.9-22.5,30.6c-5.2,0.3-11.3-2.4-15.6-5.6c-8-5.9-9.8-14.9-7.8-25c-9.5,0-18.5-0.1-27.4,0
			c-13.9,0.2-27.6-0.4-41.2-4c-3.1-0.8-6.6-1.4-9.7-0.8c-21.7,4.5-40.4,14.9-55.9,30.6c-7.5,7.6-14,16.3-19.2,26
			c-5.4,10.3-9.5,20.7-10.8,32.2c-0.7,6.2-1.1,12.4-2.1,18.5c-0.5,3.2-2.6,6.8-6.2,5.1c-2.4-1.1-5.3-4.9-5.1-7.3
			c0.7-13.3,2.5-26.4,7.2-39.3c7.1-19.3,17.4-36.1,33.1-49.5c12.4-10.7,26.2-18.8,41.8-23.9c1.4-0.5,2.8-1.2,4.5-2
			c-4.8-5-9.3-8-16.5-7.9c-34.7,0.4-69.3,0.2-104,0.2c-1.8,0-3.5,0-5.4,0c0,255.9,0,511.2,0,766c3.2-0.3,6.3-0.9,9.4-0.9
			c51.2-0.1,102.3,0,153.5,0c1.8,0,3.5,0,6,0c-16.1-21-22.8-43.6-17.1-69.1c5.7-25.4,20.6-43.4,44-55c-17.2,0-34.4,0-51.6,0
			c0-56.2,0-111.9,0-168c74.7,0,149,0,223.2,0c0.4-1.9,0.6-3.5,1.1-5c1.1-3.3,3.1-5.4,6.9-4.8c3.6,0.6,4.3,3.2,4.6,6.5
			c0.1,1.6,1.8,3.2,2.8,4.7c0.4-0.1,0.8-0.3,1.2-0.4c0,21,0,41.9,0,62.6c14.6,3.1,28.7,6.1,42.9,9.1c4,0.9,6.8,2.9,5.8,7.4
			c-1,4.5-4.9,4.6-8.3,4c-8.5-1.6-16.9-3.5-25.4-5.3c-4.9-1-9.8-1.9-14.9-2.9c0,29.2,0,57.6,0,86.3c34.2,0,63.4,10.1,79.2,42.5
			c15.5,31.7,10.3,61.8-12.1,89.3c0.9,0.1,1.6,0.2,2.2,0.2c12.2,0,24.3,0,36.5,0c7.9,0,9.8,2,9.8,9.4c0,32.7,0,65.3,0,98
			c0,1.8,0,3.5,0,5.2c12.4,0,24.1,0,36.1,0c-6.8-15.7-9.3-31.7-9.2-48.3c0.4-53.1,0.5-106.2,1.2-159.3c0.2-13.2,4.2-25.7,11.4-37
			c3.2-5,6.9-9.8,10.3-14.7c-22.6-14.2-24.6-33.1-17.3-48c8.3-16.7,24.7-24.8,44-18c8.1,2.8,14.2,9,18.2,16.4
			c4.7,8.7,5.8,18.2,2.2,27.9c5.5,0,10.6,0,15.6,0c0-135.4,0-270.4,0-405.4c-4.7,0.7-9,1.4-13.8,2.1c0,22.5,0,44.9,0,67.2
			c-23.6,0-46.6,0-70.1,0c0-22.7,0-44.9,0-67.6c-2.3,0-4.3,0-6.3,0c-68.7,0-137.3,0.1-206-0.1c-6.8,0-13.8-1-20.5-2.5
			c-11.8-2.6-22.3-7.9-31.9-15.3c-10.6-8.1-17.3-18.8-22.8-30.8c-5.6,3.9-11.3,7.9-17.1,11.9c-3.8,2.6-8.3,2.4-10.2-0.2
			c-2.2-3.1-1-7.2,3.1-10c5.5-3.9,10.6-8.4,16.4-11.6c4.1-2.2,3.9-5,3.4-8.3c-2.9-17.9,0.9-34.4,9.4-50.1c2.3-4.2,6.5-7.8,3.9-14
			c-1.6-3.7,3-7.6,7.1-5.8c4,1.8,5.8-0.8,8.2-2.3c1.2-0.8,2.2-2.1,3.4-2.9c15.4-10.1,32.7-14,50.8-14c91.7-0.1,183.3-0.1,275-0.1
			c2,0,3.9,0,5.9,0c1.3-10.4,6.5-17.3,16.3-20.4c9.7-3,18.2-0.7,24.8,6.7c7.1,7.9,8.1,17.1,3.2,27c29.1,22.9,38.9,52.4,29.8,88.3
			c10.5,2.2,21.2,4.2,31.9,6.6c6.4,1.5,7.2,3.4,5.9,9.7c2.6,1.3,5,2.5,6.5,3.2c2.6-5,4.8-10.8,8.3-15.7c3.9-5.5,10.7-7.3,17-7.3
			c6.1,0.1,12.7,1.9,16.5,7.2c3.5,4.9,5.9,10.7,8.3,15.4c1.7-0.5,4.1-1.7,6.6-1.8c13.7-0.2,27.3-0.1,41-0.1c16.2,0,32.3,0,48.5,0
			c7.8,0,9.8,2,9.8,9.4c0,13.5,0,27,0,40.5c0,1.3-0.1,3,0.6,3.7c4.2,4.1,8.6,8,13.6,12.6c1.1-11.4,6.7-19.7,15.2-25.8
			c8.8-6.3,18.7-8.2,29.3-4.9c0-14.1,0-28.2,0-42.6c-2.2,0-4,0-5.8,0c-31.2,0-62.3,0-93.5,0c-7.4,0-9.3-2-9.4-9.4c0-17,0-34,0-51
			c0-1.5,0-3.1,0-4.6c-6.6,11.6-13,23-21,33.1c-5.7,7.1-13.3,12.9-20.6,18.5c-1.9,1.5-7,1.4-8.8-0.1c-3.1-2.6-1.9-6.6,1.1-9.5
			c0.5-0.5,1-0.9,1.4-1.4c6.7-6.3,13.9-12.2,19.9-19.1c20.8-23.9,27.2-51.9,23.2-83c-3-23-13.8-42-29.6-58.3
			c-4.1-4.2-8.9-7.8-13.5-11.6c-3.9-3.1-5.4-7.7-2.9-10.8c2.7-3.3,6.9-2.6,9.3-0.4c8.8,7.9,17.9,15.7,25.3,24.8
			c6.5,8,11,17.6,16.3,26.3c0-27.7,0-55.9,0-84c0-8.4,3-11.4,11.6-11.4c27.8,0,55.7,0.1,83.5-0.1c7,0,14.3,1.6,20.8-2.7
			c1.1-0.7,2.9-0.2,4.4-0.2c33,0,66,0,99,0c16,0,32,0,48,0c7.8,0,9.7,2,9.7,9.6c0,124,0,248,0,372c0,7.6-0.9,8.4-8.6,8.4
			c-50.2,0-100.3,0-150.5,0c-6.7,0-8.8-2.1-8.9-8.8c-0.1-5.2,0-10.4,0-16.2c-8.7,3.9-16.6,1.3-25.2-1.1c7.7,17.3,9.1,35,8.1,53
			c15.2-3.4,31.2,3.9,38.7,19.5c7.4,15.5,3.8,31.9-11.6,44c-6.2,4.9-13.8,7-21.6,6.5c-10.2-0.6-18.6-5.1-24.7-12.6
			c-6.5,7-12.4,14.1-19,20.4c-2.9,2.7-3.6,5.2-3.6,8.8C888,738.6,888,821.8,888,905c0,6.9-1.1,8-8,8c-31.8,0-63.7,0-95.5,0
			c-1.8,0-3.5,0-5.5,0c0,2.5,0,4.4,0,6.2c0,11.5,0,23,0,34.5c0,3.2-0.9,5.6-4.2,6.2c-3.3,0.6-5.8-0.7-6.8-4.1
			c-0.5-1.5-0.9-3.2-0.9-4.7c-0.1-7.5,0-15,0-22.5c0-5.1,0-10.2,0-15.2c-25.1,0-49.4,0-73.7,0c0.9,7.6,2.5,14.9,2.5,22.2
			c0.2,54,0.1,108,0.1,162c0,1.5,0.2,3.1-0.1,4.5c-2.5,11.2-5.2,22.4-7.8,33.9c5.7,0,12.1-0.1,18.6,0c7.4,0.1,9.4,2.2,9.4,9.4
			c0,32,0,64,0,96c0,1.5,0.1,3.7,1,4.4c2.9,2.3,6.2,4,10,6.4c0-2.2,0-3.9,0-5.7c0-37.5,0-75,0-112.5c0-7.8,3.2-11,10.9-11
			c34.8,0,69.7,0,104.5,0c1.7,0,3.3,0,5.9,0c-12.1-12.1-10.8-27.1-1.9-35.8c9.1-9,23.2-9.1,32.7-0.5c5.5,5,8.3,11.6,7.7,18.9
			c-0.5,7.3-4.3,13.3-11,18.8c77.1,0,152.9,0,228.9,0c0-9.9,0-20.2,0-29.7c-2.5,0.4-5.1,1.3-7.8,1.3c-37.8,0.1-75.7,0.1-113.5,0.1
			c-9,0-10.4-1.5-10.5-10.8c0-35.5,0-71,0-106.5c0-41.2,0-82.3,0-123.5c0-6.5,3.3-10.2,9.2-10.2c37.8-0.1,75.7-0.1,113.5,0
			c7.4,0,9.3,2.2,9.3,9.4c0,76.8,0,153.7,0,230.5c0,1.7,0,3.4,0,3.9c3.1-1.3,6-3.7,9-3.7c38-0.2,76-0.2,114-0.1c7.1,0,9,2.2,9,9.2
			c0,78.5,0,157,0,235.5c0,7.3-1,8.3-8.2,8.3c-37.7,0-75.3,0-113,0c-1.8,0-3.6,0-5.4,0c0,13.3,0,26,0,38.6c48.1,0,95.8,0,143.4,0
			c0-120,0-239.6,0-359.7c-45.7,0-91.1,0-136.5,0c0-56.2,0-111.8,0-167.6C1197.1,849.3,1276.7,849.3,1357.2,849.3z M13.2,1258.1
			c10.3-9.2,20-17.8,29.7-26.4c7-6.3,13.9-12.7,21-18.9c2.8-2.5,8.3-2.6,9.9-0.1c2.3,3.3,1.5,6.7-1.3,9.3c-5.3,5-10.6,10-16,14.8
			c-10.2,9.1-20.6,18-30.8,27.1c-0.9,0.8-1.5,3.2-1,4.1c4.7,8.4,9.8,16.6,14.6,24.9c2.9,5.1,5.8,10.2,8.2,15.5
			c1.2,2.7,0.6,5.7-2.6,7c-3,1.3-6,1.2-7.9-1.9c-3.2-5.1-6.1-10.4-9.2-15.6c-4.7-8.1-9.5-16.1-14.6-24.9c0,35.2,0,69.4,0,103.5
			c93.8,0,187.2,0,280.6,0c-6.4-5.1-12.8-10-19-15.2c-3.2-2.7-3.6-7.5-0.8-9.9c3.1-2.6,6.4-2,9.4,0.6c9.7,8.3,19.8,16.3,31.6,21.3
			c4.5,2,9.7,3.3,14.6,3.4c18.8,0.4,37.7,0.2,56.5,0.1c3.2,0,6.5-0.8,9.5-1.9c15.7-5.7,28.7-15.6,40.3-27.4c2.2-2.2,2.4-3.9,1.3-6.7
			c-6.8-17.8-7.4-35.7-1.4-53.9c3.9-11.8,10-22.5,19.1-30.8c6.6-6,7.1-5.5,3.9-13.9c-0.1-0.3,0-0.7-0.1-1
			c-5.4-12.7-10.8-25.5-16.1-38.1c-13.4,2.7-26.3,5.3-39.2,7.9c-8.6,1.7-17.3,3.5-25.9,4.9c-3.6,0.6-7.1-0.1-7.6-4.8
			c-0.4-3.7,2.5-6.4,7-7.2c14.7-2.8,29.4-5.8,44.2-8.5c8.5-1.6,17-3.1,25.6-4.2c1.6-0.2,4.3,1.4,5,2.8c3.1,6.6,5.5,13.6,8.4,20.3
			c1.3,3,2.9,5.9,4.5,9.2c0-23.2,0-45.7,0-68.5c-2.4,0-4.4,0-6.4,0c-62.2,0-124.3,0-186.5,0c-8,0-9.7-1.8-9.7-10c0-30.5,0-61,0-91.5
			c0-1.8,0-3.6,0-5.4c-0.3,0-0.7,0-1,0c0,1.7,0,3.5,0,5.2c0,29.8,0,59.7,0,89.5c0,9.9-0.2,10.1-10.3,10.2c-1,0-1.9,0-4.4,0
			c10.4,11.7,20,22.6,29.7,33.6c-12.3,10.9-24.4,21.6-36.6,32.4c-10.8-12.2-21.5-24.3-32.4-36.6c10.8-9.7,21.5-19.2,32.5-29.1
			c-9.7,0-18.6,0-27.9,0c1.2,1.1,2.1,1.8,2.9,2.7c2.7,2.8,3.8,6.3,1.2,9.3c-2.6,2.9-6.4,2.3-9.5,0.2c-2.2-1.4-3.9-3.5-6.1-4.9
			c-4-2.7-8-6.9-12.2-7.3c-11.4-1-23-0.4-34.5-0.3c-1.5,0-3.3,0.6-4.4,1.6c-6.4,5.5-12.6,11.2-18.9,16.8c-3.2,2.9-6.3,5.8-9.6,8.6
			c-3.1,2.6-6.7,3.1-10,0.6c-2.6-1.9-2-6.5,1.1-9.6c2.5-2.6,5.4-4.8,8.1-7.3c3.6-3.4,7.2-6.8,10.9-10.3c-15.6,0-30.8,0-46.5,0
			c13.5,9.4,15.5,25,5.8,36.2c-8.7,10-24,11-34.1,1.6c-9.5-8.9-11.3-26.1,4.2-38.2c-16,0-31.3,0-46.8,0
			C13.2,1187.4,13.2,1222.3,13.2,1258.1z M757,462.4c0,22.2,0,44,0,65.8c0,3.3-0.7,6-4.3,6.7c-3.6,0.7-6-1-6.9-4.6
			c-0.4-1.7-0.8-3.5-0.8-5.3c-0.1-20.5-0.1-41,0-61.5c0-3.2,0.6-6.3,1-10c-12.3-3.4-20-11.9-23.2-24.8c-0.3-1.2-2.8-2.6-4.2-2.6
			c-15-0.2-30-0.1-45-0.1c-1.1,0-2.7-0.1-3.3,0.5c-9.1,9.4-20.1,15.7-32.1,20.1c0,85.2,0,170.1,0,255.1c65.1,0,129.8,0,195.5,0
			c-10.7-4.1-18.5-14.3-15.7-28.2c1.9-9.8,11.9-18,22.7-18.4c9.2-0.4,21,8.1,23.1,16.9c1.5,6,1.4,11.8-1.6,17.6
			c-3,5.7-7.6,9.5-13.6,12.2c9.3,0,18.2,0,27.4,0c0-14.2,0-28-0.1-41.8c0-1.1-1-2.6-2-3.3c-4.3-3.2-4.4-7.6-0.6-11.5
			c1.4-1.4,2.6-3.7,2.6-5.6c0.1-54,0.1-108,0-162c0-1.8-0.9-4.2-2.2-5.2c-4.4-3.4-3.9-9.9,0.6-12.1c0.7-0.4,1.6-1.3,1.6-2
			c0.1-10.6,0.1-21.2,0.1-31.8c-4,0-7.3,0-11.1,0c0,12.3,0,24.2,0,36.3c-16.1,0-31.8,0-48.1,0c0-12.3,0-24.4,0-36.7
			c-7.7,0-14.8-0.2-22,0.1c-1.4,0.1-3.2,1.7-3.8,3.1c-2.5,5.1-4.6,10.4-6.7,15.2c6.3-1.1,13.1-2.4,20.1-3.4c3-0.4,5.6,1.3,5.4,4.3
			c-0.2,2.3-2.1,4.6-3.7,6.5c-0.8,0.9-2.7,0.9-4.1,1.2C787.1,456.1,772.3,459.2,757,462.4z M264.3,395.2c6.1,13.5,14.8,24.5,27,32.9
			c12.3,8.5,26.4,10.7,40.6,10.8c88.3,0.2,176.6,0.1,264.9,0.1c8.3,0,16.5-0.7,24.8-1c3.2-0.1,4.7-1.5,4.4-4.9
			c-0.3-2.8-0.1-5.7,0-8.5c0-7.2,3.3-10.5,10.4-10.6c7.3,0,14.7,0,22,0c6.5,0,9.3-2.1,11.4-8.6c-7.3-2.4-8.7-4.3-8.7-12
			c0-18.8-0.4-37.7,0.2-56.5c0.2-7.2-1.9-11.8-8-15.6c-3.3-2.1-5.3-3.3-9.4-1.8c-10.3,3.7-20.7-1.2-25.3-7.9c-2.4-3.5-5.1-4.6-9-4.6
			c-92.8,0-185.6,0-278.4,0.1c-4.9,0-9.9,0.6-14.7,1.3c-13.1,2-24.3,7.9-34.2,16.7c-3,2.7-2.9,4-1.5,7.1
			c5.1,11.3,9.6,22.8,14.6,34.1c1.8,4.1,0.5,7.2-2.7,9.5C283.3,382.3,273.9,388.6,264.3,395.2z M268.5,134c0,0.3,0,0.7,0,1
			c-29.3,0-58.5-0.1-87.8,0c-15,0.1-27.6,6.3-39.2,15.7c-6.7,5.4-8.9,11.4-8.7,19.9c0.6,22,0.1,44,0.3,66c0,2.1,0.8,4.6,2.2,6.1
			c3.9,4.1,8,8.2,12.6,11.5c5,3.6,10.3,6.2,17.2,6.1c10-0.2,20.4-0.4,30,2.1c13.9,3.6,27.7,3.7,41.7,3.6c1.5,0,3-1,4.5-1.5
			c4.8-1.9,9.5-4.3,15-2.5c4.4,1.4,8.9,3.9,13.3,3.9c28.4,0,56.9-0.4,85.3-0.8c19.4-0.3,34.6-9.2,47.2-23.4c5-5.7,7.5-11.7,7.2-19.6
			c-0.6-16.5-0.1-33-0.3-49.5c0-2.6-0.7-5.8-2.2-7.8c-6.8-9.3-14.8-17.2-25.1-22.9c-10.9-5.9-22.7-7.5-34.6-7.7
			C320.8,133.7,294.7,134,268.5,134z M261.2,1034c1.3-8.6,4-11,12.8-11c55.3,0,110.6,0,165.9-0.1c2.2,0,5-0.8,6.6-2.2
			c4.7-4.1,9.3-8.5,13.4-13.3c13.7-15.9,15.5-34.8,11.4-54.2c-3.6-16.9-14.6-29.3-28.3-39.1c-12.1-8.7-26.3-10.9-40.6-10.9
			c-55.6,0-111.2,0.5-166.7,0.9c-16.8,0.1-30.9,7.8-42.1,19.3c-9.3,9.6-16.5,20.9-18,35.1c-1.3,12.6-1.4,25.1,4.5,36.5
			c3.6,7.1,8.3,13.7,13.4,19.8c3.2,3.8,7.5,6.7,13.6,6.5c14-0.6,28-0.2,42-0.2c10.4,0,11.4,1.1,11.8,11.5
			C261,1033,261.2,1033.5,261.2,1034z M1266.4,1016.9c0,120.4,0,240.1,0,359.9c40,0,79.6,0,119.3,0c0-122,0-243.7,0-365.4
			c-9.7,0-19.1,0-28.5,0c-0.2,2-0.3,3.6-0.5,5.5C1326.6,1016.9,1296.7,1016.9,1266.4,1016.9z M681.2,913c-16.1,0-31.2,0-46.4,0
			c-6.6,0-8.8-2.1-8.9-8.8c0-4.8,0-9.7,0-14.5c0-7.4,0-14.9,0-22.6c-11.7,0.1-23.1-1.8-32.1,7.4c-1.2,1.2-3.1,2.2-4.8,2.4
			c-8.8,0.9-14.8,6.2-20.1,12.6c-5.5,6.7-10.6,13.6-13.1,22.1c-3.2,10.7-3.9,21.6-3.9,32.6c0,43.8-0.2,87.6,0.1,131.4
			c0.1,12.7,0.4,25.5,2.3,38c1.1,7.3,5.5,14.1,8.7,21c0.4,0.8,2.1,1.3,3.2,1.3c34.5,0.1,69,0.1,103.5,0c1.4,0,3.3-1.2,4.1-2.4
			c8.1-11.5,10-24.9,10.1-38.3c0.3-52.8,0.3-105.6,0-158.4C683.8,928.9,682.2,921,681.2,913z M970,164.2c0,2.3,0,4.3,0,6.3
			c0,75.3,0,150.7,0,226c0,9.9,0,9.9-10,10.7c-0.3,0-0.5,0.4-1,0.8c0,0.8,0,1.8,0,2.8c0,14.5-0.1,29,0.1,43.5c0,1.3,1.1,2.9,2.1,3.9
			c13.5,13.4,14.4,35,2,48.2c-1.6,1.7-3.9,3.6-4.1,5.6c-0.5,5.9-0.2,11.9-0.2,17.8c40.3,0,80,0,119.7,0c0-122,0-243.6,0-365.4
			C1042.6,164.2,1006.6,164.2,970,164.2z M507.4,1286.4c18.1-15.1,35.8-12.3,48.3-2.1c13.4,10.9,17.3,29.1,8.8,44.8
			c-7.9,14.4-25.1,22.1-41,17.6c-7.6-2.2-14.2-6.5-18.9-12.8c-6.4-8.7-9.3-18.5-6.4-30.4c-12.3,2.6-23.9,5-36,7.6
			c-2.3-11.8-4.5-23.4-6.8-35.7c-12.6,18-13.6,36.7-8.1,56.2c3.1-4.1,5.3-8.4,7.9-12.6c0.9-1.5,2.4-3.3,4-3.8
			c4.5-1.4,8.9,3.4,6.9,7.7c-3.2,6.9-7.2,13.5-10.6,20.3c-0.7,1.4-1,4.1-0.2,5.1c3.7,4.6,7.5,9.1,11.8,13
			c11.6,10.4,25.3,15.7,41.1,15.7c55.2-0.1,110.3-0.2,165.5,0.1c16.6,0.1,31.3-3.8,44.2-14.4c6-4.9,9.8-9.8,9.5-18.5
			c-0.7-22.5-0.6-45-0.1-67.5c0.2-8.5-5.3-11.6-11-16.5c0.2,6.5-3,7.8-7.9,7.7c-66-0.1-132-0.1-197.9-0.1c-2,0-3.9,0-6.5,0
			C505,1274.5,506.2,1280.4,507.4,1286.4z M139.2,118.7c76.1,0,151.8,0,227.4,0c0-36.1,0-71.8,0-107.4c-76,0-151.6,0-227.4,0
			C139.2,47.1,139.2,82.7,139.2,118.7z M611.7,118.8c0-36,0-71.7,0-107.4c-76,0-151.7,0-227.4,0c0,36,0,71.6,0,107.4
			C460.1,118.8,535.7,118.8,611.7,118.8z M877.4,12.2c0,36.1,0,71.8,0,107.4c76.1,0,151.8,0,227.4,0c0-36,0-71.6,0-107.4
			C1028.9,12.2,953.3,12.2,877.4,12.2z M856.8,15.4c-76.1,0-151.8,0-227.4,0c0,36.1,0,71.8,0,107.4c76,0,151.6,0,227.4,0
			C856.8,86.9,856.8,51.3,856.8,15.4z M1122.4,15.2c0,36.1,0,71.8,0,107.4c76.1,0,151.8,0,227.4,0c0-36,0-71.6,0-107.4
			C1273.9,15.2,1198.3,15.2,1122.4,15.2z M869.2,1243.6c75.8,0,151.2,0,226.4,0c0-36.1,0-71.8,0-107.4c-75.7,0-150.9,0-226.4,0
			C869.2,1172.1,869.2,1207.7,869.2,1243.6z M643.2,821.7c75.7,0,151.1,0,226.4,0c0-36.1,0-71.8,0-107.4c-75.6,0-150.9,0-226.4,0
			C643.2,750.1,643.2,785.7,643.2,821.7z M985.3,857.2c0,75.7,0,151.1,0,226.4c36.1,0,71.8,0,107.4,0c0-75.6,0-150.9,0-226.4
			C1056.9,857.2,1021.3,857.2,985.3,857.2z M648.8,142.4c-76.2,0-151.9,0-227.8,0c0,4.2,0.1,8,0,11.8c-0.2,6.1,0.6,11.9,2.8,17.8
			c2.5,6.8,4.2,14.1,5.1,21.3c1.6,13.1-2,25.6-5.8,38.1c-1.8,5.8-1.9,12-2.8,18.3c77.1,0,152.8,0,228.6,0
			C648.8,213.8,648.8,178.2,648.8,142.4z M119.7,243.8c-0.7-1.5-1-2.8-1.7-3.9c-6.5-9.6-9.5-20.6-10.7-31.7
			c-1.8-16.6,1.6-32.6,10.1-47.3c2.1-3.7,3.5-8.3,3.5-12.5c0.3-41.8,0.2-83.7,0.2-125.5c0-1.9,0-3.8,0-5.8c-36.3,0-71.9,0-107.7,0
			c0,75.6,0,151,0,226.6C48.7,243.8,83.9,243.8,119.7,243.8z M739.3,1135.2c-0.1,0.8-0.3,1.5-0.3,2.1c0,41.8,0,83.6,0,125.4
			c0,1.4,0.5,2.9,1.3,4c7.5,11.2,12,23.7,13.5,36.9c1.9,17.4-2,33.9-10.9,49.1c-1.6,2.7-2.9,5.6-4.6,8.9c37.1,0,72.8,0,108.4,0
			c0-75.7,0-151.1,0-226.4C810.7,1135.2,775.1,1135.2,739.3,1135.2z M248.8,1047.5c-5-0.5-9.6-1-14.1-1.5c-11.3-1.1-22.2-3.4-32-9.6
			c-3-1.9-7-3.3-10.5-3.3c-55-0.2-110-0.1-165-0.1c-1.6,0-3.2,0.1-4.8,0.2c0,36.1,0,71.8,0,107.5c0.9,0.1,1.3,0.2,1.8,0.2
			c39.2,0,78.3,0.1,117.5-0.1c2.2,0,4.8-1.3,6.5-2.7c4.8-4,9-8.8,14-12.6c2.3-1.7,6.2-2.7,9-2.2c2.8,0.5,5.4,2.9,7.6,5.1
			c9.4,8.9,19.6,15.2,33.4,12.6c1.6-0.3,3.3,0,5,0c10.4,0,20.9,0,31.5,0C248.8,1109.5,248.8,1078.6,248.8,1047.5z M500.8,1035
			c-17.4,0-34.2,0-51,0c-0.9,0-2,0.1-2.8,0.6c-14,8.8-29.6,11.2-45.6,11.3c-40.5,0.2-81,0.1-121.4,0.1c-1.9,0-3.8,0-5.7,0
			c0,32.3,0,63.9,0,96c3.2,0,6.1,0,9.1,0c59,0,117.9,0,176.9-0.1c1.9,0,4.9-0.5,5.5-1.8c2.3-4.4,5.9-5.2,10.2-5.1
			c8.3,0.1,16.5,0,24.8,0C500.8,1102.1,500.8,1068.8,500.8,1035z M839.4,888.1c0-16.4,0-32.2,0-48.2c12.3,0,24.2,0,36.4,0
			c0-2.1,0-3.8,0-5.6c-79.3,0-158.3,0-237.5,0c0,7.9,0,15.6,0,23c22,6.3,38.6,19,48.7,39.5c1.6,3.2,3.2,4.3,6.7,4.3
			c23-0.2,46-0.1,69-0.1c1.4,0,2.9-0.2,4.5-0.3c0-5.4-0.1-10.4,0-15.4c0.1-5.2,3.1-8.4,8.1-9.3c10.7-2.1,21.4-4.4,32.1-6.5
			c6.4-1.3,12.8-2.4,19.3-3.4c3-0.4,5,1.4,5.5,4.4c0.5,3.1-0.7,5.6-3.9,6.4c-4.4,1.2-8.9,2.1-13.3,3.1c-11.9,2.5-23.8,4.9-35.4,7.3
			c0,4.8,0,9.1,0,13.3c32.4,0,64.4,0,96.4,0c0-4.3,0-8.2,0-12.5C863.6,888.1,851.7,888.1,839.4,888.1z M960.4,1265.2
			c0,36.1,0,71.8,0,107.4c46.1,0,91.8,0,137.4,0c0-36,0-71.6,0-107.4C1051.9,1265.2,1006.3,1265.2,960.4,1265.2z M1224.6,1234.8
			c0-46.1,0-91.8,0-137.4c-36.1,0-71.8,0-107.4,0c0,46,0,91.6,0,137.4C1153.1,1234.8,1188.7,1234.8,1224.6,1234.8z M1181,213.6
			c1,31.1,24.4,56.2,55.9,56.2c31.8,0,56-25.2,55.9-56.4c-0.1-31.2-24.1-56.1-55.6-56.2C1205.5,157.1,1181.9,182.3,1181,213.6z
			 M221,813.3c0.9,31.4,24.5,56.6,56,56.6c31.6,0,55.6-24.9,55.7-56.1c0.1-31.3-24-56.5-55.8-56.6
			C245.4,757.1,222.1,782.3,221,813.3z M1181,933.7c1.1,31,24.4,56.1,56,56.1c31.8,0,55.9-25.3,55.8-56.5
			c-0.1-31.1-24.1-56.1-55.7-56.1C1205.5,877.1,1181.9,902.4,1181,933.7z M850.4,167.2c0,46.1,0,91.8,0,137.4c32.4,0,64.4,0,96.4,0
			c0-46,0-91.6,0-137.4C914.5,167.2,882.6,167.2,850.4,167.2z M614.6,1233.9c0-18.9,0-37.7,0-56.7c-4.4-0.5-8.7-0.4-12.8-1.5
			c-16.9-4.3-31.8-12.3-43.4-25.8c-0.8-0.9-2.2-1.9-3.4-1.9c-13.8-0.1-27.6-0.1-41.4-0.1c-1.7,6.6-2.2,7-9.2,7c-9.1,0-18.2,0-27.1,0
			c0,29.1,0,57.4,0,84.9c12-2.2,23.9-4.4,35.6-6.6c-21.8-14.6-22.1-38.2-10.2-53.5c12.1-15.7,35.3-18.4,50.4-5.9
			c9.7,8,14.7,18.6,13.6,31.2c-1.1,12.3-7.8,21.6-18.9,28.8C570.9,1233.9,592.5,1233.9,614.6,1233.9z M1091.3,164.2
			c0,122.1,0,243.8,0,365.4c4.1,0,7.8,0,11.4,0c0-122,0-243.5,0-365.4C1098.9,164.2,1095.3,164.2,1091.3,164.2z M1409.6,1376.8
			c0-122.1,0-243.8,0-365.5c-4,0-7.6,0-11.4,0c0,121.9,0,243.6,0,365.5C1402.1,1376.8,1405.7,1376.8,1409.6,1376.8z M1117.2,1325.7
			c36.1,0,71.8,0,107.4,0c0-26.4,0-52.4,0-78.4c-36,0-71.6,0-107.4,0C1117.2,1273.4,1117.2,1299.4,1117.2,1325.7z M947.6,1372.8
			c0-36.1,0-71.8,0-107.4c-26.1,0-51.8,0-77.4,0c0,36,0,71.6,0,107.4C896.1,1372.8,921.7,1372.8,947.6,1372.8z M888.4,484.5
			c0,49.8,0,98.3,0,146.9c5.1-5.1,9.4-10.5,13.3-16.1c1-1.4,1.4-3.9,1-5.6c-2.6-12.9,1.6-23.2,10.9-32.1c2-1.9,4.1-4.9,4.1-7.3
			c-0.2-11.4-0.3-22.8-2-34C912.9,516.3,902.1,500.2,888.4,484.5z M850.4,317.2c0,26.1,0,51.8,0,77.4c32.4,0,64.4,0,96.4,0
			c0-26,0-51.6,0-77.4C914.6,317.2,882.6,317.2,850.4,317.2z M703.5,1256c0.3-0.5,0.7-0.9,1-1.4c-1.3-1.2-2.5-3.2-4-3.5
			c-9.7-1.9-19.6-4.8-29.4-4.9c-49.5-0.5-99-0.3-148.5-0.1c-8.9,0-17.8,0.7-26.5,2.1c-6.5,1.1-12.6,3.9-18.9,6
			c0.2,0.8,0.4,1.5,0.6,2.3c7.4-1,14.7-2,20.5-2.8c3.3,1.1,5.2,2.2,7.2,2.2c64.7,0.1,129.3,0.1,194,0.1
			C700.9,1256,702.2,1256,703.5,1256z M703.6,1239c0-30.4,0-60.6,0-91c-7.8,0-15.3,0-22.8,0c-0.9,0-2.1,0.1-2.7,0.7
			c-6,5.7-11.9,11.6-18,17.6c8.8,0,17.7,0,26.8,0c0,11.9,0,23.4,0,34.9c0,11.6,0,23.1,0,34C693.1,1236.6,698.3,1237.8,703.6,1239z
			 M553,1202.6c-1.2-13.2-9.3-22.4-22.6-22.3c-13.1,0.1-22,8.8-22.1,22.1c-0.1,13.2,9,22.4,22.3,22.3
			C543.7,1224.6,551.5,1215.9,553,1202.6z M673,1202.6c-1.3-13.4-9.5-22.4-22.7-22.3c-13.3,0.1-22,9.1-22,22.1
			c-0.1,13.4,9.2,22.4,22.4,22.3C663.9,1224.6,671.6,1215.6,673,1202.6z M556,1312.5c-1.4-12.9-8.8-22-22.3-22.2
			c-13-0.2-22.4,8.7-22.4,22.2c0,12.9,8.5,22,22,22.2C546.3,1334.9,554.7,1326,556,1312.5z M936.6,624c10.1,0.7,20.9-9.7,21.4-20.7
			c0.5-10.1-9-20-20.3-21.3c-9.9-1.1-20.6,9.1-21.6,20.4C915.1,612.5,925.4,623.2,936.6,624z M598,842.8
			c-0.3-10.8-11.1-21.3-21.3-20.8c-11,0.6-21.4,11.3-20.7,21.4c0.8,11,10.7,20.7,21,20.5C587.7,863.9,598.3,853.2,598,842.8z
			 M958,483c0.1-10.5-10.7-21.8-21.1-20.9c-12.3,1.1-19.4,7.5-20.8,20.6c-1.1,10.2,9.9,21,20.7,21.3
			C947.2,504.3,957.9,493.7,958,483z M576.8,462c-10.8,0.3-21.8,11.1-20.7,21.3c1.4,13.1,8.5,19.5,20.8,20.5
			c10.4,0.9,21.1-10.3,21.1-20.9C597.9,472.3,587.2,461.7,576.8,462z M575.1,1148.1c24.7,25.2,69.3,19.9,85.1,0
			C632,1148.1,603.9,1148.1,575.1,1148.1z M675.1,900.8c-9-14.7-20.7-25.2-36.9-30.9c0,10.6,0,20.7,0,30.9
			C650.4,900.8,662.3,900.8,675.1,900.8z M841.6,665c-8,0.9-13.5,5.9-13.3,13.7c0.2,7.9,5.5,13,13.2,13.1
			c7.9,0.1,13.5-5.7,13.3-13.5C854.6,670.4,849.3,666.1,841.6,665z M841.5,426c-8.3-1.4-13.6,6.8-13.3,12.5
			c0.4,7.6,5.1,13,13.1,13.3c7.6,0.3,13.2-5.2,13.6-13.3C855.1,432.8,849.8,424.6,841.5,426z M266,284.9
			c-0.1-6.4-7.3-13.1-13.7-12.9c-6.5,0.2-13.1,6.7-13.2,12.9c-0.1,6.3,6.9,13.1,13.5,13.1C259.1,298,266.1,291.2,266,284.9z
			 M494,1281.7c0.2-6.5-6.5-13.6-12.9-13.7c-6.1-0.1-12.7,6.4-13.1,13c-0.4,6.4,6.1,13.9,12.6,13.9
			C488.1,1294.8,492.8,1289.3,494,1281.7z M756.8,430c6.3,0.2,13.1-6.8,13.2-13.5c0-6.6-6.8-13.6-13.1-13.5
			c-6.2,0.1-12.7,6.7-12.9,13.2C743.8,422.7,750.4,429.8,756.8,430z M71.9,1187c6.3,0.1,13.1-7,13.1-13.5c0-6.6-6.9-13.6-13.2-13.4
			c-6.2,0.2-12.6,6.8-12.8,13.3C58.8,1179.8,65.6,1186.9,71.9,1187z M650,296.7c0.1-6.5-6.6-13.6-12.9-13.7c-6.3,0-13.1,7-13,13.6
			c0.1,6.4,6.4,13.1,12.7,13.4C642.9,310.3,649.8,303.3,650,296.7z M876,1104c0-6.7-6.5-13.1-13.1-13c-6.6,0.1-12.6,6.1-12.9,12.7
			c-0.3,6.5,6.1,13.1,12.9,13.2C869.5,1117.1,876,1110.7,876,1104z M270.8,339.3c-9.7,12.8-10.4,27.2-9.5,42.8
			c7.6-5.3,14.8-10.3,21.7-15.1C278.7,357.5,274.8,348.6,270.8,339.3z M876,864c0-6.7-6.4-13.1-13.1-13c-6.7,0.1-13.1,6.6-12.9,13.2
			c0.2,6.6,6.2,12.6,12.8,12.8C869.4,877.2,875.9,870.8,876,864z M240.8,1171c-6.8,0.2-13.1,6.9-12.8,13.3
			c0.4,6.7,6.4,12.6,12.9,12.7c6.7,0.1,13.1-6.4,13-13.1C253.9,1177.2,247.4,1170.8,240.8,1171z M464.8,1376.9
			c-6.8-6.7-13.5-13.3-19.8-19.5c-8.1,6.5-16,12.9-24.1,19.5C435.7,1376.9,450.3,1376.9,464.8,1376.9z M721.2,1377
			c17.6,0,35.2,0,52.9,0c26.6,0,53.3,0,79.9,0c2.6,0,5.4,0.2,3.5-3.7c-1.8,0.2-3.4,0.6-5,0.6c-39.3,0-78.6,0-117.9,0
			c-1.6,0-3.7-0.1-4.6-1.1c-2.2-2.4-3.8-1.4-5.5,0.2C723.3,1374.2,722.4,1375.5,721.2,1377z M673.2,393.8c8-2.2,7.8-36.9,0-46.8
			C673.2,362.6,673.2,378.2,673.2,393.8z M410.9,131.3c-6.6,0-14.3,0-22.1,0c6.9,5,13.5,9.7,19.5,14.2
			C409.2,140.8,410.1,135.9,410.9,131.3z M680.3,414c5.4,0,10.3,0,15.1,0c4.8,0,9.6,0,14.4,0c-7.3-2.2-14.8-3-21.8-5.3
			C682.5,406.9,681.8,409.9,680.3,414z M777.5,429.4c-9.1,13.8-29.7,16-41-0.1c1.6,6.6,10.4,13.1,17.7,13.7
			C765.3,444,774,438.6,777.5,429.4z M739,1329.8c3.8-11.9,4.1-23.8,0-35.7c0,1.2,0,2.3,0,3.5C739,1308.3,739,1319.1,739,1329.8z
			 M148.2,131.3c-5.7,0-10.3,0-15,0c0,3.2,0,6.1,0,9.4C138.1,137.6,142.7,134.7,148.2,131.3z M638.2,426.2c0,2.7,0,4.9,0,7.9
			c4.5-2.5,8.4-4.7,12.4-6.9c-0.1-0.3-0.3-0.6-0.4-0.9C646.4,426.2,642.5,426.2,638.2,426.2z M120.8,185.1c-0.3,0-0.6,0-0.9,0
			c0,9.9,0,19.7,0,29.6c0.3,0,0.6,0,0.9,0C120.8,204.8,120.8,195,120.8,185.1z M248.7,1035.1c0-0.6,0-1.2,0-1.8
			c-5.8,0-11.7,0-17.5,0c0,0.2,0,0.3,0,0.5C237.1,1034.2,242.9,1034.7,248.7,1035.1z"/>
		<path class="st0" d="M371,1394c8.2-1.7,16.4-4.6,24.6-4.8c35.6-0.5,71.3-0.3,107-0.2c57.4,0.2,114.8,1,172.2,0.9
			c246.7-0.2,493.3-0.6,740-1.1c2.7,0,5.5-1.9,8.2-2.9c0,2.7,0,5.3,0,8C1072.3,1394,721.7,1394,371,1394z"/>
		<path class="st0" d="M1,1384c2,4.2,5.4,5.1,9.9,5.1c99.3-0.1,198.6,0,298-0.2c9.7,0,18.9,1.3,28.2,3.6c2.3,0.6,4.6,1,6.9,1.5
			c-114.3,0-228.7,0-343,0C1,1390.7,1,1387.3,1,1384z"/>
		<path class="st0" d="M1357.2,849.3c-80.5,0-160.1,0-239.9,0c0,55.8,0,111.4,0,167.6c45.4,0,90.8,0,136.5,0
			c0,120.1,0,239.7,0,359.7c-47.6,0-95.3,0-143.4,0c0-12.6,0-25.3,0-38.6c1.9,0,3.6,0,5.4,0c37.7,0,75.3,0,113,0
			c7.3,0,8.2-1,8.2-8.3c0-78.5,0-157,0-235.5c0-7-1.9-9.2-9-9.2c-38-0.1-76-0.1-114,0.1c-2.9,0-5.9,2.3-9,3.7c0-0.5,0-2.2,0-3.9
			c0-76.8,0-153.7,0-230.5c0-7.3-1.9-9.4-9.3-9.4c-37.8-0.1-75.7-0.1-113.5,0c-6,0-9.2,3.7-9.2,10.2c0,41.2,0,82.3,0,123.5
			c0,35.5,0,71,0,106.5c0,9.2,1.5,10.8,10.5,10.8c37.8,0,75.7,0,113.5-0.1c2.6,0,5.3-0.9,7.8-1.3c0,9.6,0,19.9,0,29.7
			c-76,0-151.8,0-228.9,0c6.8-5.5,10.5-11.5,11-18.8c0.5-7.3-2.2-13.9-7.7-18.9c-9.5-8.6-23.6-8.4-32.7,0.5
			c-8.9,8.7-10.2,23.8,1.9,35.8c-2.5,0-4.2,0-5.9,0c-34.8,0-69.7,0-104.5,0c-7.8,0-10.9,3.2-10.9,11c0,37.5,0,75,0,112.5
			c0,1.7,0,3.5,0,5.7c-3.8-2.4-7.1-4.1-10-6.4c-0.9-0.7-1-2.9-1-4.4c-0.1-32,0-64,0-96c0-7.2-2-9.2-9.4-9.4c-6.4-0.1-12.9,0-18.6,0
			c2.7-11.5,5.3-22.7,7.8-33.9c0.3-1.4,0.1-3,0.1-4.5c0-54,0.1-108-0.1-162c0-7.3-1.6-14.6-2.5-22.2c24.2,0,48.6,0,73.7,0
			c0,5,0,10.1,0,15.2c0,7.5-0.1,15,0,22.5c0,1.6,0.5,3.2,0.9,4.7c1,3.4,3.5,4.7,6.8,4.1c3.3-0.6,4.2-3.1,4.2-6.2
			c-0.1-11.5,0-23,0-34.5c0-1.8,0-3.6,0-6.2c2,0,3.7,0,5.5,0c31.8,0,63.7,0,95.5,0c6.9,0,8-1.1,8-8c0-83.2,0-166.3-0.1-249.5
			c0-3.6,0.8-6.1,3.6-8.8c6.6-6.3,12.6-13.4,19-20.4c6.1,7.5,14.5,12,24.7,12.6c7.9,0.5,15.4-1.6,21.6-6.5c15.4-12,19-28.5,11.6-44
			c-7.4-15.6-23.4-23-38.7-19.5c1-18.1-0.4-35.7-8.1-53c8.6,2.3,16.5,4.9,25.2,1.1c0,5.8,0,11,0,16.2c0.1,6.7,2.2,8.8,8.9,8.8
			c50.2,0,100.3,0,150.5,0c7.7,0,8.6-0.9,8.6-8.4c0-124,0-248,0-372c0-7.6-1.9-9.5-9.7-9.6c-16-0.1-32,0-48,0c-33,0-66,0-99,0
			c-1.5,0-3.4-0.5-4.4,0.2c-6.6,4.3-13.8,2.7-20.8,2.7c-27.8,0.1-55.7,0.1-83.5,0.1c-8.6,0-11.6,2.9-11.6,11.4c0,28.2,0,56.3,0,84
			c-5.2-8.6-9.7-18.3-16.3-26.3c-7.4-9.1-16.5-16.9-25.3-24.8c-2.4-2.2-6.6-2.9-9.3,0.4c-2.5,3.1-1,7.6,2.9,10.8
			c4.6,3.7,9.4,7.3,13.5,11.6c15.8,16.4,26.6,35.3,29.6,58.3c4,31-2.4,59.1-23.2,83c-6,6.9-13.2,12.8-19.9,19.1
			c-0.5,0.5-1,0.9-1.4,1.4c-2.9,2.9-4.1,6.9-1.1,9.5c1.8,1.5,6.9,1.6,8.8,0.1c7.3-5.6,14.9-11.3,20.6-18.5c8-10.1,14.5-21.5,21-33.1
			c0,1.5,0,3.1,0,4.6c0,17,0,34,0,51c0,7.4,2,9.4,9.4,9.4c31.2,0,62.3,0,93.5,0c1.8,0,3.6,0,5.8,0c0,14.3,0,28.4,0,42.6
			c-10.5-3.4-20.5-1.5-29.3,4.9c-8.5,6.1-14.1,14.4-15.2,25.8c-5-4.5-9.4-8.4-13.6-12.6c-0.7-0.7-0.6-2.4-0.6-3.7
			c0-13.5,0-27,0-40.5c0-7.4-2-9.4-9.8-9.4c-16.2-0.1-32.3,0-48.5,0c-13.7,0-27.3-0.1-41,0.1c-2.5,0-4.9,1.3-6.6,1.8
			c-2.4-4.6-4.8-10.4-8.3-15.4c-3.8-5.4-10.4-7.2-16.5-7.2c-6.3-0.1-13,1.8-17,7.3c-3.5,4.9-5.7,10.7-8.3,15.7
			c-1.5-0.7-3.9-1.9-6.5-3.2c1.3-6.3,0.4-8.3-5.9-9.7c-10.6-2.4-21.4-4.5-31.9-6.6c9.1-35.9-0.7-65.4-29.8-88.3
			c4.9-9.9,3.8-19.1-3.2-27c-6.6-7.4-15.2-9.8-24.8-6.7c-9.7,3.1-14.9,9.9-16.3,20.4c-1.9,0-3.9,0-5.9,0c-91.7,0-183.3-0.1-275,0.1
			c-18.1,0-35.4,3.9-50.8,14c-1.2,0.8-2.2,2.1-3.4,2.9c-2.4,1.6-4.2,4.1-8.2,2.3c-4.1-1.8-8.6,2.1-7.1,5.8c2.6,6.2-1.6,9.8-3.9,14
			c-8.6,15.8-12.4,32.3-9.4,50.1c0.5,3.3,0.7,6.1-3.4,8.3c-5.8,3.2-11,7.7-16.4,11.6c-4,2.9-5.3,6.9-3.1,10
			c1.9,2.7,6.4,2.8,10.2,0.2c5.8-4,11.5-8,17.1-11.9c5.6,12,12.2,22.7,22.8,30.8c9.6,7.4,20.1,12.7,31.9,15.3
			c6.7,1.5,13.6,2.4,20.5,2.5c68.7,0.2,137.3,0.1,206,0.1c2,0,3.9,0,6.3,0c0,22.7,0,44.9,0,67.6c23.4,0,46.5,0,70.1,0
			c0-22.3,0-44.7,0-67.2c4.8-0.7,9.1-1.4,13.8-2.1c0,135,0,270.1,0,405.4c-5.1,0-10.1,0-15.6,0c3.6-9.7,2.5-19.2-2.2-27.9
			c-4-7.4-10.2-13.6-18.2-16.4c-19.3-6.8-35.8,1.4-44,18c-7.4,14.9-5.3,33.8,17.3,48c-3.5,4.9-7.1,9.6-10.3,14.7
			c-7.2,11.3-11.2,23.7-11.4,37c-0.6,53.1-0.7,106.2-1.2,159.3c-0.1,16.6,2.3,32.6,9.2,48.3c-12,0-23.7,0-36.1,0c0-1.7,0-3.5,0-5.2
			c0-32.7,0-65.3,0-98c0-7.4-2-9.4-9.8-9.4c-12.2-0.1-24.3,0-36.5,0c-0.6,0-1.3-0.1-2.2-0.2c22.4-27.5,27.6-57.6,12.1-89.3
			c-15.8-32.4-45-42.5-79.2-42.5c0-28.7,0-57.1,0-86.3c5.1,1,10,1.9,14.9,2.9c8.5,1.8,16.9,3.7,25.4,5.3c3.4,0.6,7.3,0.6,8.3-4
			c1-4.5-1.7-6.6-5.8-7.4c-14.2-3-28.4-6-42.9-9.1c0-20.7,0-41.7,0-62.6c-0.4,0.1-0.8,0.3-1.2,0.4c-1-1.6-2.7-3.1-2.8-4.7
			c-0.3-3.3-1-5.9-4.6-6.5c-3.8-0.6-5.8,1.5-6.9,4.8c-0.5,1.5-0.7,3.1-1.1,5c-74.2,0-148.5,0-223.2,0c0,56,0,111.8,0,168
			c17.2,0,34.4,0,51.6,0c-23.4,11.6-38.3,29.6-44,55c-5.8,25.5,0.9,48.1,17.1,69.1c-2.5,0-4.2,0-6,0c-51.2,0-102.3,0-153.5,0
			c-3.1,0-6.1,0.6-9.4,0.9c0-254.8,0-510.1,0-766c1.9,0,3.7,0,5.4,0c34.7,0,69.3,0.2,104-0.2c7.2-0.1,11.7,2.9,16.5,7.9
			c-1.7,0.8-3.1,1.5-4.5,2c-15.6,5.1-29.4,13.2-41.8,23.9c-15.7,13.5-26,30.2-33.1,49.5c-4.7,12.8-6.5,25.9-7.2,39.3
			c-0.1,2.4,2.7,6.2,5.1,7.3c3.7,1.6,5.7-1.9,6.2-5.1c1-6.1,1.4-12.4,2.1-18.5c1.3-11.5,5.3-21.9,10.8-32.2
			c5.2-9.8,11.6-18.4,19.2-26c15.5-15.7,34.2-26.1,55.9-30.6c3.1-0.6,6.6,0,9.7,0.8c13.5,3.5,27.3,4.2,41.2,4c9-0.2,17.9,0,27.4,0
			c-2,10.1-0.2,19.1,7.8,25c4.3,3.2,10.5,5.9,15.6,5.6c12.7-0.7,25.6-9.4,22.5-30.6c1.8,0,3.6,0,5.3,0c21.5,0,43,0.1,64.5,0
			c18-0.1,35-4.1,50.3-14.1c4.5-2.9,8.4-6.7,12.5-10.1c1.5,7.2,2.7,8.2,10.1,8.2c78,0,156,0,234-0.1c2.6,0,5.3-0.8,8-1.2
			c0.2,1.9,0.1,4.7,0.8,7.3c0.9,3.5,3.3,5.8,7.2,5c3.6-0.7,4.2-3.5,4.2-6.7c-0.1-20,0-40,0-60c0-1.8,0-3.6,0-5.8
			c15.1-3.2,30-6.3,45-9.4c1.1-0.2,2.2-0.7,3.3-0.9c3.9-0.7,5.2-3.3,4.6-6.8c-0.6-3.6-3.4-4.7-6.6-4.2c-6,0.9-11.9,2-17.8,3.2
			c-10.9,2.2-21.7,4.3-32.5,6.8c-2.7,0.6-5.1,2.6-7.6,3.9c0-18.6,0-38,0-58c2,0,4,0,5.9,0c64.3,0,128.7,0,193-0.1
			c2.7,0,5.3-1.6,8-2.4c1.2-0.3,2.6-0.5,3.8-0.5c78.7,0,157.3-0.1,236,0.1c2.9,0,5.8,2.1,8.9,3.3c0,53.6,0,107.3,0,161.2
			c80,0,159.8,0,240,0c0-2.1,0-4,0-6c0-50.2,0-100.3,0-150.5c0-2.6-0.2-4.9,2.9-6.5c1.4-0.8,2-4.3,2-6.5c0.1-37.3,0.1-74.7,0.1-112
			c0-1.8,0-3.6,0-5.8c16.3,0,32.3,0,48.7,0c0,329.7,0,659.4,0,989.4c-17.8,0-35.4,0-53.5,0C1357.2,949,1357.2,899.3,1357.2,849.3z
			 M397.1,489.4c-80.4,0-160.1,0-239.7,0c0,56.1,0,111.8,0,167.8c74.7,0,148.9,0,223.6,0c0,2-0.3,3.7,0.1,5.2c0.5,2.2,1,4.9,2.5,6.1
			c1.4,1.2,4.6,1.6,6.3,0.8c1.5-0.7,2.6-3.4,3-5.4c0.7-3-1.6-7.3,4.3-7.4c0-20.3,0-40.3,0-59.9c14.6-3.1,28.7-6.1,42.9-9.1
			c4.1-0.9,6.8-3,5.8-7.4c-1-4.5-4.9-4.6-8.3-3.9c-8.5,1.6-16.9,3.5-25.3,5.3c-4.9,1-9.8,1.9-15.1,3
			C397.1,552.2,397.1,521,397.1,489.4z M1117.2,776.6c80.1,0,159.8,0,239.4,0c0-56.1,0-111.8,0-167.4c-80,0-159.6,0-239.4,0
			C1117.2,665.1,1117.2,720.7,1117.2,776.6z M1117.4,369.2c0,56.1,0,111.8,0,167.4c80.1,0,159.8,0,239.4,0c0-56,0-111.6,0-167.4
			C1276.9,369.2,1197.3,369.2,1117.4,369.2z M1107,702.6c0-38.8,0-77.6,0-116.4c0-8.4-1.7-10.1-10.1-10.1c-37.3,0-74.6,0-111.9,0
			c-6.5,0-9.9,3.5-9.9,10c0,77.6,0,155.2,0,232.9c0,7.2,2,9.2,9,9.2c38.3,0,76.6,0,114.9,0c6.9,0,8-1.1,8-8
			C1107,780.9,1107,741.7,1107,702.6z M146,891c0-39.1,0-78.3,0-117.4c0-7.6-1.9-9.6-9.7-9.6c-37.6,0-75.3,0-112.9,0
			c-5.8,0-9.4,3.6-9.4,9.5c0,78,0,155.9,0,233.9c0,6.5,2.2,8.6,8.6,8.6c38.5,0,77,0,115.4,0c6.9,0,8-1.1,8-8
			C146,969,146,930,146,891z M146,622c0-38.6,0-77.3,0-115.9c0-8.1-1.8-10-9.7-10c-37.5,0-75,0-112.4,0c-6.2,0-9.8,3.5-9.8,9.6
			c0,77.6,0,155.2,0,232.9c0,6.4,2.3,8.6,8.6,8.6c38.5,0,77,0,115.4,0c6.8,0,7.9-1.1,7.9-8.1C146,699.9,146,660.9,146,622z
			 M553.3,749.1c12.5,12.2,30.5,12.8,43,3.7c14.6-10.6,19.3-25.8,13-42.8c-2.9-7.9-8.9-13.8-16.2-17.8c-8.4-4.5-17.5-5.9-26.7-2.3
			c-0.5-4.7-0.4-9.1-1.6-13.1c-4-13.2-7.4-26.7-13.1-39.1c-7.3-16-19.3-28.8-33.7-39.2c-4-2.9-7.9-3.3-10-0.6
			c-2.6,3.4-1.6,8.1,2.5,10.9c10.3,7.3,18.7,16.4,25.9,26.8c9.7,14,15.6,29.4,17.4,46.1c0.8,7.5,1.3,14.9-5.2,21.8
			c-6.7,7.2-8,17.2-5.7,27.2c0.8,3.5,2.1,8.1,0.5,10.6c-5.8,9.3-12.2,18.2-19.2,26.6c-4,4.9-9.5,8.6-14.4,12.7
			c-3.4,2.8-4.2,7-1.8,10.3c2,2.7,6,2.7,9.6-0.1c3.7-3,7.5-5.9,11-9C539,772.7,546.6,761.4,553.3,749.1z M952.7,984.1
			c-0.9-8.2-1.5-16.4-2.9-24.4c-0.8-4.9-2.7-9.7-4.3-14.5c-7.7-24-21.9-43.4-42.2-58.3c-5-3.7-10.4-2.3-10.7,3.3
			c-0.1,2.5,1.9,6,4,7.6c10.1,7.4,18.4,16.4,25.4,26.6c8,11.8,13.7,24.6,16.3,38.9c2.8,15.7,2.8,31.3-0.8,46.5
			c-4.7,20-15.3,37.1-30.2,51.3c-3.7,3.5-7.8,6.5-11.7,9.8c-3.3,2.8-4.3,7.4-1.8,10.3c2.9,3.3,6.4,2.2,9.3,0.1
			c11-8,20.6-17.4,28.1-28.8C944.7,1031.7,952.2,1009.1,952.7,984.1z M972,843.3c-0.1-19.2-16.2-35.4-35.2-35.3
			c-18.6,0.1-34.9,16.1-34.8,35.6c0.1,19.2,16.2,35.4,35.2,35.3C955.8,878.9,972.1,862.8,972,843.3z M612,603.5
			c0-19.3-16.2-35.4-35-35.4c-18.8,0-35,16.1-35,35.5c0,19.3,16.2,35.4,35,35.4C595.8,638.9,612,622.8,612,603.5z M972,723.8
			c0.1-19.6-16.2-35.6-34.7-35.7c-19-0.1-35.1,16.1-35.3,35.2c-0.1,19.6,16.2,35.6,34.7,35.7C955.7,759.1,971.9,742.9,972,723.8z
			 M22.9,418.4c9.6,13.3,18.9,26.3,28.6,39.7c13.1-9.5,26.2-18.9,39.6-28.5c-9.2-13.2-18.2-26.3-27.5-39.7
			C50,399.4,36.7,408.7,22.9,418.4z M733.3,153.1c0,16.1,0,31.8,0,47.6c16,0,31.7,0,47.3,0c0-16.1,0-31.8,0-47.6
			C764.7,153.1,749.3,153.1,733.3,153.1z M500.8,550.4c-16.1,0-31.8,0-47.4,0c0,16.1,0,31.8,0,47.4c16,0,31.6,0,47.4,0
			C500.8,581.9,500.8,566.3,500.8,550.4z M125,478.4c-8.1-7.4-15.8-14.4-23.5-21.4c-3.7-3.3-7.3-6.7-11-10c-3.1-2.7-6.6-3.1-10-0.6
			c-2.6,1.9-1.9,6.4,1,9.7c0.4,0.5,0.9,1,1.4,1.4c11.8,10.8,23.6,21.7,35.5,32.4c3.4,3.1,7.9,3,12.2-0.1c18-12.7,36-25.4,54-38.1
			c3.4-2.4,4.4-6.6,2.4-9.5c-1.8-2.6-6.4-3.2-9.7-0.8c-9.5,6.6-18.9,13.5-28.3,20.2C141,467.2,133,472.8,125,478.4z M779,1081.6
			c0-5.8,0-10.9,0-16.1c0-16.8,0.1-33.6-0.2-50.4c0-2-1.7-4.8-3.4-5.6c-1.6-0.7-4.8,0-6.2,1.3c-1.4,1.4-2.2,4.1-2.2,6.3
			c-0.2,22.3-0.1,44.6-0.1,66.9c0,4.8,3.2,8.1,7.9,9c10.8,2.2,21.6,4.5,32.5,6.7c6.4,1.3,12.8,2.4,19.3,3.2c3,0.4,5.4-1.6,5.1-4.6
			c-0.2-2.2-2-4.4-3.6-6.1c-0.8-0.9-2.7-0.9-4.1-1.2C809.2,1087.9,794.2,1084.8,779,1081.6z M248,452c-1.2-13.8-9.4-22.7-23.9-23.8
			c-12.1-1-23.6,10.9-24.1,23.6c-0.5,12.1,12,25.1,24.1,24.1C238.7,474.7,246.8,465.7,248,452z M767,984
			c-1.2-13.6-9.1-22.6-23.8-23.9c-12.1-1-24.6,11.9-24.2,24.1c0.4,12.6,11.9,24.5,24.1,23.6C757.5,1006.8,765.7,997.9,767,984z
			 M381,694.2c-1.1-13.1-8.4-22.5-23.7-24.1c-11.9-1.2-25.1,11.6-24.1,23.9c1.2,14.7,9,23.3,23.7,23.6
			C370.7,717.8,379.5,708.7,381,694.2z M476.9,790c-14.7,2-22.5,9.2-23.7,23.9c-1,12.2,11.1,24.4,23.6,23.8
			c14.2-0.6,24.1-9.6,23.9-24C500.6,799.3,490.8,791.6,476.9,790z"/>
		<path class="st0" d="M13.2,1258.1c0-35.8,0-70.6,0-105.1c15.5,0,30.8,0,46.8,0c-15.5,12-13.8,29.2-4.2,38.2
			c10.1,9.5,25.4,8.4,34.1-1.6c9.7-11.2,7.6-26.8-5.8-36.2c15.8,0,30.9,0,46.5,0c-3.7,3.5-7.2,6.9-10.9,10.3
			c-2.7,2.5-5.5,4.7-8.1,7.3c-3.1,3.1-3.7,7.8-1.1,9.6c3.3,2.4,6.8,2,10-0.6c3.3-2.8,6.4-5.7,9.6-8.6c6.3-5.6,12.5-11.3,18.9-16.8
			c1.1-1,2.9-1.6,4.4-1.6c11.5-0.1,23.1-0.7,34.5,0.3c4.3,0.4,8.3,4.6,12.2,7.3c2.2,1.5,3.9,3.5,6.1,4.9c3.1,2,6.9,2.6,9.5-0.2
			c2.7-3,1.5-6.5-1.2-9.3c-0.8-0.8-1.7-1.6-2.9-2.7c9.3,0,18.3,0,27.9,0c-11,9.8-21.7,19.4-32.5,29.1c10.8,12.2,21.5,24.3,32.4,36.6
			c12.2-10.8,24.3-21.5,36.6-32.4c-9.7-11-19.3-21.9-29.7-33.6c2.4,0,3.4,0,4.4,0c10.1-0.1,10.3-0.3,10.3-10.2c0-29.8,0-59.7,0-89.5
			c0-1.7,0-3.5,0-5.2c0.3,0,0.7,0,1,0c0,1.8,0,3.6,0,5.4c0,30.5,0,61,0,91.5c0,8.2,1.7,10,9.7,10c62.2,0,124.3,0,186.5,0
			c2,0,4,0,6.4,0c0,22.8,0,45.3,0,68.5c-1.6-3.3-3.2-6.2-4.5-9.2c-2.8-6.8-5.3-13.7-8.4-20.3c-0.7-1.5-3.4-3-5-2.8
			c-8.6,1.1-17.1,2.6-25.6,4.2c-14.7,2.8-29.4,5.8-44.2,8.5c-4.5,0.9-7.5,3.5-7,7.2c0.6,4.7,4,5.4,7.6,4.8
			c8.7-1.5,17.3-3.2,25.9-4.9c12.9-2.6,25.8-5.2,39.2-7.9c5.4,12.6,10.8,25.4,16.1,38.1c0.1,0.3,0,0.7,0.1,1
			c3.2,8.5,2.7,7.9-3.9,13.9c-9.1,8.4-15.2,19-19.1,30.8c-6,18.2-5.4,36.1,1.4,53.9c1.1,2.8,0.9,4.5-1.3,6.7
			c-11.7,11.8-24.6,21.7-40.3,27.4c-3,1.1-6.3,1.9-9.5,1.9c-18.8,0.2-37.7,0.3-56.5-0.1c-4.9-0.1-10.1-1.4-14.6-3.4
			c-11.8-5.1-21.9-13-31.6-21.3c-3-2.6-6.3-3.2-9.4-0.6c-2.8,2.4-2.4,7.2,0.8,9.9c6.2,5.1,12.5,10,19,15.2c-93.4,0-186.8,0-280.6,0
			c0-34.1,0-68.3,0-103.5c5.1,8.7,9.9,16.8,14.6,24.9c3.1,5.2,6,10.4,9.2,15.6c1.9,3.1,4.9,3.2,7.9,1.9c3.2-1.4,3.8-4.3,2.6-7
			c-2.4-5.3-5.3-10.4-8.2-15.5c-4.8-8.3-9.9-16.5-14.6-24.9c-0.5-0.9,0.1-3.3,1-4.1c10.2-9.1,20.5-18,30.8-27.1
			c5.4-4.8,10.8-9.8,16-14.8c2.8-2.7,3.6-6,1.3-9.3c-1.7-2.4-7.1-2.4-9.9,0.1c-7.1,6.2-14,12.6-21,18.9
			C33.2,1240.3,23.5,1248.9,13.2,1258.1z M222.7,1319.1c-4.1,12.7,1.7,23.8,10.9,28.7c9.5,5.1,20.8,3.8,28.7-4.5
			c7.6-8,8.8-19.6,2.8-28.8c-3.8-5.8-8.9-9.2-15.8-10.5c-6.9-1.4-12.9,0.7-19.1,4.4c3.3-6.2,6.3-11.6,8.7-16.1
			c3.1,1.1,5.6,2.6,7.9,2.5c1.5-0.1,3.3-2.3,4.2-4c0.9-1.8,1.1-4.1,1.1-6.2c0.1-8.7,0-17.3,0-26c0-6.1,0-12.2,0-18.4
			c1.6-0.1,2.6,0,3.6-0.2c15-3,30.1-6,45.1-9c6.2-1.3,12.5-2.3,18.5-4.3c1.7-0.6,3.4-3.8,3.6-5.9c0.3-2.9-2-4.7-5.1-4.7
			c-1.8,0-3.7,0-5.4,0.3c-19.5,3.8-39,7.7-58.5,11.7c-2.6,0.5-4.4,1.2-5.3-2.5c-0.4-1.5-4-3.7-5.2-3.2c-2.2,0.9-4.4,3.3-5.1,5.6
			c-0.9,2.7-0.3,5.9-0.2,8.9c0.8,19.6-2,38.4-13.1,55c-5.6,8.4-11.1,17.1-18.1,24.4c-7.3,7.6-15.8,14.1-25.3,19.2
			c-14.3,7.7-29.1,12.7-45.3,12.5c-10-0.1-20-1.4-30-2.1c-3.6-0.3-6.1,1-6.5,4.9c-0.4,3.4,0.6,5.9,4.6,6.5
			c5.3,0.8,10.5,2.5,15.9,2.8c18.9,1.1,37.6-0.1,55.1-8.1c10-4.6,19.6-10.4,28.7-16.6C210.8,1330.6,216.6,1324.4,222.7,1319.1z
			 M340.2,1210c14.5-1.8,23.6-10.3,23.6-24c-0.1-15-10.6-23.5-24.1-23.7c-12.8-0.3-24.1,12.1-23.6,24
			C316.6,1199,328,1210.3,340.2,1210z M85,1342.8c-1.5-14.5-10.4-23.6-24.1-23.4c-14.8,0.3-22.6,9-23.7,23.6
			c-1,12.3,12.3,25.1,24.1,23.9C76.6,1365.3,84,1355.8,85,1342.8z"/>
		<path class="st0" d="M757,462.4c15.3-3.2,30.1-6.3,44.9-9.4c1.4-0.3,3.4-0.3,4.1-1.2c1.6-1.9,3.5-4.2,3.7-6.5
			c0.2-2.9-2.4-4.7-5.4-4.3c-6.9,1-13.8,2.3-20.1,3.4c2.1-4.8,4.2-10.1,6.7-15.2c0.7-1.4,2.5-3.1,3.8-3.1c7.1-0.3,14.3-0.1,22-0.1
			c0,12.3,0,24.4,0,36.7c16.3,0,32,0,48.1,0c0-12.1,0-24.1,0-36.3c3.7,0,7.1,0,11.1,0c0,10.6,0,21.2-0.1,31.8c0,0.7-0.9,1.7-1.6,2
			c-4.5,2.2-5,8.8-0.6,12.1c1.3,1,2.2,3.4,2.2,5.2c0.1,54,0.1,108,0,162c0,1.9-1.2,4.2-2.6,5.6c-3.8,3.9-3.6,8.3,0.6,11.5
			c1,0.7,2,2.2,2,3.3c0.1,13.8,0.1,27.6,0.1,41.8c-9.1,0-18,0-27.4,0c6-2.7,10.6-6.4,13.6-12.2c3-5.8,3.1-11.6,1.6-17.6
			c-2.2-8.8-13.9-17.3-23.1-16.9c-10.8,0.5-20.8,8.6-22.7,18.4c-2.8,14,5,24.1,15.7,28.2c-65.6,0-130.4,0-195.5,0
			c0-85,0-169.9,0-255.1c11.9-4.4,22.9-10.7,32.1-20.1c0.6-0.6,2.2-0.5,3.3-0.5c15,0,30-0.1,45,0.1c1.5,0,3.9,1.4,4.2,2.6
			c3.2,12.9,10.9,21.4,23.2,24.8c-0.4,3.7-1,6.9-1,10c-0.1,20.5-0.1,41,0,61.5c0,1.8,0.3,3.6,0.8,5.3c0.9,3.6,3.3,5.3,6.9,4.6
			c3.6-0.7,4.3-3.4,4.3-6.7C757,506.4,757,484.6,757,462.4z M757,656.6c0-2.2,0-4,0-5.8c0-20.1,0.1-40.3-0.2-60.4
			c0-2.1-1.8-5.1-3.6-5.9c-1.5-0.7-4.6,0.7-6.2,2c-1.3,1.1-2,3.5-2,5.3c-0.1,22.5-0.1,44.9,0,67.4c0,4.8,3.5,8.1,8.1,8.9
			c9.9,1.7,19.9,3.7,29.8,5.4c7.2,1.3,14.5,2.5,21.7,3.5c3,0.4,5.4-1.5,5.2-4.5c-0.2-2.2-2-4.3-3.5-6.2c-0.6-0.7-2-0.9-3.2-1.1
			C787.9,662.3,772.7,659.5,757,656.6z M721.2,535c-11.9-0.5-23.5,10.8-24.2,23.6c-0.7,11.8,10.5,24.2,23.5,24.1
			c12.5-0.1,23.5-7.4,24.2-23.1C745.3,546.7,736.8,536.9,721.2,535z"/>
		<path class="st0" d="M264.3,395.2c9.7-6.6,19-12.9,28.2-19.4c3.2-2.3,4.5-5.3,2.7-9.5c-5-11.3-9.5-22.8-14.6-34.1
			c-1.4-3.1-1.6-4.5,1.5-7.1c10-8.8,21.1-14.8,34.2-16.7c4.9-0.7,9.8-1.3,14.7-1.3c92.8-0.1,185.6,0,278.4-0.1c3.9,0,6.6,1.1,9,4.6
			c4.6,6.6,15,11.6,25.3,7.9c4.1-1.5,6.1-0.3,9.4,1.8c6.1,3.9,8.2,8.4,8,15.6c-0.6,18.8-0.2,37.6-0.2,56.5c0,7.7,1.4,9.6,8.7,12
			c-2.1,6.5-4.9,8.6-11.4,8.6c-7.3,0-14.7,0-22,0c-7.1,0-10.3,3.4-10.4,10.6c0,2.8-0.2,5.7,0,8.5c0.3,3.4-1.2,4.8-4.4,4.9
			c-8.3,0.3-16.5,0.9-24.8,1c-88.3,0.1-176.6,0.2-264.9-0.1c-14.3,0-28.3-2.3-40.6-10.8C279.1,419.7,270.3,408.8,264.3,395.2z
			 M385.6,408.8c0-24.1,0-47.8,0-71.4c-24.1,0-47.8,0-71.4,0c0,24,0,47.6,0,71.4C338.1,408.8,361.7,408.8,385.6,408.8z M626,373.3
			c-0.3-20.1-16-36-35.7-36.2c-20.1-0.1-36,15.9-36.2,35.7c-0.1,20.1,15.9,36,35.7,36.2C609.9,409,625.4,393,626,373.3z"/>
		<path class="st0" d="M268.5,134c26.2,0,52.3-0.3,78.5,0.2c11.9,0.2,23.7,1.7,34.6,7.7c10.3,5.6,18.4,13.5,25.1,22.9
			c1.5,2.1,2.1,5.2,2.2,7.8c0.2,16.5-0.3,33,0.3,49.5c0.3,7.9-2.2,13.9-7.2,19.6c-12.6,14.2-27.8,23.1-47.2,23.4
			c-28.4,0.4-56.9,0.9-85.3,0.8c-4.4,0-8.9-2.4-13.3-3.9c-5.4-1.8-10.1,0.6-15,2.5c-1.5,0.6-3,1.5-4.5,1.5
			c-14,0.1-27.8,0.1-41.7-3.6c-9.5-2.5-20-2.3-30-2.1c-6.9,0.1-12.2-2.4-17.2-6.1c-4.6-3.3-8.7-7.4-12.6-11.5
			c-1.4-1.5-2.2-4-2.2-6.1c-0.2-22,0.3-44-0.3-66c-0.2-8.5,2-14.5,8.7-19.9c11.6-9.4,24.2-15.6,39.2-15.7c29.3-0.2,58.5,0,87.8,0
			C268.5,134.7,268.5,134.3,268.5,134z M172.2,235.6c24.1,0,47.8,0,71.4,0c0-24.1,0-47.8,0-71.4c-24,0-47.6,0-71.4,0
			C172.2,188.1,172.2,211.7,172.2,235.6z M364,200c-0.4-19.9-16.1-35.9-36-35.9c-19.9,0-35.9,16-35.9,35.9c0,19.9,16,35.9,35.9,35.9
			C347.9,235.9,363.6,219.9,364,200z"/>
		<path class="st0" d="M261.2,1034c-0.1-0.5-0.2-1-0.2-1.5c-0.3-10.5-1.4-11.5-11.8-11.5c-14,0-28-0.4-42,0.2
			c-6.2,0.3-10.4-2.7-13.6-6.5c-5.1-6-9.8-12.7-13.4-19.8c-5.9-11.4-5.8-23.9-4.5-36.5c1.5-14.2,8.7-25.5,18-35.1
			c11.3-11.6,25.3-19.2,42.1-19.3c55.6-0.4,111.2-0.9,166.7-0.9c14.3,0,28.5,2.2,40.6,10.9c13.8,9.9,24.8,22.2,28.3,39.1
			c4.1,19.5,2.3,38.3-11.4,54.2c-4.1,4.8-8.7,9.2-13.4,13.3c-1.6,1.4-4.4,2.2-6.6,2.2c-55.3,0.1-110.6,0.1-165.9,0.1
			C265.3,1023,262.6,1025.4,261.2,1034z M348.4,933.2c0,24.1,0,47.8,0,71.4c24.1,0,47.8,0,71.4,0c0-24,0-47.6,0-71.4
			C395.9,933.2,372.3,933.2,348.4,933.2z M263.8,933c-19.8,0.5-35.8,16.1-35.7,36.2c0.1,19.8,16,35.8,36.1,35.7
			c19.8-0.1,35.8-16,35.7-36.1C299.8,949,283.9,933.3,263.8,933z"/>
		<path class="st0" d="M1266.4,1016.9c30.3,0,60.2,0,90.4,0c0.2-2,0.3-3.6,0.5-5.5c9.4,0,18.8,0,28.5,0c0,121.7,0,243.4,0,365.4
			c-39.8,0-79.4,0-119.3,0C1266.4,1257,1266.4,1137.3,1266.4,1016.9z M1377.6,1131.8c0-30.1,0-59.8,0-89.4c-30.1,0-59.8,0-89.4,0
			c0,30,0,59.6,0,89.4C1318.1,1131.8,1347.7,1131.8,1377.6,1131.8z M1378,1301.8c-1-25.2-19.8-44.8-45.3-44.6
			c-25.1,0.2-44.4,19.4-44.5,44.8c0,25.4,19.5,44.9,44.9,44.9C1358.4,1346.8,1377.2,1327.3,1378,1301.8z M1332.9,1149
			c-25.3,0.9-44.8,19.7-44.7,45.2c0.1,25.2,19.4,44.5,44.7,44.6c25.5,0.1,44.9-19.4,45-44.8
			C1377.8,1168.6,1358.3,1149.8,1332.9,1149z"/>
		<path class="st0" d="M681.2,913c0.9,8,2.6,15.9,2.7,23.8c0.2,52.8,0.3,105.6,0,158.4c-0.1,13.4-2,26.8-10.1,38.3
			c-0.8,1.2-2.7,2.4-4.1,2.4c-34.5,0.1-69,0.1-103.5,0c-1.1,0-2.9-0.5-3.2-1.3c-3.1-6.9-7.6-13.7-8.7-21c-1.9-12.5-2.2-25.3-2.3-38
			c-0.2-43.8-0.1-87.6-0.1-131.4c0-11,0.7-21.9,3.9-32.6c2.6-8.5,7.6-15.4,13.1-22.1c5.3-6.4,11.3-11.7,20.1-12.6
			c1.7-0.2,3.6-1.2,4.8-2.4c9-9.2,20.4-7.3,32.1-7.4c0,7.7,0,15.2,0,22.6c0,4.8,0,9.7,0,14.5c0.1,6.7,2.2,8.8,8.9,8.8
			C650,913,665.2,913,681.2,913z M582.2,1111.6c24.2,0,47.9,0,71.6,0c0-24,0-47.5,0-71.3c-23.9,0-47.7,0-71.6,0
			C582.2,1064.2,582.2,1087.7,582.2,1111.6z M654,956.2c-0.3-20.1-16-36-35.8-36.1c-20.1-0.1-36,15.9-36.1,35.7
			c-0.1,20.1,15.9,36,35.7,36.1C637.9,992,653.5,976,654,956.2z"/>
		<path class="st0" d="M970,164.2c36.6,0,72.6,0,108.8,0c0,121.8,0,243.4,0,365.4c-39.7,0-79.4,0-119.7,0c0-5.9-0.3-11.9,0.2-17.8
			c0.2-2,2.5-3.9,4.1-5.6c12.4-13.2,11.5-34.8-2-48.2c-1-1-2.1-2.6-2.1-3.9c-0.2-14.5-0.1-29-0.1-43.5c0-1,0-2,0-2.8
			c0.5-0.4,0.7-0.7,1-0.8c10-0.7,10-0.7,10-10.7c0-75.3,0-150.7,0-226C970,168.5,970,166.6,970,164.2z M1070.8,195.4
			c-29.8,0-59.1,0-88.4,0c0,29.7,0,59.1,0,88.4c29.7,0,58.9,0,88.4,0C1070.8,254.2,1070.8,225,1070.8,195.4z M1026.6,500
			c24.8-1,44.2-19.4,44.1-45.1c-0.1-25.4-19.4-44.7-44.4-44.6c-24.8,0.1-44.2,19.2-44.1,44.9C982.3,480.6,1001.6,499.1,1026.6,500z
			 M1026.3,392c25.1-0.9,44.4-19.4,44.4-44.8c0.1-25.7-19.3-44.9-44.1-44.9c-25.1-0.1-44.4,19.2-44.4,44.6
			C982.1,372.6,1001.5,391,1026.3,392z"/>
		<path class="st0" d="M507.4,1286.4c-1.2-6-2.3-12-3.6-18.4c2.6,0,4.6,0,6.5,0c66,0,132,0,197.9,0.1c4.9,0,8.1-1.3,7.9-7.7
			c5.7,4.8,11.2,7.9,11,16.5c-0.5,22.5-0.7,45,0.1,67.5c0.3,8.7-3.5,13.6-9.5,18.5c-12.9,10.6-27.7,14.5-44.2,14.4
			c-55.1-0.3-110.3-0.2-165.5-0.1c-15.8,0-29.5-5.3-41.1-15.7c-4.3-3.9-8.2-8.4-11.8-13c-0.8-1-0.5-3.7,0.2-5.1
			c3.4-6.9,7.4-13.4,10.6-20.3c2-4.4-2.4-9.2-6.9-7.7c-1.6,0.5-3,2.3-4,3.8c-2.5,4.1-4.8,8.5-7.9,12.6c-5.5-19.6-4.5-38.2,8.1-56.2
			c2.4,12.3,4.6,24,6.8,35.7c12.1-2.6,23.7-5,36-7.6c-2.9,11.9,0,21.7,6.4,30.4c4.7,6.3,11.2,10.6,18.9,12.8
			c15.9,4.5,33.2-3.2,41-17.6c8.5-15.6,4.6-33.8-8.8-44.8C543.2,1274.2,525.5,1271.3,507.4,1286.4z M617.2,1347.7
			c24.2,0,47.7,0,71.5,0c0-24,0-47.7,0-71.4c-24,0-47.7,0-71.5,0C617.2,1300.3,617.2,1323.9,617.2,1347.7z"/>
		<path class="st0" d="M139.2,118.7c0-36,0-71.6,0-107.4c75.8,0,151.4,0,227.4,0c0,35.6,0,71.4,0,107.4
			C291,118.7,215.3,118.7,139.2,118.7z M228.8,29.3c-24.2,0-47.8,0-71.5,0c0,24,0,47.7,0,71.4c24,0,47.7,0,71.5,0
			C228.8,76.7,228.8,53.1,228.8,29.3z M349,64.8c-0.5-19.8-16.1-35.8-36.2-35.7c-19.8,0.1-35.8,16-35.7,36.1
			c0.1,19.8,16,35.8,36.1,35.7C332.9,100.8,348.7,84.9,349,64.8z"/>
		<path class="st0" d="M611.7,118.8c-76,0-151.6,0-227.4,0c0-35.8,0-71.4,0-107.4c75.7,0,151.4,0,227.4,0
			C611.7,47,611.7,82.7,611.7,118.8z M473.8,29.4c-24.1,0-47.8,0-71.4,0c0,24.1,0,47.8,0,71.4c24,0,47.6,0,71.4,0
			C473.8,76.9,473.8,53.3,473.8,29.4z M558,29c-19.9,0.4-35.9,16.1-35.9,36c0,19.9,16,35.9,35.9,35.9c19.9,0,35.9-16,35.9-35.9
			C593.9,45.1,577.9,29.4,558,29z"/>
		<path class="st0" d="M877.4,12.2c75.9,0,151.5,0,227.4,0c0,35.8,0,71.4,0,107.4c-75.6,0-151.3,0-227.4,0
			C877.4,84,877.4,48.3,877.4,12.2z M895.2,101.6c24.1,0,47.8,0,71.4,0c0-24.1,0-47.8,0-71.4c-24,0-47.6,0-71.4,0
			C895.2,54.1,895.2,77.7,895.2,101.6z M1050.8,102c20.1-0.3,36-16.1,36.1-35.8c0.1-20.1-16-36-35.8-36.1c-20.1-0.1-36,16-36.1,35.8
			C1015,85.9,1031.1,101.5,1050.8,102z"/>
		<path class="st0" d="M856.8,15.4c0,35.9,0,71.5,0,107.4c-75.8,0-151.4,0-227.4,0c0-35.6,0-71.3,0-107.4
			C705,15.4,780.7,15.4,856.8,15.4z M838.6,104.8c0-24.1,0-47.8,0-71.4c-24.1,0-47.8,0-71.4,0c0,24,0,47.6,0,71.4
			C791.1,104.8,814.7,104.8,838.6,104.8z M719,69c-0.4-19.9-16.1-35.9-36-35.9c-19.9,0-35.9,16-35.9,36c0,19.9,16,35.9,36,35.9
			C702.9,104.9,718.6,88.9,719,69z"/>
		<path class="st0" d="M1122.4,15.2c75.9,0,151.5,0,227.4,0c0,35.8,0,71.4,0,107.4c-75.6,0-151.3,0-227.4,0
			C1122.4,87,1122.4,51.3,1122.4,15.2z M1260.2,104.7c24,0,47.7,0,71.4,0c0-24,0-47.7,0-71.3c-24,0-47.7,0-71.4,0
			C1260.2,57.3,1260.2,80.9,1260.2,104.7z M1212,68.8c-0.5-19.8-16.1-35.8-36.2-35.7c-19.8,0.1-35.8,16-35.7,36.1
			c0.1,19.8,16,35.8,36.1,35.7C1196,104.8,1211.7,88.9,1212,68.8z"/>
		<path class="st0" d="M869.2,1243.6c0-35.9,0-71.5,0-107.4c75.5,0,150.7,0,226.4,0c0,35.6,0,71.3,0,107.4
			C1020.4,1243.6,945,1243.6,869.2,1243.6z M887.2,1225.6c24.1,0,47.8,0,71.4,0c0-24.1,0-47.8,0-71.4c-24,0-47.6,0-71.4,0
			C887.2,1178.1,887.2,1201.7,887.2,1225.6z M1079,1190.2c-0.3-20.1-16.1-36-35.8-36.1c-20.1-0.1-36,16-36.1,35.7
			c-0.1,20.1,16,36,35.7,36.1C1062.9,1226,1078.5,1209.9,1079,1190.2z"/>
		<path class="st0" d="M643.2,821.7c0-36,0-71.6,0-107.4c75.5,0,150.7,0,226.4,0c0,35.6,0,71.3,0,107.4
			C794.3,821.7,719,821.7,643.2,821.7z M732.8,732.3c-24.1,0-47.8,0-71.4,0c0,24.1,0,47.8,0,71.4c24,0,47.6,0,71.4,0
			C732.8,779.9,732.8,756.3,732.8,732.3z M817,732c-20,0.4-35.9,16.1-35.9,36c0,20,16,35.9,35.9,35.9c20,0,35.9-16,35.9-35.9
			C852.9,748.1,836.9,732.4,817,732z"/>
		<path class="st0" d="M985.3,857.2c36,0,71.6,0,107.4,0c0,75.5,0,150.7,0,226.4c-35.6,0-71.4,0-107.4,0
			C985.3,1008.3,985.3,933,985.3,857.2z M1074.8,995.3c-24.1,0-47.8,0-71.4,0c0,24.1,0,47.8,0,71.4c24,0,47.6,0,71.4,0
			C1074.8,1042.9,1074.8,1019.3,1074.8,995.3z M1039.2,875c-20.1,0.3-36,16-36.1,35.8c-0.1,20.1,15.9,36,35.7,36.1
			c20.1,0.1,36-15.9,36.1-35.7C1075,891.1,1059,875.5,1039.2,875z"/>
		<path class="st0" d="M648.8,142.4c0,35.9,0,71.4,0,107.3c-75.9,0-151.5,0-228.6,0c0.9-6.3,1.1-12.5,2.8-18.3
			c3.8-12.5,7.4-25,5.8-38.1c-0.9-7.2-2.6-14.5-5.1-21.3c-2.2-5.9-3-11.7-2.8-17.8c0.1-3.8,0-7.6,0-11.8
			C496.9,142.4,572.6,142.4,648.8,142.4z M439.2,231.6c24.1,0,47.8,0,71.4,0c0-24.1,0-47.8,0-71.4c-24,0-47.6,0-71.4,0
			C439.2,184.1,439.2,207.7,439.2,231.6z M631,196.2c-0.3-20.1-16-36-35.8-36.1c-20.1-0.1-36,15.9-36.1,35.7
			c-0.1,20.1,15.9,36,35.7,36.1C614.9,232,630.5,216,631,196.2z"/>
		<path class="st0" d="M119.7,243.8c-35.8,0-71,0-106.4,0c0-75.6,0-150.9,0-226.6c35.8,0,71.4,0,107.7,0c0,1.9,0,3.8,0,5.8
			c0,41.8,0.1,83.7-0.2,125.5c0,4.2-1.4,8.8-3.5,12.5c-8.4,14.8-11.8,30.7-10.1,47.3c1.2,11.1,4.2,22.1,10.7,31.7
			C118.7,241,119,242.3,119.7,243.8z M102.8,155.4c-24.1,0-47.8,0-71.4,0c0,24.1,0,47.8,0,71.4c24,0,47.6,0,71.4,0
			C102.8,202.9,102.8,179.3,102.8,155.4z M66.8,35C47,35.5,31,51.1,31.1,71.2c0.1,19.8,16,35.8,36.1,35.7
			c19.8-0.1,35.8-16,35.7-36.1C102.8,51,86.9,35.3,66.8,35z"/>
		<path class="st0" d="M739.3,1135.2c35.8,0,71.4,0,107.3,0c0,75.3,0,150.7,0,226.4c-35.6,0-71.3,0-108.4,0c1.7-3.3,3-6.2,4.6-8.9
			c9-15.2,12.8-31.7,10.9-49.1c-1.4-13.2-6-25.6-13.5-36.9c-0.8-1.1-1.3-2.7-1.3-4c-0.1-41.8,0-83.6,0-125.4
			C739,1136.7,739.2,1136.1,739.3,1135.2z M757.4,1152.2c0,24.1,0,47.8,0,71.4c24.1,0,47.8,0,71.4,0c0-24,0-47.6,0-71.4
			C804.9,1152.2,781.3,1152.2,757.4,1152.2z M793.1,1272c-20,0.4-36,16.1-36,35.9c-0.1,20,16,36,35.8,36c20,0.1,36-16,36-35.8
			C829,1288.1,812.9,1272.5,793.1,1272z"/>
		<path class="st0" d="M248.8,1047.5c0,31.2,0,62.1,0,93.5c-10.7,0-21.1,0-31.5,0c-1.7,0-3.4-0.3-5,0c-13.7,2.6-24-3.6-33.4-12.6
			c-2.2-2.1-4.9-4.6-7.6-5.1c-2.9-0.5-6.7,0.4-9,2.2c-5,3.7-9.2,8.5-14,12.6c-1.7,1.5-4.3,2.7-6.5,2.7c-39.2,0.2-78.3,0.1-117.5,0.1
			c-0.5,0-1-0.1-1.8-0.2c0-35.7,0-71.4,0-107.5c1.6-0.1,3.2-0.2,4.8-0.2c55,0,110-0.1,165,0.1c3.5,0,7.5,1.4,10.5,3.3
			c9.9,6.2,20.7,8.4,32,9.6C239.2,1046.5,243.8,1046.9,248.8,1047.5z M39.4,1051.2c0,24.1,0,47.8,0,71.4c24.1,0,47.8,0,71.4,0
			c0-24,0-47.6,0-71.4C86.9,1051.2,63.3,1051.2,39.4,1051.2z M194.9,1123c20.1-0.4,36-16.1,36.1-35.9c0.1-20.1-16-36-35.8-36.1
			c-20.1-0.1-36,16-36.1,35.8C159,1106.9,175.1,1122.5,194.9,1123z"/>
		<path class="st0" d="M500.8,1035c0,33.8,0,67.1,0,101c-8.3,0-16.6,0-24.8,0c-4.3,0-7.9,0.8-10.2,5.1c-0.7,1.2-3.6,1.8-5.5,1.8
			c-59,0.1-117.9,0.1-176.9,0.1c-3,0-5.9,0-9.1,0c0-32.1,0-63.7,0-96c1.9,0,3.8,0,5.7,0c40.5,0,81,0.2,121.4-0.1
			c16-0.1,31.6-2.5,45.6-11.3c0.8-0.5,1.9-0.6,2.8-0.6C466.6,1035,483.4,1035,500.8,1035z M362.7,1124.8c0-24.1,0-47.8,0-71.4
			c-24,0-47.8,0-71.4,0c0,24,0,47.6,0,71.4C315.1,1124.8,338.7,1124.8,362.7,1124.8z M446.9,1053c-19.8,0.5-35.9,16.1-35.8,36.1
			c0,19.8,16,35.9,36,35.8c19.8,0,35.9-16,35.8-36C482.9,1069.1,466.9,1053.4,446.9,1053z"/>
		<path class="st0" d="M839.4,888.1c12.3,0,24.2,0,36.4,0c0,4.3,0,8.2,0,12.5c-32.1,0-64.1,0-96.4,0c0-4.2,0-8.5,0-13.3
			c11.6-2.4,23.5-4.8,35.4-7.3c4.5-0.9,8.9-1.9,13.3-3.1c3.2-0.9,4.4-3.3,3.9-6.4c-0.5-3-2.5-4.8-5.5-4.4
			c-6.5,0.9-12.9,2.1-19.3,3.4c-10.7,2.1-21.4,4.4-32.1,6.5c-5,1-8,4.1-8.1,9.3c-0.1,5,0,10,0,15.4c-1.6,0.1-3.1,0.3-4.5,0.3
			c-23,0-46-0.1-69,0.1c-3.5,0-5.1-1.1-6.7-4.3c-10.1-20.5-26.7-33.2-48.7-39.5c0-7.5,0-15.1,0-23c79.2,0,158.2,0,237.5,0
			c0,1.8,0,3.5,0,5.6c-12.1,0-24.1,0-36.4,0C839.4,856,839.4,871.7,839.4,888.1z"/>
		<path class="st0" d="M960.4,1265.2c45.9,0,91.5,0,137.4,0c0,35.8,0,71.4,0,107.4c-45.6,0-91.3,0-137.4,0
			C960.4,1337,960.4,1301.3,960.4,1265.2z M1095,1318.8c-0.5-19.8-16.1-35.8-36.2-35.7c-19.8,0.1-35.8,16-35.7,36.1
			c0.1,19.8,16,35.8,36.1,35.7C1079,1354.8,1094.7,1338.9,1095,1318.8z"/>
		<path class="st0" d="M1224.6,1234.8c-35.9,0-71.5,0-107.4,0c0-45.8,0-91.4,0-137.4c35.6,0,71.3,0,107.4,0
			C1224.6,1143,1224.6,1188.7,1224.6,1234.8z M1171.1,1101c-20.1,0.3-36,16.1-36.1,35.9c-0.1,20.1,16,36,35.8,36.1
			c20.1,0.1,36-16,36.1-35.8C1207,1117.1,1190.9,1101.5,1171.1,1101z"/>
		<path class="st0" d="M1181,213.6c0.9-31.3,24.5-56.5,56.1-56.4c31.5,0.1,55.6,25.1,55.6,56.2c0.1,31.2-24.1,56.5-55.9,56.4
			C1205.4,269.8,1182,244.7,1181,213.6z"/>
		<path class="st0" d="M221,813.3c1.1-31,24.4-56.1,56-56.1c31.8,0,55.9,25.3,55.8,56.6c-0.1,31.1-24.2,56.1-55.7,56.1
			C245.5,869.9,221.9,844.6,221,813.3z"/>
		<path class="st0" d="M1181,933.7c0.9-31.3,24.5-56.6,56-56.5c31.6,0.1,55.6,25,55.7,56.1c0.1,31.3-24,56.5-55.8,56.5
			C1205.4,989.8,1182.1,964.7,1181,933.7z"/>
		<path class="st0" d="M850.4,167.2c32.3,0,64.2,0,96.4,0c0,45.8,0,91.4,0,137.4c-31.9,0-64,0-96.4,0
			C850.4,259,850.4,213.3,850.4,167.2z M940,206.2c-0.3-20.1-16.1-36-35.8-36.1c-20.1-0.1-36,16-36.1,35.7
			c-0.1,20.1,16,36,35.7,36.1C923.9,242,939.5,225.9,940,206.2z"/>
		<path class="st0" d="M614.6,1233.9c-22.1,0-43.7,0-66.6,0c11.1-7.2,17.8-16.6,18.9-28.8c1.1-12.6-3.9-23.2-13.6-31.2
			c-15.2-12.4-38.3-9.7-50.4,5.9c-11.9,15.3-11.6,38.9,10.2,53.5c-11.8,2.2-23.6,4.4-35.6,6.6c0-27.5,0-55.8,0-84.9c9,0,18,0,27.1,0
			c7,0,7.5-0.4,9.2-7c13.7,0,27.5,0,41.4,0.1c1.1,0,2.6,0.9,3.4,1.9c11.5,13.5,26.4,21.5,43.4,25.8c4.1,1,8.4,1,12.8,1.5
			C614.6,1196.2,614.6,1215,614.6,1233.9z"/>
		<path class="st0" d="M1091.3,164.2c4,0,7.6,0,11.4,0c0,121.8,0,243.4,0,365.4c-3.7,0-7.4,0-11.4,0
			C1091.3,408,1091.3,286.3,1091.3,164.2z"/>
		<path class="st0" d="M1409.6,1376.8c-3.9,0-7.5,0-11.4,0c0-121.9,0-243.6,0-365.5c3.8,0,7.4,0,11.4,0
			C1409.6,1133,1409.6,1254.7,1409.6,1376.8z"/>
		<path class="st0" d="M1117.2,1325.7c0-26.3,0-52.2,0-78.4c35.8,0,71.4,0,107.4,0c0,26,0,52,0,78.4
			C1189,1325.7,1153.3,1325.7,1117.2,1325.7z M1135.2,1322.6c24.1,0,47.8,0,71.4,0c0-24.1,0-47.8,0-71.4c-24,0-47.6,0-71.4,0
			C1135.2,1275.1,1135.2,1298.7,1135.2,1322.6z"/>
		<path class="st0" d="M947.6,1372.8c-25.9,0-51.5,0-77.4,0c0-35.8,0-71.4,0-107.4c25.6,0,51.3,0,77.4,0
			C947.6,1301,947.6,1336.7,947.6,1372.8z M944.6,1354.8c0-24.1,0-47.8,0-71.4c-24.1,0-47.8,0-71.4,0c0,24,0,47.6,0,71.4
			C897.1,1354.8,920.7,1354.8,944.6,1354.8z"/>
		<path class="st0" d="M888.4,484.5c13.7,15.7,24.4,31.8,27.4,51.7c1.7,11.2,1.8,22.7,2,34c0,2.5-2.1,5.5-4.1,7.3
			c-9.3,8.9-13.5,19.3-10.9,32.1c0.4,1.8,0,4.2-1,5.6c-3.9,5.6-8.2,11-13.3,16.1C888.4,582.9,888.4,534.3,888.4,484.5z"/>
		<path class="st0" d="M850.4,317.2c32.3,0,64.2,0,96.4,0c0,25.8,0,51.4,0,77.4c-32,0-64,0-96.4,0
			C850.4,369,850.4,343.3,850.4,317.2z M868.2,391.6c24.1,0,47.8,0,71.4,0c0-24.1,0-47.8,0-71.4c-24,0-47.6,0-71.4,0
			C868.2,344.1,868.2,367.7,868.2,391.6z"/>
		<path class="st0" d="M703.5,1256c-1.3,0-2.6,0-3.9,0c-64.7,0-129.3,0-194-0.1c-2,0-3.9-1.2-7.2-2.2c-5.8,0.8-13.2,1.8-20.5,2.8
			c-0.2-0.8-0.4-1.5-0.6-2.3c6.3-2.1,12.5-4.9,18.9-6c8.7-1.5,17.7-2.1,26.5-2.1c49.5-0.2,99-0.4,148.5,0.1c9.8,0.1,19.6,3,29.4,4.9
			c1.5,0.3,2.6,2.3,4,3.5C704.2,1255.1,703.8,1255.5,703.5,1256z"/>
		<path class="st0" d="M703.6,1239c-5.4-1.2-10.6-2.5-16.6-3.9c0-10.9,0-22.4,0-34c0-11.5,0-22.9,0-34.9c-9.1,0-18,0-26.8,0
			c6.1-6,12-11.8,18-17.6c0.6-0.6,1.8-0.7,2.7-0.7c7.5-0.1,14.9,0,22.8,0C703.6,1178.4,703.6,1208.6,703.6,1239z"/>
		<path class="st0" d="M553,1202.6c-1.5,13.2-9.3,22-22.4,22.1c-13.3,0.1-22.4-9.1-22.3-22.3c0.1-13.2,9-22,22.1-22.1
			C543.7,1180.2,551.8,1189.4,553,1202.6z"/>
		<path class="st0" d="M673,1202.6c-1.4,13-9.1,22-22.3,22.1c-13.2,0.1-22.4-8.9-22.4-22.3c0.1-13,8.8-22,22-22.1
			C663.5,1180.2,671.7,1189.2,673,1202.6z"/>
		<path class="st0" d="M556,1312.5c-1.3,13.5-9.7,22.4-22.7,22.2c-13.4-0.2-22-9.3-22-22.2c0-13.5,9.4-22.4,22.4-22.2
			C547.2,1290.5,554.6,1299.6,556,1312.5z"/>
		<path class="st0" d="M936.6,624c-11.2-0.8-21.4-11.5-20.6-21.5c1-11.4,11.7-21.5,21.6-20.4c11.3,1.2,20.8,11.1,20.3,21.3
			C957.5,614.3,946.7,624.7,936.6,624z"/>
		<path class="st0" d="M598,842.8c0.3,10.3-10.3,21.1-20.9,21.2c-10.4,0.1-20.3-9.5-21-20.5c-0.7-10.1,9.7-20.9,20.7-21.4
			C586.9,821.5,597.6,832,598,842.8z"/>
		<path class="st0" d="M958,483c-0.1,10.6-10.8,21.2-21.1,20.9c-10.8-0.3-21.8-11.1-20.7-21.3c1.4-13.1,8.4-19.5,20.8-20.6
			C947.3,461.3,958,472.5,958,483z"/>
		<path class="st0" d="M576.8,462c10.4-0.3,21.1,10.3,21.1,20.9c0.1,10.5-10.6,21.8-21.1,20.9c-12.3-1.1-19.4-7.5-20.8-20.5
			C555,473.1,566,462.3,576.8,462z"/>
		<path class="st0" d="M575.1,1148.1c28.9,0,57,0,85.1,0C644.4,1168,599.8,1173.3,575.1,1148.1z"/>
		<path class="st0" d="M675.1,900.8c-12.8,0-24.7,0-36.9,0c0-10.3,0-20.3,0-30.9C654.5,875.6,666.1,886.1,675.1,900.8z"/>
		<path class="st0" d="M841.6,665c7.7,1.1,13,5.4,13.2,13.3c0.2,7.7-5.4,13.5-13.3,13.5c-7.7-0.1-13-5.2-13.2-13.1
			C828,670.9,833.6,665.9,841.6,665z"/>
		<path class="st0" d="M841.5,426c8.3-1.4,13.6,6.8,13.3,12.5c-0.4,8.1-6,13.5-13.6,13.3c-8-0.3-12.7-5.7-13.1-13.3
			C827.9,432.8,833.2,424.6,841.5,426z"/>
		<path class="st0" d="M266,284.9c0.1,6.3-6.9,13.1-13.5,13.1c-6.6,0-13.6-6.8-13.5-13.1c0.1-6.2,6.7-12.6,13.2-12.9
			C258.7,271.8,265.9,278.5,266,284.9z"/>
		<path class="st0" d="M494,1281.7c-1.2,7.6-5.9,13.1-13.4,13.2c-6.5,0-13-7.5-12.6-13.9c0.4-6.6,7-13.1,13.1-13
			C487.5,1268.1,494.2,1275.2,494,1281.7z"/>
		<path class="st0" d="M756.8,430c-6.4-0.2-13.1-7.3-12.8-13.8c0.3-6.5,6.7-13.1,12.9-13.2c6.3-0.1,13.1,6.9,13.1,13.5
			C770,423.2,763.1,430.1,756.8,430z"/>
		<path class="st0" d="M71.9,1187c-6.4-0.1-13.1-7.2-12.9-13.7c0.2-6.5,6.6-13.1,12.8-13.3c6.3-0.2,13.1,6.8,13.2,13.4
			C85,1180,78.3,1187,71.9,1187z"/>
		<path class="st0" d="M650,296.7c-0.1,6.7-7.1,13.6-13.3,13.3c-6.3-0.3-12.6-7-12.7-13.4c-0.1-6.6,6.7-13.6,13-13.6
			C643.4,283.1,650.1,290.2,650,296.7z"/>
		<path class="st0" d="M876,1104c0,6.7-6.5,13.1-13.1,13c-6.7-0.1-13.1-6.7-12.9-13.2c0.3-6.6,6.3-12.6,12.9-12.7
			C869.5,1090.9,876,1097.3,876,1104z"/>
		<path class="st0" d="M270.8,339.3c4,9.2,7.9,18.2,12.1,27.8c-6.9,4.8-14,9.8-21.7,15.1C260.3,366.5,261.1,352.2,270.8,339.3z"/>
		<path class="st0" d="M876,864c0,6.7-6.6,13.1-13.2,12.9c-6.6-0.2-12.6-6.2-12.8-12.8c-0.2-6.6,6.2-13.1,12.9-13.2
			C869.6,850.9,876,857.3,876,864z"/>
		<path class="st0" d="M240.8,1171c6.6-0.2,13.1,6.2,13.2,12.9c0.1,6.7-6.4,13.1-13,13.1c-6.5-0.1-12.6-6-12.9-12.7
			C227.7,1177.9,234,1171.2,240.8,1171z"/>
		<path class="st0" d="M464.8,1376.9c-14.5,0-29.2,0-43.9,0c8.1-6.5,16-12.9,24.1-19.5C451.3,1363.6,458,1370.2,464.8,1376.9z"/>
		<path class="st0" d="M721.2,1377c1.2-1.5,2.2-2.8,3.3-3.9c1.7-1.6,3.3-2.7,5.5-0.2c0.9,1,3,1.1,4.6,1.1c39.3,0.1,78.6,0.1,117.9,0
			c1.6,0,3.2-0.4,5-0.6c1.9,3.9-0.9,3.7-3.5,3.7c-26.6,0-53.3,0-79.9,0C756.4,1377,738.8,1377,721.2,1377z"/>
		<path class="st0" d="M673.2,393.8c0-15.6,0-31.2,0-46.8C681.1,356.9,681.2,391.6,673.2,393.8z"/>
		<path class="st0" d="M410.9,131.3c-0.8,4.6-1.7,9.5-2.6,14.2c-6.1-4.4-12.7-9.2-19.5-14.2C396.6,131.3,404.3,131.3,410.9,131.3z"
			/>
		<path class="st0" d="M680.3,414c1.5-4.1,2.1-7.1,7.6-5.3c7,2.3,14.6,3.1,21.8,5.3c-4.8,0-9.6,0-14.4,0
			C690.6,414,685.8,414,680.3,414z"/>
		<path class="st0" d="M777.5,429.4c-3.4,9.2-12.2,14.6-23.3,13.6c-7.3-0.6-16.2-7.1-17.7-13.7C747.8,445.4,768.4,443.3,777.5,429.4
			z"/>
		<path class="st0" d="M739,1329.8c0-10.8,0-21.5,0-32.3c0-1.2,0-2.3,0-3.5C743.1,1306,742.8,1318,739,1329.8z"/>
		<path class="st0" d="M148.2,131.3c-5.5,3.4-10.1,6.3-15,9.4c0-3.3,0-6.2,0-9.4C137.9,131.3,142.6,131.3,148.2,131.3z"/>
		<path class="st0" d="M638.2,426.2c4.2,0,8.1,0,12,0c0.1,0.3,0.3,0.6,0.4,0.9c-4,2.2-7.9,4.4-12.4,6.9
			C638.2,431.1,638.2,428.9,638.2,426.2z"/>
		<path class="st0" d="M120.8,185.1c0,9.9,0,19.7,0,29.6c-0.3,0-0.6,0-0.9,0c0-9.9,0-19.7,0-29.6
			C120.2,185.1,120.5,185.1,120.8,185.1z"/>
		<path class="st0" d="M248.7,1035.1c-5.8-0.4-11.6-0.8-17.5-1.3c0-0.2,0-0.3,0-0.5c5.8,0,11.7,0,17.5,0
			C248.7,1033.9,248.7,1034.5,248.7,1035.1z"/>
		<path d="M397.1,489.4c0,31.6,0,62.9,0,95c5.4-1.1,10.2-2,15.1-3c8.5-1.8,16.9-3.7,25.3-5.3c3.4-0.6,7.3-0.6,8.3,3.9
			c1,4.5-1.7,6.6-5.8,7.4c-14.2,3-28.4,6-42.9,9.1c0,19.7,0,39.6,0,59.9c-5.9,0.1-3.6,4.4-4.3,7.4c-0.5,2-1.5,4.7-3,5.4
			c-1.7,0.8-4.8,0.4-6.3-0.8c-1.5-1.2-2-4-2.5-6.1c-0.4-1.5-0.1-3.2-0.1-5.2c-74.7,0-148.9,0-223.6,0c0-56,0-111.7,0-167.8
			C237,489.4,316.7,489.4,397.1,489.4z M277,517c-31.6,0.7-55.7,25.3-55.8,56.2c-0.1,31.4,24.3,56.6,55.7,56.6
			c31.8,0,55.9-25.3,55.8-56.5C332.6,542.1,308.6,517.8,277,517z"/>
		<path d="M1117.2,776.6c0-55.9,0-111.5,0-167.4c79.8,0,159.4,0,239.4,0c0,55.6,0,111.3,0,167.4
			C1277,776.6,1197.3,776.6,1117.2,776.6z M1181,693.5c1,31.1,24.4,56.2,55.8,56.3c31.8,0.1,56-25.1,56-56.4
			c0-31.2-24-56.1-55.5-56.3C1205.5,637,1182,662.3,1181,693.5z"/>
		<path d="M1117.4,369.2c79.9,0,159.5,0,239.4,0c0,55.8,0,111.4,0,167.4c-79.6,0-159.3,0-239.4,0
			C1117.4,481,1117.4,425.3,1117.4,369.2z M1181,453.6c1,31.1,24.4,56.2,55.9,56.2c31.8,0,56-25.2,55.9-56.4
			c-0.1-31.2-24.1-56.1-55.6-56.2C1205.5,397.1,1181.9,422.4,1181,453.6z"/>
		<path d="M1107,702.6c0,39.1,0,78.3,0,117.4c0,6.9-1.1,8-8,8c-38.3,0-76.6,0-114.9,0c-7,0-9-2-9-9.2c0-77.6,0-155.2,0-232.9
			c0-6.5,3.5-10,9.9-10c37.3,0,74.6,0,111.9,0c8.4,0,10.1,1.8,10.1,10.1C1107,625,1107,663.8,1107,702.6z M1094.6,725.8
			c0-46.3,0-92,0-137.5c-36,0-71.6,0-107.3,0c0,46,0,91.7,0,137.5C1023.2,725.8,1058.8,725.8,1094.6,725.8z M1094.8,738.4
			c-36.1,0-71.8,0-107.4,0c0,26.1,0,51.8,0,77.4c36,0,71.6,0,107.4,0C1094.8,789.9,1094.8,764.3,1094.8,738.4z"/>
		<path d="M146,891c0,39,0,78,0,116.9c0,7-1.1,8-8,8c-38.5,0-77,0-115.4,0c-6.4,0-8.6-2.1-8.6-8.6c0-78,0-155.9,0-233.9
			c0-5.9,3.6-9.5,9.4-9.5c37.6,0,75.3,0,112.9,0c7.8,0,9.7,2,9.7,9.6C146,812.7,146,851.9,146,891z M26.4,776.2
			c0,76.1,0,151.8,0,227.5c36,0,71.5,0,107.4,0c0-75.9,0-151.6,0-227.5C97.9,776.2,62.3,776.2,26.4,776.2z"/>
		<path d="M146,622c0,39,0,78,0,116.9c0,7-1.1,8.1-7.9,8.1c-38.5,0-77,0-115.4,0c-6.4,0-8.6-2.1-8.6-8.6c0-77.6,0-155.2,0-232.9
			c0-6.1,3.6-9.6,9.8-9.6c37.5,0,75,0,112.4,0c7.9,0,9.7,2,9.7,10C146,544.7,146,583.3,146,622z M133.6,734.8
			c0-75.8,0-151.2,0-226.4c-36.1,0-71.8,0-107.4,0c0,75.7,0,150.9,0,226.4C62.1,734.8,97.7,734.8,133.6,734.8z"/>
		<path d="M553.3,749.1c-6.8,12.3-14.4,23.6-24.7,32.7c-3.6,3.1-7.3,6.1-11,9c-3.5,2.8-7.6,2.8-9.6,0.1c-2.4-3.3-1.6-7.5,1.8-10.3
			c4.9-4.1,10.4-7.8,14.4-12.7c7-8.4,13.4-17.3,19.2-26.6c1.5-2.5,0.3-7.1-0.5-10.6c-2.3-10.1-1.1-20.1,5.7-27.2
			c6.5-6.9,6-14.4,5.2-21.8c-1.8-16.8-7.8-32.1-17.4-46.1c-7.2-10.4-15.5-19.5-25.9-26.8c-4-2.9-5.1-7.5-2.5-10.9
			c2.1-2.8,6-2.3,10,0.6c14.4,10.4,26.4,23.2,33.7,39.2c5.7,12.5,9.1,26,13.1,39.1c1.2,4,1.1,8.4,1.6,13.1
			c9.2-3.7,18.3-2.2,26.7,2.3c7.3,3.9,13.3,9.9,16.2,17.8c6.3,17,1.5,32.2-13,42.8C583.8,761.9,565.9,761.3,553.3,749.1z M576.8,744
			c10.3,0.4,21-10.1,21.2-20.9c0.2-10.3-9.5-20.2-20.5-21.1c-10.1-0.8-20.8,9.5-21.5,20.6C555.4,732.8,565.9,743.6,576.8,744z"/>
		<path d="M952.7,984.1c-0.6,25-8,47.7-21.6,68.4c-7.5,11.4-17.1,20.8-28.1,28.8c-2.9,2.1-6.4,3.2-9.3-0.1
			c-2.5-2.8-1.5-7.5,1.8-10.3c3.9-3.3,8-6.3,11.7-9.8c14.8-14.3,25.4-31.3,30.2-51.3c3.6-15.3,3.6-30.9,0.8-46.5
			c-2.5-14.3-8.2-27.1-16.3-38.9c-7-10.2-15.3-19.3-25.4-26.6c-2.1-1.5-4.1-5.1-4-7.6c0.3-5.6,5.6-7,10.7-3.3
			c20.3,14.9,34.5,34.3,42.2,58.3c1.5,4.8,3.5,9.6,4.3,14.5C951.2,967.7,951.8,975.9,952.7,984.1z"/>
		<path d="M972,843.3c0.1,19.5-16.2,35.5-34.8,35.6c-18.9,0.1-35.1-16.1-35.2-35.3c-0.1-19.5,16.2-35.5,34.8-35.6
			C955.8,808,971.9,824.1,972,843.3z M937.1,864c10.6-0.1,21.8-10.9,20.8-21.2c-1.2-12.7-7.9-19.4-20.7-20.7
			c-10.3-1-21,10.1-21.2,20.8C915.9,853.4,926.6,864.1,937.1,864z"/>
		<path d="M612,603.5c0,19.4-16.2,35.5-35,35.5c-18.8,0-35-16.1-35-35.4c0-19.4,16.2-35.5,35-35.5C595.8,568,612,584.2,612,603.5z
			 M598,602.8c-0.4-10.9-11.2-21.3-21.4-20.7c-10.9,0.7-20.6,10.5-20.6,21c0,10.6,10.7,21.2,21.1,21
			C587.9,623.8,598.4,613.1,598,602.8z"/>
		<path d="M972,723.8c-0.1,19.1-16.3,35.3-35.3,35.2c-18.6-0.1-34.9-16.1-34.7-35.7c0.1-19.1,16.3-35.3,35.3-35.2
			C955.8,688.2,972.1,704.2,972,723.8z M937.2,702c-10.4-0.3-21.1,10.3-21.1,20.9c-0.1,10.4,9.6,20.3,20.6,21
			c10.1,0.7,20.9-9.7,21.4-20.7C958.5,713,948,702.3,937.2,702z"/>
		<path d="M22.9,418.4c13.8-9.7,27.2-19,40.7-28.5c9.3,13.4,18.3,26.4,27.5,39.7c-13.4,9.6-26.4,19-39.6,28.5
			C41.8,444.7,32.5,431.7,22.9,418.4z M70,423.3c-0.2-6.7-7.2-13.6-13.3-13.3c-6.3,0.4-12.6,7-12.7,13.5c0,6.6,6.8,13.6,13.1,13.5
			C63.5,436.9,70.2,429.8,70,423.3z"/>
		<path d="M733.3,153.1c16,0,31.4,0,47.3,0c0,15.8,0,31.5,0,47.6c-15.6,0-31.3,0-47.3,0C733.3,184.9,733.3,169.2,733.3,153.1z
			 M770,176.5c0-6.6-6.9-13.6-13.2-13.5c-6.2,0.2-12.6,6.8-12.8,13.3c-0.2,6.5,6.5,13.6,12.9,13.7C763.2,190.1,770,183.1,770,176.5z
			"/>
		<path d="M500.8,550.4c0,15.9,0,31.5,0,47.4c-15.8,0-31.4,0-47.4,0c0-15.6,0-31.3,0-47.4C469,550.4,484.7,550.4,500.8,550.4z
			 M491,573.9c-0.1-6.4-7.1-13.1-13.7-12.9c-6.5,0.2-13.1,6.5-13.3,12.8c-0.2,6.3,6.8,13.1,13.4,13.2C484,587.1,491,580.3,491,573.9
			z"/>
		<path d="M125,478.4c8-5.7,16-11.2,24-16.9c9.5-6.7,18.8-13.5,28.3-20.2c3.4-2.4,8-1.8,9.7,0.8c2,2.9,1,7.1-2.4,9.5
			c-18,12.7-36,25.4-54,38.1c-4.3,3-8.8,3.1-12.2,0.1c-11.9-10.8-23.7-21.6-35.5-32.4c-0.5-0.4-1-0.9-1.4-1.4c-3-3.2-3.6-7.8-1-9.7
			c3.3-2.4,6.9-2,10,0.6c3.7,3.2,7.4,6.6,11,10C109.2,464,116.9,471,125,478.4z"/>
		<path d="M779,1081.6c15.2,3.2,30.2,6.3,45.1,9.4c1.4,0.3,3.3,0.3,4.1,1.2c1.6,1.7,3.3,4,3.6,6.1c0.3,2.9-2.1,4.9-5.1,4.6
			c-6.5-0.8-12.9-2-19.3-3.2c-10.8-2.1-21.7-4.5-32.5-6.7c-4.7-0.9-7.9-4.2-7.9-9c-0.1-22.3-0.1-44.6,0.1-66.9
			c0-2.2,0.7-4.9,2.2-6.3c1.4-1.3,4.6-2.1,6.2-1.3c1.7,0.8,3.4,3.6,3.4,5.6c0.3,16.8,0.2,33.6,0.2,50.4
			C779,1070.7,779,1075.8,779,1081.6z"/>
		<path d="M248,452c-1.2,13.7-9.3,22.7-23.9,23.8c-12.1,1-24.6-12-24.1-24.1c0.5-12.7,12-24.6,24.1-23.6
			C238.6,429.3,246.8,438.2,248,452z M223.8,465c6.6,0.2,13.1-6.2,13.2-12.9c0-6.7-6.4-13.1-13.1-13c-6.5,0.1-12.6,6-12.9,12.7
			C210.7,458.2,217.1,464.8,223.8,465z"/>
		<path d="M767,984c-1.3,13.9-9.5,22.7-23.9,23.8c-12.1,0.9-23.6-11-24.1-23.6c-0.4-12.1,12.1-25.1,24.2-24.1
			C757.9,961.4,765.8,970.4,767,984z M743.1,997c6.7-0.1,13.1-6.6,12.9-13.2c-0.2-6.6-6.2-12.6-12.8-12.8
			c-6.6-0.2-13.1,6.2-13.2,12.9C730,990.7,736.4,997.1,743.1,997z"/>
		<path d="M381,694.2c-1.4,14.5-10.3,23.6-24.1,23.4c-14.8-0.3-22.6-8.9-23.7-23.6c-1-12.3,12.3-25.1,24.1-23.9
			C372.6,671.7,379.9,681.1,381,694.2z M371,694.1c0.1-6.3-6.9-13.1-13.5-13.1c-6.6,0-13.6,6.8-13.5,13.1
			c0.1,6.2,6.7,12.7,13.2,12.9C363.7,707.2,370.8,700.6,371,694.1z"/>
		<path d="M476.9,790c13.8,1.6,23.6,9.3,23.8,23.8c0.2,14.3-9.7,23.3-23.9,24c-12.5,0.6-24.6-11.6-23.6-23.8
			C454.4,799.3,462.2,792,476.9,790z M477.5,801c-6.6,0-13.6,6.8-13.5,13.1c0.1,6.2,6.7,12.6,13.2,12.9c6.5,0.2,13.6-6.5,13.7-12.9
			C491.1,807.8,484.1,801,477.5,801z"/>
		<path d="M222.7,1319.1c-6.1,5.3-11.9,11.5-18.7,16.1c-9.1,6.2-18.7,12-28.7,16.6c-17.4,8-36.2,9.2-55.1,8.1
			c-5.3-0.3-10.5-2-15.9-2.8c-4-0.6-5-3-4.6-6.5c0.4-3.9,2.9-5.1,6.5-4.9c10,0.7,20,2,30,2.1c16.2,0.2,31-4.8,45.3-12.5
			c9.6-5.2,18-11.6,25.3-19.2c6.9-7.3,12.5-15.9,18.1-24.4c11.1-16.7,13.8-35.5,13.1-55c-0.1-3-0.7-6.2,0.2-8.9
			c0.7-2.3,2.9-4.7,5.1-5.6c1.2-0.5,4.8,1.7,5.2,3.2c0.9,3.7,2.7,3,5.3,2.5c19.5-4,39-7.8,58.5-11.7c1.8-0.3,3.6-0.4,5.4-0.3
			c3.1,0,5.4,1.8,5.1,4.7c-0.2,2.2-1.9,5.4-3.6,5.9c-6,1.9-12.3,3-18.5,4.3c-15,3-30,6-45.1,9c-1,0.2-2,0.1-3.6,0.2
			c0,6.1,0,12.3,0,18.4c0,8.7,0.1,17.3,0,26c0,2.1-0.2,4.4-1.1,6.2c-0.8,1.7-2.7,3.9-4.2,4c-2.4,0.1-4.8-1.4-7.9-2.5
			c-2.4,4.5-5.4,9.9-8.7,16.1c6.3-3.7,12.2-5.7,19.1-4.4c6.8,1.4,12,4.7,15.8,10.5c6.1,9.2,4.8,20.8-2.8,28.8
			c-7.9,8.3-19.1,9.6-28.7,4.5C224.4,1342.8,218.6,1331.8,222.7,1319.1z M258,1326.8c-0.2-6.8-6.9-13.1-13.3-12.8
			c-6.7,0.4-12.6,6.4-12.7,12.9c0,6.7,6.4,13.1,13.1,13C251.8,1339.9,258.2,1333.4,258,1326.8z"/>
		<path d="M340.2,1210c-12.1,0.3-23.6-11-24.1-23.7c-0.5-11.9,10.8-24.3,23.6-24c13.5,0.3,24,8.8,24.1,23.7
			C363.8,1199.7,354.7,1208.2,340.2,1210z M353,1186.2c0.2-6.6-6.4-13.2-13.1-13.1c-6.6,0.1-12.7,6.2-12.9,12.8
			c-0.2,6.6,6.4,13.2,13.1,13.1C346.7,1198.9,352.8,1192.8,353,1186.2z"/>
		<path d="M85,1342.8c-1,13-8.4,22.5-23.7,24.1c-11.9,1.2-25.1-11.6-24.1-23.9c1.2-14.6,8.9-23.3,23.7-23.6
			C74.6,1319.1,83.5,1328.3,85,1342.8z M61.4,1356c6.6,0.1,13.6-6.7,13.6-13c0-6.4-7.1-13.1-13.6-13c-6.5,0.1-13.1,6.5-13.3,12.8
			C47.8,1349,54.8,1355.9,61.4,1356z"/>
		<path d="M757,656.6c15.7,2.9,30.9,5.7,46.1,8.5c1.1,0.2,2.6,0.4,3.2,1.1c1.4,1.9,3.3,4,3.5,6.2c0.3,3-2.2,4.9-5.2,4.5
			c-7.3-1-14.5-2.2-21.7-3.5c-9.9-1.7-19.8-3.7-29.8-5.4c-4.6-0.8-8-4.1-8.1-8.9c-0.1-22.5-0.1-44.9,0-67.4c0-1.8,0.7-4.3,2-5.3
			c1.6-1.3,4.7-2.7,6.2-2c1.8,0.9,3.6,3.9,3.6,5.9c0.3,20.1,0.2,40.3,0.2,60.4C757,652.6,757,654.4,757,656.6z"/>
		<path d="M721.2,535c15.5,1.9,24.1,11.7,23.5,24.6c-0.7,15.7-11.7,23-24.2,23.1c-13,0.1-24.2-12.3-23.5-24.1
			C697.8,545.9,709.4,534.5,721.2,535z M721.4,572c8-0.9,13.5-5.9,13.3-13.7c-0.2-7.9-5.5-13-13.2-13.1c-8-0.1-13.5,5.7-13.3,13.5
			C708.4,566.6,713.7,570.9,721.4,572z"/>
		<path d="M385.6,408.8c-23.9,0-47.5,0-71.4,0c0-23.8,0-47.4,0-71.4c23.6,0,47.3,0,71.4,0C385.6,361,385.6,384.7,385.6,408.8z
			 M373,373.1c-1.5-12.5-8.5-22.3-22.2-22.8c-12.4-0.4-22.5,9.8-22.6,22.7c0,12.7,9.9,23.1,22.5,22.8
			C364,395.4,371.4,385.9,373,373.1z"/>
		<path d="M626,373.3c-0.6,19.7-16.1,35.8-36.3,35.7c-19.7-0.1-35.8-16.1-35.7-36.2c0.1-19.7,16.1-35.8,36.2-35.7
			C610,337.2,625.7,353.1,626,373.3z M568,372.6c0.5,12,9.1,23.2,22.3,23.2c12.3,0,21.8-8.3,22.3-22.4c0.5-12.1-7.8-22.8-22-23.2
			C578.5,349.9,569.2,359.6,568,372.6z"/>
		<path d="M172.2,235.6c0-24,0-47.5,0-71.4c23.8,0,47.4,0,71.4,0c0,23.6,0,47.3,0,71.4C220,235.6,196.3,235.6,172.2,235.6z
			 M208.7,177c-12.2,0.7-22.1,9.6-22.5,22.6c-0.4,12,8.9,23.2,22.1,23.2c13.2,0,22.4-9.6,22.3-22.8C230.6,187.1,222,178.3,208.7,177
			z"/>
		<path d="M364,200c-0.4,19.9-16.1,35.9-36,35.9c-19.9,0-35.9-16-35.9-35.9c0-19.9,16-35.9,35.9-35.9
			C347.9,164.1,363.6,180.1,364,200z M351,200.1c-1.5-12.5-8.5-22.3-22.2-22.8c-12.4-0.4-22.5,9.8-22.6,22.7
			c0,12.7,9.9,23.1,22.5,22.8C342,222.4,349.4,212.9,351,200.1z"/>
		<path d="M348.4,933.2c23.9,0,47.5,0,71.4,0c0,23.8,0,47.4,0,71.4c-23.6,0-47.3,0-71.4,0C348.4,981,348.4,957.3,348.4,933.2z
			 M406,968.8c-1.8-14-10.5-22.8-22.9-22.6c-13.3,0.3-22.1,11.2-21.8,23c0.2,13.2,10.6,23.1,22.8,22.6
			C398.1,991.1,404.7,980.8,406,968.8z"/>
		<path d="M263.8,933c20.1,0.3,36,16,36.1,35.8c0.1,20.1-15.9,36-35.7,36.1c-20.1,0.1-36-15.9-36.1-35.7
			C228,949.1,244,933.5,263.8,933z M263.6,946c-12.3,0.8-22.1,9.7-22.4,22.6c-0.3,12.1,9,23.2,22.2,23.1
			c13.4-0.1,22.4-9.9,22.3-22.9C285.5,955.8,276.7,947.3,263.6,946z"/>
		<path d="M1377.6,1131.8c-29.9,0-59.5,0-89.4,0c0-29.8,0-59.4,0-89.4c29.6,0,59.3,0,89.4,0
			C1377.6,1072,1377.6,1101.7,1377.6,1131.8z M1350,1086.3c-0.2-8.7-8.5-17.1-16.8-16.2c-10.4,1.1-15.9,6.5-15.9,16.3
			c0,10.3,6,15.7,16.3,16.4C1342.2,1103.4,1350.2,1094.8,1350,1086.3z"/>
		<path d="M1378,1301.8c-0.8,25.5-19.6,45-44.9,45c-25.4,0-44.9-19.5-44.9-44.9c0-25.3,19.3-44.6,44.5-44.8
			C1358.2,1257,1377,1276.6,1378,1301.8z M1350,1302.6c-1.3-10.2-6.2-15.7-16.5-16.4c-8.6-0.6-17.1,8.1-16.3,16.5
			c0.9,10.1,6,15.2,16.2,16.2C1341.7,1319.7,1349.9,1311.2,1350,1302.6z"/>
		<path d="M1332.9,1149c25.4,0.8,44.9,19.6,44.9,45c0,25.3-19.5,44.9-45,44.8c-25.2-0.1-44.5-19.4-44.7-44.6
			C1288.1,1168.7,1307.6,1149.9,1332.9,1149z M1333.3,1178c-8.7,0.2-17.1,8.5-16.2,16.8c1.1,10.4,6.5,15.9,16.3,15.9
			c10.3,0,15.7-6,16.4-16.3C1350.4,1185.8,1341.8,1177.8,1333.3,1178z"/>
		<path d="M582.2,1111.6c0-23.9,0-47.5,0-71.3c23.9,0,47.6,0,71.6,0c0,23.8,0,47.4,0,71.3C630.1,1111.6,606.4,1111.6,582.2,1111.6z
			 M618.7,1053c-12.1,0.7-22.1,9.4-22.5,22.5c-0.4,11.9,8.7,23.2,22.1,23.3c13.1,0.1,22.4-9.4,22.4-22.8
			C640.7,1063.3,632.2,1054.4,618.7,1053z"/>
		<path d="M654,956.2c-0.5,19.8-16.1,35.8-36.2,35.7c-19.8-0.1-35.8-16-35.7-36.1c0.1-19.8,16-35.8,36.1-35.7
			C638,920.2,653.7,936.1,654,956.2z M618.4,933c-13.1,1-22.5,11.3-22.2,23.4c0.4,12.9,10.2,22.7,22.4,22.4
			c13.1-0.3,21.9-9.6,22-22.6C640.8,943.1,631.8,934.1,618.4,933z"/>
		<path d="M1070.8,195.4c0,29.6,0,58.9,0,88.4c-29.5,0-58.7,0-88.4,0c0-29.3,0-58.7,0-88.4C1011.6,195.4,1041,195.4,1070.8,195.4z
			 M1043,239.3c-0.3-8.7-8.5-17.1-16.8-16.1c-10.4,1.2-15.9,6.5-15.9,16.4c0,10.3,6.1,16.3,16.3,16.2
			C1037.1,255.6,1041.9,249.3,1043,239.3z"/>
		<path d="M1026.6,500c-25.1-0.9-44.4-19.4-44.4-44.9c-0.1-25.7,19.3-44.9,44.1-44.9c25.1-0.1,44.4,19.2,44.4,44.6
			C1070.9,480.6,1051.5,499,1026.6,500z M1043,454.3c-0.2-8.6-8.4-17.1-16.8-16.2c-10.3,1.1-15.9,6.3-15.9,16.3
			c-0.1,10.2,5.9,15.7,16.2,16.5C1035.1,471.5,1043.2,462.8,1043,454.3z"/>
		<path d="M1026.3,392c-24.8-1-44.2-19.4-44.1-45.2c0.1-25.4,19.4-44.7,44.4-44.6c24.8,0.1,44.2,19.2,44.1,44.9
			C1070.7,372.6,1051.4,391.1,1026.3,392z M1043,347.5c0-8.6-8.1-17.1-16.6-16.4c-10.1,0.9-15.2,5.8-16.3,16.1
			c-0.8,8.4,7.6,17.1,16.2,16.6C1036.6,363.2,1041.7,357.8,1043,347.5z"/>
		<path d="M617.2,1347.7c0-23.9,0-47.4,0-71.4c23.8,0,47.5,0,71.5,0c0,23.7,0,47.4,0,71.4C665,1347.7,641.4,1347.7,617.2,1347.7z
			 M653.5,1335c13.5-1.3,22.4-9.7,22.2-22.7c-0.2-13.4-9.3-22-22.2-22c-13.5,0-22.4,9.4-22.2,22.4
			C631.5,1326.1,640.6,1333.6,653.5,1335z"/>
		<path d="M228.8,29.3c0,23.8,0,47.4,0,71.4c-23.7,0-47.4,0-71.5,0c0-23.7,0-47.4,0-71.4C181,29.3,204.6,29.3,228.8,29.3z M216,64.8
			c-1.7-14-10.9-22.8-23.5-22.6c-13.1,0.3-22.7,10.9-22.3,23c0.4,14.1,10.8,22.5,23.3,22.6C205.7,87.8,216.4,76,216,64.8z"/>
		<path d="M349,64.8c-0.3,20.1-16.1,36-35.8,36.1c-20.1,0.1-36-16-36.1-35.7c-0.1-20.1,16-36,35.7-36.1
			C332.9,29,348.5,45.1,349,64.8z M313.2,88c14.2-2,22.3-9.6,22.4-23c0.1-13.5-9.8-22.9-22.9-22.8c-13.3,0.1-23.1,11.1-22.5,23.3
			C290.8,79.5,300.8,86.7,313.2,88z"/>
		<path d="M473.8,29.4c0,23.9,0,47.5,0,71.4c-23.8,0-47.4,0-71.4,0c0-23.6,0-47.3,0-71.4C426,29.4,449.7,29.4,473.8,29.4z M438.2,42
			c-12.6,0.6-23.2,10.1-23,23c0.2,12.9,9,21.7,22.6,22.9c11.4,1,23.8-11.3,23.1-22.9C460,51.8,451.5,43.2,438.2,42z"/>
		<path d="M558,29c19.9,0.4,35.9,16.1,35.9,36c0,19.9-16,35.9-35.9,35.9c-19.9,0-35.9-16-35.9-35.9C522.1,45.1,538.1,29.4,558,29z
			 M558.1,42c-12.8,0.6-23.2,10.4-22.9,23.1c0.2,13.1,9.3,21.7,22.7,22.7c11.5,0.9,23.9-11.5,23-23C579.8,51.5,571.2,43.1,558.1,42z
			"/>
		<path d="M895.2,101.6c0-24,0-47.5,0-71.4c23.8,0,47.4,0,71.4,0c0,23.6,0,47.3,0,71.4C943,101.6,919.3,101.6,895.2,101.6z
			 M931.1,43c-12.8,0.6-23.2,10.3-22.9,23.1c0.2,13.1,9.3,21.7,22.7,22.8c11.5,0.9,23.9-11.5,23-23C952.8,52.5,944.2,44.1,931.1,43z
			"/>
		<path d="M1050.8,102c-19.8-0.5-35.8-16.1-35.8-36.2c0.1-19.8,16-35.8,36.1-35.8c19.8,0.1,35.8,16,35.8,36.1
			C1086.8,85.9,1070.9,101.7,1050.8,102z M1051,43c-13,0.7-23.2,10.7-22.8,23.3c0.4,13.5,9.9,22.6,22.8,22.4
			c13.5-0.2,22.2-8.3,22.6-22.4C1074,53.3,1064.6,44,1051,43z"/>
		<path d="M838.6,104.8c-23.9,0-47.5,0-71.4,0c0-23.8,0-47.4,0-71.4c23.6,0,47.3,0,71.4,0C838.6,57,838.6,80.7,838.6,104.8z
			 M803.2,92c14.2-2,22.3-9.6,22.4-23c0.1-13.5-9.8-22.9-22.9-22.8c-13.3,0.1-23.1,11.1-22.5,23.3C780.8,83.5,790.8,90.7,803.2,92z"
			/>
		<path d="M719,69c-0.4,20-16.1,35.9-36,36c-20,0-35.9-16-36-35.9c0-20,16-35.9,35.9-36C702.9,33.1,718.6,49.1,719,69z M706,68.8
			c-1.7-14-10.9-22.8-23.5-22.6c-13.1,0.3-22.7,10.9-22.3,23c0.4,14.2,10.8,22.5,23.3,22.6C695.7,91.8,706.4,80,706,68.8z"/>
		<path d="M1260.2,104.7c0-23.8,0-47.4,0-71.3c23.7,0,47.4,0,71.4,0c0,23.6,0,47.3,0,71.3C1307.9,104.7,1284.2,104.7,1260.2,104.7z
			 M1296,46c-12.9,0.7-23.2,10.6-22.8,23.2c0.3,13.3,9.6,21.8,22.8,22.7c11.6,0.8,23.9-11.7,22.9-23.1
			C1317.7,55.3,1308.9,47,1296,46z"/>
		<path d="M1212,68.8c-0.3,20.1-16,36-35.8,36.1c-20.1,0.1-36-15.9-36.1-35.7c-0.1-20.1,15.9-36,35.7-36.1
			C1195.9,33,1211.5,49,1212,68.8z M1176,46c-12.9,0.7-23.2,10.7-22.8,23.2c0.4,13.5,9.9,22.6,22.8,22.4
			c13.4-0.2,22.2-8.2,22.6-22.4C1199,56.3,1189.6,47,1176,46z"/>
		<path d="M887.2,1225.6c0-24,0-47.5,0-71.4c23.8,0,47.4,0,71.4,0c0,23.6,0,47.3,0,71.4C935,1225.6,911.3,1225.6,887.2,1225.6z
			 M922.5,1213c12.9-1.2,21.9-9.5,22.1-22.8c0.2-12.8-8.6-22.8-22.2-23c-12.5-0.1-22.1,10.1-22.2,22.6
			C900,1202.3,909.7,1212.2,922.5,1213z"/>
		<path d="M1079,1190.2c-0.5,19.8-16.1,35.8-36.2,35.7c-19.8-0.1-35.8-16-35.7-36.1c0.1-19.8,16-35.8,36.1-35.7
			C1062.9,1154.2,1078.7,1170.1,1079,1190.2z M1065,1189.8c-1.7-13.9-10.3-22.8-22.9-22.6c-13.2,0.2-22.1,11-21.9,22.9
			c0.2,13.1,10.5,23.1,22.7,22.6C1056.8,1212.2,1063.6,1202,1065,1189.8z"/>
		<path d="M732.8,732.3c0,24,0,47.5,0,71.4c-23.8,0-47.4,0-71.4,0c0-23.6,0-47.3,0-71.4C685,732.3,708.7,732.3,732.8,732.3z
			 M696.4,791c13.4-1.3,22.4-9.6,22.3-22.7c-0.2-13.4-9.2-22-22.1-22c-13.4,0-22.4,9.3-22.3,22.4C674.5,782,683.5,789.6,696.4,791z"
			/>
		<path d="M817,732c19.9,0.4,35.9,16.1,35.9,36c0,19.9-16,35.9-35.9,35.9c-19.9,0-35.9-16-35.9-35.9
			C781.1,748.1,797.1,732.4,817,732z M839,768.3c-1.5-13.3-9.5-22-22.4-22c-13.4,0-22.4,9.3-22.3,22.4c0.2,13.4,9.2,22,22.1,22
			C829.9,790.7,837.8,781.4,839,768.3z"/>
		<path d="M1074.8,995.3c0,24,0,47.5,0,71.4c-23.8,0-47.4,0-71.4,0c0-23.6,0-47.3,0-71.4C1027,995.3,1050.7,995.3,1074.8,995.3z
			 M1039.2,1053c14.2-2,22.9-9.9,22.5-22.9c-0.4-14-10.6-22-22.9-21.8c-13.8,0.2-23,9.8-22.5,22.7
			C1016.8,1045.5,1027.1,1051.4,1039.2,1053z"/>
		<path d="M1039.2,875c19.8,0.5,35.8,16.1,35.7,36.2c-0.1,19.8-16,35.8-36.1,35.7c-19.8-0.1-35.8-16-35.7-36.1
			C1003.2,891,1019.1,875.3,1039.2,875z M1038.8,933c11.3,0.5,23.1-10.2,23.1-22c-0.1-12.9-8.7-22.4-22.6-22.7
			c-12.2-0.3-22.5,7.6-23,21.7C1015.9,922.9,1024.4,930.9,1038.8,933z"/>
		<path d="M439.2,231.6c0-23.9,0-47.5,0-71.4c23.8,0,47.4,0,71.4,0c0,23.6,0,47.3,0,71.4C487,231.6,463.3,231.6,439.2,231.6z
			 M474.8,173c-13.1,1.3-21.9,9.1-22.7,22.4c-0.7,11.4,11.6,23.5,23,22.4c13.5-1.3,22.5-8.8,22.5-22.3
			C497.8,182,487.9,174.1,474.8,173z"/>
		<path d="M631,196.2c-0.5,19.8-16.1,35.8-36.2,35.7c-19.8-0.1-35.8-16-35.7-36.1c0.1-19.8,16-35.8,36.1-35.7
			C615,160.2,630.7,176.1,631,196.2z M618,195.7c-1.1-12.8-8.8-22-22.5-22.5c-12.4-0.4-23,7.9-23.2,22c-0.2,13.6,9.2,22.3,22.7,22.3
			C607.9,217.6,616.5,209.7,618,195.7z"/>
		<path d="M102.8,155.4c0,23.9,0,47.5,0,71.4c-23.8,0-47.4,0-71.4,0c0-23.6,0-47.3,0-71.4C55,155.4,78.7,155.4,102.8,155.4z
			 M90,190.7c-1.1-12.8-8.8-22-22.5-22.4c-12.4-0.4-23,7.9-23.2,22c-0.2,13.6,9.2,22.3,22.7,22.3C79.9,212.6,88.5,204.7,90,190.7z"
			/>
		<path d="M66.8,35c20.1,0.3,36,16,36.1,35.8c0.1,20.1-15.9,36-35.7,36.1C47.1,107,31.2,91,31.1,71.2C31,51.1,47,35.5,66.8,35z
			 M90,70.7c-1.1-12.8-8.7-22-22.5-22.5c-12.4-0.4-23,7.8-23.2,22C44.1,83.8,53.4,92.5,67,92.6C79.8,92.7,88.5,84.8,90,70.7z"/>
		<path d="M757.4,1152.2c24,0,47.5,0,71.4,0c0,23.8,0,47.4,0,71.4c-23.6,0-47.3,0-71.4,0C757.4,1200,757.4,1176.3,757.4,1152.2z
			 M815,1188.5c-1.3-12.8-8.7-21.9-22.2-22.2c-12.9-0.2-22.4,8.6-22.4,22.2c0,12.8,8.4,21.9,22,22.2
			C805.2,1210.9,813.6,1202.1,815,1188.5z"/>
		<path d="M793.1,1272c19.8,0.5,35.8,16.1,35.8,36.1c-0.1,19.8-16,35.8-36,35.8c-19.8-0.1-35.8-16-35.8-36
			C757.2,1288.1,773.1,1272.4,793.1,1272z M815,1308.5c-1.4-12.9-8.8-22-22.3-22.2c-13-0.2-22.4,8.7-22.4,22.2
			c0,12.9,8.5,22,22,22.2C805.3,1330.9,813.7,1322,815,1308.5z"/>
		<path d="M39.4,1051.2c23.9,0,47.5,0,71.4,0c0,23.8,0,47.4,0,71.4c-23.6,0-47.3,0-71.4,0C39.4,1099,39.4,1075.3,39.4,1051.2z
			 M75,1065c-13.4,1.2-23,9.5-22.7,22.7c0.3,14,9.9,21.9,22.7,21.9c12.8,0,22.4-7.8,22.7-21.9C98,1074.5,88.4,1066.2,75,1065z"/>
		<path d="M194.9,1123c-19.8-0.5-35.8-16.1-35.8-36.1c0.1-19.8,16-35.8,36.1-35.8c19.8,0.1,35.8,16,35.8,36.1
			C230.8,1106.9,214.9,1122.6,194.9,1123z M218,1087.5c-1.2-13.6-10.2-22.4-23.2-22.3c-13.2,0.2-21.9,8.9-22.7,22.2
			c-0.7,11.5,11.7,23.5,23.1,22.4C208.8,1108.5,216.7,1100.9,218,1087.5z"/>
		<path d="M362.7,1124.8c-24,0-47.6,0-71.4,0c0-23.8,0-47.4,0-71.4c23.7,0,47.4,0,71.4,0C362.7,1077,362.7,1100.7,362.7,1124.8z
			 M350,1088.5c-1.3-12.8-8.7-21.9-22.3-22.2c-12.9-0.2-22.4,8.6-22.4,22.2c0,12.8,8.4,21.9,22,22.2
			C340.2,1110.9,348.6,1102.1,350,1088.5z"/>
		<path d="M446.9,1053c20,0.4,36,16.1,36,35.9c0,20-16,36-35.8,36c-20,0-36-16-36-35.8C411,1069.1,427.1,1053.5,446.9,1053z
			 M447.5,1066c-12.7,1.3-21.9,8.6-22.2,22.2c-0.3,12.8,8.5,22.4,22.2,22.5c13.5,0,22.4-9.4,22.2-22.4
			C469.5,1074.8,460.4,1067.4,447.5,1066z"/>
		<path d="M1095,1318.8c-0.3,20.1-16,36-35.8,36.1c-20.1,0.1-36-15.9-36.1-35.7c-0.1-20.1,15.9-36,35.7-36.1
			C1078.9,1283,1094.5,1299,1095,1318.8z M1082,1318.4c-1.3-13.9-10.7-22.4-23.4-22.1c-13.5,0.4-22.5,9.3-22.3,22.3
			c0.1,13.7,9.3,21,22.6,22.2C1070.4,1341.8,1082.2,1329.8,1082,1318.4z"/>
		<path d="M1171.1,1101c19.8,0.5,35.8,16.1,35.8,36.1c-0.1,19.8-16,35.8-36.1,35.8c-19.8-0.1-35.8-16-35.8-36.1
			C1135.2,1117.1,1151.1,1101.3,1171.1,1101z M1193,1136.3c-1.5-13.4-9.5-22-22.4-22c-13.4,0-22.4,9.3-22.2,22.4
			c0.2,13.4,9.2,22,22.1,22C1183.9,1158.7,1191.8,1149.4,1193,1136.3z"/>
		<path d="M940,206.2c-0.5,19.8-16.1,35.8-36.2,35.7c-19.8-0.1-35.8-16-35.7-36.1c0.1-19.8,16-35.8,36.1-35.7
			C923.9,170.2,939.7,186.1,940,206.2z M926,205.9c-1.7-13.8-10.2-22.8-22.9-22.6c-13.1,0.2-22.1,11-21.9,22.9
			c0.2,13,10.4,23.1,22.7,22.6C917.8,228.2,924.6,218.1,926,205.9z"/>
		<path d="M1135.2,1322.6c0-23.9,0-47.5,0-71.4c23.8,0,47.4,0,71.4,0c0,23.6,0,47.3,0,71.4C1183,1322.6,1159.3,1322.6,1135.2,1322.6
			z M1193,1286.5c-1.4-12.9-8.8-22-22.3-22.2c-13-0.2-22.4,8.7-22.4,22.2c0,12.8,8.5,22,22,22.2
			C1183.3,1308.9,1191.7,1300,1193,1286.5z"/>
		<path d="M944.6,1354.8c-23.9,0-47.5,0-71.4,0c0-23.8,0-47.4,0-71.4c23.6,0,47.3,0,71.4,0C944.6,1307,944.6,1330.7,944.6,1354.8z
			 M909.2,1296c-13,1-23,8.9-22.9,22.5c0.1,13.4,8.9,21,22.5,22.3c11.4,1.1,23.7-10.9,23.1-22.4
			C931.1,1305.2,922.4,1297.4,909.2,1296z"/>
		<path d="M868.2,391.6c0-23.9,0-47.5,0-71.4c23.8,0,47.4,0,71.4,0c0,23.6,0,47.3,0,71.4C916,391.6,892.3,391.6,868.2,391.6z
			 M926,356c-1.5-12.6-8.6-22.4-22.2-22.8c-12.4-0.4-22.5,9.9-22.6,22.7c0,12.7,9.9,23.1,22.5,22.8C917.1,378.4,924.4,368.8,926,356
			z"/>
		<path class="st0" d="M277,517c31.6,0.8,55.6,25.1,55.7,56.3c0.1,31.3-24,56.5-55.8,56.5c-31.5,0-55.9-25.2-55.7-56.6
			C221.4,542.3,245.5,517.7,277,517z"/>
		<path class="st0" d="M1181,693.5c1-31.2,24.5-56.5,56.2-56.4c31.5,0.1,55.5,25.1,55.5,56.3c0,31.2-24.1,56.4-56,56.4
			C1205.4,749.8,1182,724.6,1181,693.5z"/>
		<path class="st0" d="M1181,453.6c0.9-31.3,24.5-56.5,56.1-56.4c31.5,0.1,55.6,25.1,55.6,56.2c0.1,31.2-24.1,56.5-55.9,56.4
			C1205.4,509.8,1182,484.7,1181,453.6z"/>
		<path class="st0" d="M1094.6,725.8c-35.8,0-71.3,0-107.3,0c0-45.8,0-91.5,0-137.5c35.7,0,71.3,0,107.3,0
			C1094.6,633.9,1094.6,679.6,1094.6,725.8z M1077,627.2c-0.3-20.1-16-36-35.8-36.1c-20.1-0.1-36,15.9-36.1,35.7
			c-0.1,20.1,15.9,36,35.7,36.1C1060.9,663,1076.5,647,1077,627.2z"/>
		<path class="st0" d="M1094.8,738.4c0,25.9,0,51.5,0,77.4c-35.8,0-71.4,0-107.4,0c0-25.6,0-51.3,0-77.4
			C1023,738.4,1058.7,738.4,1094.8,738.4z M1076.8,741.4c-24.1,0-47.8,0-71.4,0c0,24.1,0,47.8,0,71.4c24,0,47.6,0,71.4,0
			C1076.8,788.9,1076.8,765.3,1076.8,741.4z"/>
		<path class="st0" d="M26.4,776.2c35.9,0,71.5,0,107.4,0c0,75.9,0,151.6,0,227.5c-35.8,0-71.4,0-107.4,0
			C26.4,928,26.4,852.3,26.4,776.2z M44.2,985.6c24.2,0,47.9,0,71.6,0c0-24,0-47.5,0-71.3c-23.9,0-47.7,0-71.6,0
			C44.2,938.2,44.2,961.7,44.2,985.6z M79.8,866c20.1-0.3,36-16,36.1-35.8c0.1-20.1-15.9-36-35.7-36.1c-20.1-0.1-36,15.9-36.1,35.7
			C44,849.9,60,865.5,79.8,866z"/>
		<path class="st0" d="M133.6,734.8c-35.9,0-71.5,0-107.4,0c0-75.5,0-150.7,0-226.4c35.6,0,71.3,0,107.4,0
			C133.6,583.6,133.6,659,133.6,734.8z M115.8,646.4c-24.1,0-47.8,0-71.4,0c0,24.1,0,47.8,0,71.4c24,0,47.6,0,71.4,0
			C115.8,693.9,115.8,670.3,115.8,646.4z M116,562.2c-0.3-20.1-16.1-36-35.8-36.1c-20.1-0.1-36,16-36.1,35.7
			c-0.1,20.1,16,36,35.7,36.1C99.9,598,115.5,581.9,116,562.2z"/>
		<path class="st0" d="M576.8,744c-10.9-0.4-21.3-11.2-20.7-21.3c0.6-11.1,11.4-21.4,21.5-20.6c11,0.9,20.7,10.8,20.5,21.1
			C597.8,733.8,587.1,744.4,576.8,744z"/>
		<path class="st0" d="M937.1,864c-10.5,0.1-21.2-10.6-21-21c0.1-10.7,10.9-21.8,21.2-20.8c12.7,1.3,19.4,8,20.7,20.7
			C958.9,853.1,947.7,863.9,937.1,864z"/>
		<path class="st0" d="M598,602.8c0.4,10.3-10.1,21-20.9,21.2c-10.4,0.2-21.1-10.4-21.1-21c0-10.5,9.7-20.3,20.6-21
			C586.8,581.4,597.5,591.9,598,602.8z"/>
		<path class="st0" d="M937.2,702c10.8,0.3,21.3,11,20.8,21.3c-0.5,11-11.3,21.4-21.4,20.7c-11-0.7-20.6-10.6-20.6-21
			C916.1,712.3,926.8,701.7,937.2,702z"/>
		<path class="st0" d="M70,423.3c0.2,6.5-6.5,13.6-12.9,13.7c-6.3,0.1-13.1-6.9-13.1-13.5c0-6.4,6.3-13.1,12.7-13.5
			C62.8,409.7,69.8,416.6,70,423.3z"/>
		<path class="st0" d="M770,176.5c0,6.6-6.8,13.6-13.1,13.5c-6.4-0.1-13.1-7.2-12.9-13.7c0.2-6.5,6.6-13.1,12.8-13.3
			C763.1,162.9,770,169.9,770,176.5z"/>
		<path class="st0" d="M491,573.9c0.1,6.3-7,13.1-13.6,13c-6.6-0.1-13.6-6.9-13.4-13.2c0.2-6.3,6.8-12.6,13.3-12.8
			C483.8,560.9,490.9,567.6,491,573.9z"/>
		<path class="st0" d="M223.8,465c-6.7-0.2-13.1-6.8-12.8-13.3c0.3-6.7,6.4-12.6,12.9-12.7c6.7-0.1,13.1,6.3,13.1,13
			C236.9,458.8,230.4,465.2,223.8,465z"/>
		<path class="st0" d="M743.1,997c-6.7,0.1-13.1-6.3-13.1-13c0-6.7,6.6-13.1,13.2-12.9c6.6,0.2,12.6,6.2,12.8,12.8
			C756.2,990.3,749.8,996.9,743.1,997z"/>
		<path class="st0" d="M371,694.1c-0.1,6.4-7.3,13.1-13.8,12.9c-6.5-0.2-13.1-6.7-13.2-12.9c-0.1-6.3,6.9-13.1,13.5-13.1
			C364.1,681,371.1,687.8,371,694.1z"/>
		<path class="st0" d="M477.5,801c6.6,0,13.6,6.8,13.5,13.1c-0.1,6.4-7.3,13.1-13.7,12.9c-6.5-0.2-13.1-6.7-13.2-12.9
			C463.9,807.8,470.9,801,477.5,801z"/>
		<path class="st0" d="M258,1326.8c0.2,6.6-6.2,13.1-12.9,13.2c-6.7,0.1-13.1-6.3-13.1-13c0-6.5,6-12.6,12.7-12.9
			C251.1,1313.7,257.8,1320,258,1326.8z"/>
		<path class="st0" d="M353,1186.2c-0.2,6.6-6.3,12.7-12.9,12.8c-6.7,0.1-13.2-6.5-13.1-13.1c0.2-6.6,6.3-12.7,12.9-12.8
			C346.6,1172.9,353.2,1179.5,353,1186.2z"/>
		<path class="st0" d="M61.4,1356c-6.6-0.1-13.6-7-13.4-13.2c0.2-6.3,6.9-12.6,13.3-12.8c6.5-0.1,13.6,6.6,13.6,13
			C75,1349.3,68,1356.1,61.4,1356z"/>
		<path class="st0" d="M721.4,572c-7.7-1.1-13-5.4-13.2-13.3c-0.2-7.7,5.4-13.5,13.3-13.5c7.7,0.1,13,5.2,13.2,13.1
			C735,566,729.4,571.1,721.4,572z"/>
		<path class="st0" d="M373,373.1c-1.6,12.9-9,22.4-22.3,22.7c-12.6,0.3-22.5-10.1-22.5-22.8c0.1-12.9,10.2-23.1,22.6-22.7
			C364.5,350.7,371.5,360.6,373,373.1z"/>
		<path class="st0" d="M568,372.6c1.2-13,10.5-22.7,22.7-22.3c14.2,0.4,22.5,11.1,22,23.2c-0.6,14.1-10,22.4-22.3,22.4
			C577.1,395.7,568.5,384.6,568,372.6z"/>
		<path class="st0" d="M208.7,177c13.3,1.3,21.9,10.1,22,22.9c0,13.2-9.1,22.8-22.3,22.8c-13.2,0-22.5-11.2-22.1-23.2
			C186.6,186.6,196.5,177.8,208.7,177z"/>
		<path class="st0" d="M351,200.1c-1.6,12.9-9,22.4-22.3,22.7c-12.6,0.3-22.5-10.1-22.5-22.8c0-12.9,10.2-23.1,22.6-22.7
			C342.5,177.7,349.5,187.5,351,200.1z"/>
		<path class="st0" d="M406,968.8c-1.3,12-7.9,22.3-22,23c-12.1,0.6-22.5-9.4-22.8-22.6c-0.2-11.7,8.6-22.7,21.8-23
			C395.5,946,404.2,954.8,406,968.8z"/>
		<path class="st0" d="M263.6,946c13.1,1.3,21.9,9.8,22,22.9c0.1,13-8.9,22.8-22.3,22.9c-13.1,0.1-22.5-11-22.2-23.1
			C241.5,955.7,251.4,946.8,263.6,946z"/>
		<path class="st0" d="M1350,1086.3c0.2,8.5-7.8,17.1-16.4,16.6c-10.3-0.7-16.3-6.1-16.3-16.4c0-9.9,5.5-15.2,15.9-16.3
			C1341.5,1069.2,1349.8,1077.6,1350,1086.3z"/>
		<path class="st0" d="M1350,1302.6c-0.1,8.6-8.3,17.1-16.7,16.3c-10.2-1-15.3-6.1-16.2-16.2c-0.8-8.4,7.8-17.1,16.3-16.5
			C1343.8,1286.9,1348.7,1292.4,1350,1302.6z"/>
		<path class="st0" d="M1333.3,1178c8.5-0.2,17.1,7.8,16.6,16.4c-0.7,10.3-6.1,16.3-16.4,16.3c-9.9,0-15.2-5.5-16.3-15.9
			C1316.2,1186.5,1324.6,1178.2,1333.3,1178z"/>
		<path class="st0" d="M618.7,1053c13.5,1.4,22,10.3,21.9,23c0,13.4-9.4,22.9-22.4,22.8c-13.4-0.1-22.5-11.4-22.1-23.3
			C596.7,1062.4,606.7,1053.7,618.7,1053z"/>
		<path class="st0" d="M618.4,933c13.4,1.1,22.4,10.1,22.3,23.1c-0.1,13.1-8.9,22.4-22,22.6c-12.2,0.3-22.1-9.5-22.4-22.4
			C595.9,944.3,605.2,934,618.4,933z"/>
		<path class="st0" d="M1043,239.3c-1.1,10-5.9,16.4-16.4,16.4c-10.2,0.1-16.3-5.9-16.3-16.2c0-9.9,5.4-15.2,15.9-16.4
			C1034.4,222.2,1042.7,230.5,1043,239.3z"/>
		<path class="st0" d="M1043,454.3c0.2,8.5-7.9,17.1-16.5,16.5c-10.3-0.7-16.3-6.3-16.2-16.5c0.1-9.9,5.6-15.2,15.9-16.3
			C1034.5,437.3,1042.8,445.7,1043,454.3z"/>
		<path class="st0" d="M1043,347.5c-1.3,10.3-6.4,15.7-16.6,16.4c-8.6,0.5-17.1-8.2-16.2-16.6c1-10.3,6.2-15.3,16.3-16.1
			C1034.9,330.4,1043,338.9,1043,347.5z"/>
		<path class="st0" d="M653.5,1335c-12.9-1.4-22-8.9-22.2-22.3c-0.2-13,8.7-22.4,22.2-22.4c12.9,0,22,8.6,22.2,22
			C675.9,1325.3,667,1333.7,653.5,1335z"/>
		<path class="st0" d="M216,64.8c0.4,11.2-10.3,23.1-22.5,23c-12.5-0.1-22.8-8.4-23.3-22.6c-0.4-12.1,9.2-22.7,22.3-23
			C205.1,41.9,214.3,50.7,216,64.8z"/>
		<path class="st0" d="M313.2,88c-12.4-1.2-22.4-8.5-23-22.5c-0.6-12.2,9.3-23.2,22.5-23.3c13.1-0.1,23,9.3,22.9,22.8
			C335.5,78.3,327.5,86,313.2,88z"/>
		<path class="st0" d="M438.2,42c13.3,1.2,21.8,9.8,22.6,23c0.8,11.6-11.7,23.9-23.1,22.9c-13.6-1.2-22.4-10-22.6-22.9
			C415,52.1,425.6,42.6,438.2,42z"/>
		<path class="st0" d="M558.1,42c13.1,1.1,21.7,9.5,22.7,22.9c0.9,11.5-11.5,23.9-23,23c-13.3-1-22.4-9.6-22.7-22.7
			C535,52.4,545.3,42.6,558.1,42z"/>
		<path class="st0" d="M931.1,43c13.1,1.1,21.7,9.5,22.7,22.9c0.9,11.5-11.5,23.9-23,23c-13.4-1-22.4-9.7-22.7-22.8
			C908,53.4,918.4,43.6,931.1,43z"/>
		<path class="st0" d="M1051,43c13.6,1,23.1,10.3,22.7,23.2c-0.4,14.2-9.2,22.2-22.6,22.4c-12.9,0.2-22.4-8.9-22.8-22.4
			C1027.8,53.8,1038,43.7,1051,43z"/>
		<path class="st0" d="M803.2,92c-12.4-1.2-22.4-8.5-23-22.5c-0.6-12.2,9.3-23.2,22.5-23.3c13.1-0.1,23,9.3,22.9,22.8
			C825.5,82.3,817.4,90,803.2,92z"/>
		<path class="st0" d="M706,68.8c0.4,11.2-10.3,23.1-22.5,23c-12.5-0.1-22.8-8.4-23.3-22.6c-0.4-12.1,9.2-22.7,22.3-23
			C695.1,45.9,704.3,54.7,706,68.8z"/>
		<path class="st0" d="M1296,46c12.9,1,21.7,9.2,22.8,22.8c1,11.4-11.3,23.8-22.9,23.1c-13.2-0.9-22.4-9.4-22.8-22.7
			C1272.9,56.6,1283.2,46.7,1296,46z"/>
		<path class="st0" d="M1176,46c13.7,1,23.1,10.3,22.7,23.2c-0.4,14.2-9.2,22.3-22.6,22.4c-12.9,0.2-22.4-8.9-22.8-22.4
			C1152.8,56.7,1163,46.7,1176,46z"/>
		<path class="st0" d="M922.5,1213c-12.9-0.8-22.5-10.7-22.4-23.2c0.2-12.5,9.7-22.7,22.2-22.6c13.6,0.1,22.4,10.2,22.2,23
			C944.4,1203.5,935.5,1211.8,922.5,1213z"/>
		<path class="st0" d="M1065,1189.8c-1.4,12.2-8.1,22.3-22.1,22.9c-12.2,0.5-22.5-9.5-22.7-22.6c-0.2-11.9,8.7-22.7,21.9-22.9
			C1054.7,1167,1063.3,1176,1065,1189.8z"/>
		<path class="st0" d="M696.4,791c-13-1.4-22-9-22.1-22.3c-0.2-13.1,8.8-22.4,22.3-22.4c13,0,22,8.7,22.1,22
			C718.9,781.4,709.9,789.7,696.4,791z"/>
		<path class="st0" d="M839,768.3c-1.2,13.1-9.1,22.4-22.5,22.4c-13,0-22-8.7-22.1-22c-0.2-13.1,8.8-22.4,22.3-22.4
			C829.5,746.3,837.5,755,839,768.3z"/>
		<path class="st0" d="M1039.2,1053c-12.1-1.5-22.4-7.4-22.9-22.1c-0.4-12.9,8.7-22.4,22.5-22.7c12.3-0.2,22.5,7.7,22.9,21.8
			C1062.1,1043,1053.4,1051,1039.2,1053z"/>
		<path class="st0" d="M1038.8,933c-14.3-2.1-22.9-10.1-22.5-23c0.4-14.1,10.7-22,23-21.7c13.9,0.3,22.5,9.9,22.6,22.7
			C1061.9,922.8,1050,933.4,1038.8,933z"/>
		<path class="st0" d="M474.8,173c13.1,1.1,23,9,22.9,22.5c-0.1,13.5-9,21-22.5,22.3c-11.4,1.1-23.7-11-23-22.4
			C452.9,182.1,461.7,174.3,474.8,173z"/>
		<path class="st0" d="M618,195.7c-1.5,14-10.1,21.9-23,21.9c-13.5,0-22.9-8.7-22.7-22.3c0.2-14.1,10.8-22.4,23.2-22
			C609.2,173.7,616.9,182.9,618,195.7z"/>
		<path class="st0" d="M90,190.7c-1.5,13.9-10.1,21.9-23,21.9c-13.5,0-22.9-8.7-22.7-22.3c0.2-14.1,10.8-22.4,23.2-22
			C81.2,168.7,88.9,177.9,90,190.7z"/>
		<path class="st0" d="M90,70.7c-1.5,14-10.2,21.9-23,21.9c-13.6-0.1-22.9-8.8-22.7-22.4c0.2-14.2,10.8-22.4,23.2-22
			C81.3,48.8,88.9,57.9,90,70.7z"/>
		<path class="st0" d="M815,1188.5c-1.4,13.6-9.8,22.4-22.7,22.2c-13.6-0.3-22-9.4-22-22.2c0-13.6,9.5-22.4,22.4-22.2
			C806.3,1166.6,813.7,1175.7,815,1188.5z"/>
		<path class="st0" d="M815,1308.5c-1.3,13.5-9.7,22.4-22.7,22.2c-13.4-0.2-22-9.3-22-22.2c0-13.5,9.4-22.4,22.4-22.2
			C806.2,1286.5,813.6,1295.6,815,1308.5z"/>
		<path class="st0" d="M75,1065c13.4,1.2,23,9.5,22.7,22.7c-0.3,14-9.9,21.9-22.7,21.9c-12.8,0-22.4-7.9-22.7-21.9
			C52,1074.5,61.6,1066.2,75,1065z"/>
		<path class="st0" d="M218,1087.5c-1.3,13.4-9.2,21-22.8,22.3c-11.4,1.1-23.7-10.9-23.1-22.4c0.8-13.3,9.5-22,22.7-22.2
			C207.8,1065.1,216.8,1073.9,218,1087.5z"/>
		<path class="st0" d="M350,1088.5c-1.4,13.6-9.8,22.4-22.7,22.2c-13.5-0.2-22-9.4-22-22.2c0-13.6,9.5-22.4,22.4-22.2
			C341.3,1066.5,348.6,1075.7,350,1088.5z"/>
		<path class="st0" d="M447.5,1066c12.9,1.4,22,8.8,22.2,22.3c0.2,13-8.7,22.4-22.2,22.4c-13.6,0-22.4-9.6-22.2-22.5
			C425.6,1074.6,434.8,1067.3,447.5,1066z"/>
		<path class="st0" d="M1082,1318.4c0.2,11.4-11.6,23.5-23.1,22.5c-13.3-1.2-22.5-8.6-22.6-22.2c-0.1-13,8.8-22,22.3-22.3
			C1071.3,1295.9,1080.7,1304.5,1082,1318.4z"/>
		<path class="st0" d="M1193,1136.3c-1.2,13.1-9.1,22.4-22.5,22.4c-12.9,0-22-8.6-22.1-22c-0.2-13.1,8.8-22.4,22.2-22.4
			C1183.5,1114.3,1191.5,1122.9,1193,1136.3z"/>
		<path class="st0" d="M926,205.9c-1.4,12.3-8.2,22.3-22.1,22.9c-12.3,0.5-22.5-9.6-22.7-22.6c-0.1-11.9,8.8-22.7,21.9-22.9
			C915.8,183,924.3,192.1,926,205.9z"/>
		<path class="st0" d="M1193,1286.5c-1.3,13.5-9.7,22.4-22.7,22.2c-13.5-0.2-22-9.3-22-22.2c0-13.5,9.4-22.4,22.4-22.2
			C1184.2,1264.5,1191.6,1273.6,1193,1286.5z"/>
		<path class="st0" d="M909.2,1296c13.2,1.4,21.9,9.2,22.7,22.4c0.7,11.5-11.7,23.5-23.1,22.4c-13.6-1.3-22.5-8.9-22.5-22.3
			C886.2,1304.9,896.2,1297,909.2,1296z"/>
		<path class="st0" d="M926,356c-1.6,12.8-8.9,22.4-22.3,22.7c-12.6,0.3-22.5-10.1-22.5-22.8c0-12.9,10.2-23.1,22.6-22.7
			C917.4,333.7,924.5,343.5,926,356z"/>
		<path d="M1077,627.2c-0.5,19.8-16.1,35.8-36.2,35.7c-19.8-0.1-35.8-16-35.7-36.1c0.1-19.8,16-35.8,36.1-35.7
			C1061,591.2,1076.7,607.1,1077,627.2z M1064,627c-1.4-12.9-9.2-22.4-22.7-22.8c-12.5-0.4-23.2,9.8-23.1,22.8
			c0.2,13.6,10.1,23.1,23,22.7C1055.3,649.2,1062.2,640.5,1064,627z"/>
		<path d="M1076.8,741.4c0,23.9,0,47.5,0,71.4c-23.8,0-47.4,0-71.4,0c0-23.6,0-47.3,0-71.4C1029,741.4,1052.7,741.4,1076.8,741.4z
			 M1064,776.8c-1.6-13.9-10.7-22.8-23.4-22.6c-13,0.2-22.7,10.7-22.4,22.9c0.4,14,10.7,23.1,23.2,22.5
			C1056.2,798.9,1062.4,789.6,1064,776.8z"/>
		<path d="M44.2,985.6c0-23.9,0-47.5,0-71.3c23.9,0,47.6,0,71.6,0c0,23.8,0,47.4,0,71.3C92.1,985.6,68.4,985.6,44.2,985.6z
			 M79.8,927c-12.7,0.8-22.7,10.3-22.6,22.9c0.1,13.5,9.9,23.1,22.9,22.7c13.9-0.3,22.3-8.9,22.5-22.6
			C102.9,936.8,93.2,927.9,79.8,927z"/>
		<path d="M79.8,866C60,865.5,44,849.9,44.1,829.8c0.1-19.8,16-35.8,36.1-35.7c19.8,0.1,35.8,16,35.7,36.1
			C115.8,850,99.9,865.7,79.8,866z M79.8,853c11.2,0.4,23.1-10.3,23-22.5c-0.1-12.5-8.4-22.8-22.6-23.3c-12.1-0.4-22.7,9.2-23,22.3
			C56.9,842.1,65.7,851.3,79.8,853z"/>
		<path d="M115.8,646.4c0,23.9,0,47.5,0,71.4c-23.8,0-47.4,0-71.4,0c0-23.6,0-47.3,0-71.4C68,646.4,91.7,646.4,115.8,646.4z
			 M102,681.5c-1.4-12.9-8.9-22-22.3-22.1c-13.1-0.2-22.4,8.8-22.4,22.2c0,12.9,8.6,22,22,22.2C92.4,703.9,100.7,694.9,102,681.5z"
			/>
		<path d="M116,562.2c-0.5,19.8-16.1,35.8-36.2,35.7c-19.8-0.1-35.8-16-35.7-36.1c0.1-19.8,16-35.8,36.1-35.7
			C99.9,526.2,115.7,542.1,116,562.2z M102,561.7c-1.2-13.1-9.1-22.4-22.6-22.4c-13,0-22,8.7-22.1,22c-0.2,13.1,8.8,22.4,22.3,22.4
			C92.5,583.7,100.5,575,102,561.7z"/>
		<path class="st0" d="M1064,627c-1.7,13.4-8.6,22.2-22.8,22.6c-12.9,0.4-22.8-9-23-22.7c-0.1-12.9,10.6-23.1,23.1-22.8
			C1054.8,604.6,1062.6,614.1,1064,627z"/>
		<path class="st0" d="M1064,776.8c-1.6,12.7-7.7,22.1-22.6,22.8c-12.5,0.6-22.8-8.5-23.2-22.5c-0.3-12.2,9.4-22.7,22.4-22.9
			C1053.3,754,1062.4,762.9,1064,776.8z"/>
		<path class="st0" d="M79.8,927c13.4,0.9,23,9.8,22.8,23.1c-0.2,13.7-8.6,22.2-22.5,22.6c-13.1,0.3-22.8-9.2-22.9-22.7
			C57.1,937.3,67.2,927.8,79.8,927z"/>
		<path class="st0" d="M79.8,853c-14-1.7-22.8-10.9-22.6-23.5c0.3-13.1,10.9-22.7,23-22.3c14.1,0.4,22.5,10.8,22.6,23.3
			C102.8,842.7,91,853.4,79.8,853z"/>
		<path class="st0" d="M102,681.5c-1.3,13.5-9.6,22.4-22.7,22.2c-13.4-0.2-22-9.2-22-22.2c0-13.5,9.3-22.4,22.4-22.2
			C93.1,659.5,100.6,668.5,102,681.5z"/>
		<path class="st0" d="M102,561.7c-1.5,13.3-9.5,22-22.4,22c-13.4,0-22.4-9.3-22.3-22.4c0.2-13.4,9.2-22,22.1-22
			C92.9,539.3,100.8,548.6,102,561.7z"/>
	</g>
</g>
</svg>
