<?xml version="1.0" encoding="utf-8"?>
<!-- Generator: Adobe Illustrator 17.0.0, SVG Export Plug-In . SVG Version: 6.00 Build 0)  -->
<!DOCTYPE svg PUBLIC "-//W3C//DTD SVG 1.1//EN" "http://www.w3.org/Graphics/SVG/1.1/DTD/svg11.dtd">
<svg version="1.1"
	 id="dip8" xmlns:dc="http://purl.org/dc/elements/1.1/" xmlns:cc="http://creativecommons.org/ns#" xmlns:rdf="http://www.w3.org/1999/02/22-rdf-syntax-ns#" xmlns:inkscape="http://www.inkscape.org/namespaces/inkscape" xmlns:sodipodi="http://sodipodi.sourceforge.net/DTD/sodipodi-0.dtd" xmlns:svg="http://www.w3.org/2000/svg" sodipodi:docname="build.svg" inkscape:version="0.48.4 r9939"
	 xmlns="http://www.w3.org/2000/svg" xmlns:xlink="http://www.w3.org/1999/xlink" x="0px" y="0px" width="1422px" height="1393px"
	 viewBox="0 0 1422 1393" enable-background="new 0 0 1422 1393" xml:space="preserve">
<g id="Capacitors">
	<path id="_1000pF" fill="#FF0606" d="M319.5,443H623c0,0,59.5-11,61.5-72s-56-60-56-60l-20-15h-285l-45,25l16,48.5l-33,33.5
		C261.5,403,266.5,431,319.5,443z"/>
	<path id="_47pF" fill="#FF0606" d="M505.5,1294.5c0-34.5-34.6-44.9-34.6-44.9c168.6-24.6,241.1,0,241.1,0l17.2,11.4v98l-22.7,23
		H479.1c-20-18.9-38.5-48.8-20.6-54C479.1,1322,505.5,1294.5,505.5,1294.5z M678.5,1136c0,0,13-35,12-41s0.1-178,0.1-178
		s-21.1-56-71.1-58s-74,55-74,55v189l6.5,33H678.5z"/>
	<path id="_39pF" fill="#F40000" d="M145.5,131.5c0,0-73,63.5,0,136.5h78c0,0,19-6,29-4s21,4,21,4h91c0,0,58-13.5,59-68.3
		s-51-68.3-54-68.3S145.5,131.5,145.5,131.5z"/>
	<path id="_10pF" fill="#FF0606" d="M196.5,1021.9c0,0-30-16.9-28-56.9s46-66,46-66h209c0,0,50,13.9,55,61.5s-25,61.5-25,61.5h-257
		V1021.9z"/>
</g>
<g id="Resistors">
	<path id="_150k" fill="#24BA00" d="M18.5,499h124v243h-124V499z"/>
	<path id="_82k" fill="#24BA00" d="M129,131.5h247V9.4L129,8.5V131.5z"/>
	<path id="_68k" fill="#24BA00" d="M654.5,252.7V138h-239l-3,8c0,0,15,48.6,15,53.8c0,4.4-11,43.6-9,52.9L654.5,252.7L654.5,252.7z"
		/>
	<path id="_47k" fill="#24BA00" d="M505.5,1027v103h-37l-7,17h-192v-120H505.5z"/>
	<path id="_22k" fill="#24BA00" d="M376,131.5h247V8.9L376,8V131.5z"/>
	<path id="_3k-5k" fill="#24BA00" d="M869.9,131.5h247V10.9l-247-0.9V131.5z"/>
	<path id="_3k" fill="#24BA00" d="M623,131.5h246.9V9.4L623,8.5V131.5z"/>
	<path id="_1k" fill="#24BA00" d="M9.5,767.8h137.2v245.5H9.5V767.8z M470.9,1249.6c143.9-27.3,241.1,0,241.1,0V1142H470.9V1249.6z
		 M878.5,831.5V707.2H637.6v124.2L878.5,831.5L878.5,831.5z"/>
	<path id="_800r" fill="#24BA00" d="M860.6,1130H1103v119.6H860.6V1130z"/>
	<path id="_100r" fill="#24BA00" d="M9.5,252.7H129c0,0-43.7-39.6,0-108.1V9H19.1H9.5V252.7z"/>
	<path id="_56r" fill="#24BA00" d="M9.5,1021.2l253.8,1v130.5H9.5V1021.2z M971.6,843.6V1106H1102l1-262.3L971.6,843.6L971.6,843.6z
		"/>
	<path id="_5r6" fill="#24BA00" d="M1116.9,9.5l247,0.9v121h-247V9.5z M733.2,1369h122.3v-239H733.2V1369z"/>
</g>
<g id="Transistors">
	<path id="_BC550" fill="#FFF933" d="M229.5,468h-15.8l-7.9-11L183,443l-16,11l-17.7,12l-25.7,22L86,453l-17.1-24l-19.5,14l-12.9-19
		v-12l19.9-12l5.8-21c0,0-12.9-7,8.7-53s78.4-54,78.4-54l59.4,3l37.6-7c0,0,15.2-1.8,20.8,8c5.6,9.8-7.4,24-7.4,24l28.8,65.5
		c0,0-35.2,34.5-52,41.5s5.9,56,5.9,56L229.5,468z M628.5,307l22,2l34.1,21l3.9,39.5l-3.9,33.5l45.6,12l16.3,18h14l14-13l1-22
		c0,0,66-38,65-102s-67-106-67-106v-10v-20h-35v24h-20l-50,11.4v72.5c0,0-28,10.1-35,10.1s-16,18-16,18L628.5,307z M347.5,710.5
		l23-3l27.1,21l-0.1,39.5l0.1,33.5l52.6,12l16.3,18h14l14-13l1-22c0,0,63-38,62-102s-64-106-64-106v-10v-20h-35v24h-20l-50,11.3
		v72.5c0,0-30,7.1-37,7.1s-14,21-14,21L347.5,710.5z M41.5,1307l6,22l-5,18l19,16l14-8.6l27-1.4c27,6,86-7,112-35s29-82,29-82
		l-3-27.7l24-18.5l-6-9.8l-19-20l-16,15l-18-22.3h-63l-7,6.3l-22,16l-33-16h-20l-7,11l15,47l-50,47L41.5,1307z M244.9,1284.7l-6,22
		l-13.4,13l8.3,23.4l16.4-0.3l24,12.4c20.2,18.8,77.7,37.5,114.3,26.6c36.6-11,66.5-56,66.5-56l11.4-25.4l30.1-3.8l-0.2-11.5
		l-10.3-23.9l-17.4,1.8l-4.2-28.3l-17.3-41.9l-46.2,11.9l-27.1,2.7l-20.3-30.5l-17.2-10.1l-11.6,5.9l-10.9,48.1l-66.9,15.2
		L244.9,1284.7z"/>
	<path id="_BC560" fill="#FFF933" d="M840.5,697l-18-20l-74-17v-69l-15.3-20l-14.7,6l-15-16l7.5-21h22.2h17.3v-36l2-48l50-13h19
		l1-21h33l5.1,29c0,0,69.9,53,60.9,113l-12,42C909.5,606,862.5,686.8,840.5,697z M929.5,1030.5l12-42c9-60-60.9-113-60.9-113
		l-5.1-29h-33l-1,21h-19l-50,13l-2,48v36h-17.3H731l-7.5,21l15,16l14.7-6l15.3,20v69l74,17l18,20
		C882.5,1111.3,929.5,1030.5,929.5,1030.5z"/>
	<path id="_BD139" fill="#FFF933" d="M952.5,535h155V160h-155v283l6,38l-6,26"/>
	<path id="_BD140" fill="#FFF933" d="M1416.5,1382v-377h-57l-7,11h-94v366H1416.5z"/>
</g>
<path id="_1N4148" fill="#00E0E5" d="M860.6,1382v-125h235.9h11v-164h122v238h-122v51H860.6z M981.8,581H1103v241H981.8V581z
	 M948.5,160h-108v98l7,51l-7,38.5V397h108V160z"/>
</svg>
