<?xml version="1.0" encoding="utf-8"?>
<!-- Generator: Adobe Illustrator 16.0.0, SVG Export Plug-In . SVG Version: 6.00 Build 0)  -->
<!DOCTYPE svg PUBLIC "-//W3C//DTD SVG 1.1//EN" "http://www.w3.org/Graphics/SVG/1.1/DTD/svg11.dtd">
<svg version="1.1" id="Parts" xmlns="http://www.w3.org/2000/svg" xmlns:xlink="http://www.w3.org/1999/xlink" x="0px" y="0px"
	 width="3113px" height="1599px" viewBox="0 0 3113 1599" enable-background="new 0 0 3113 1599" xml:space="preserve">
<g id="Transistors">
	<rect id="_NTE128" x="2886.89" y="533.84" fill="#FF0000" width="140.19" height="134.74"/>
	<rect id="_NTE129" x="2901.75" y="963.92" fill="#FF0000" width="146.82" height="142.4"/>
	<rect id="_J201" x="1725.5" y="612.13" fill="#FF0000" width="100" height="106.25"/>
	<g id="_BC560">
		<rect x="1506.75" y="655.88" fill="#FF0000" width="243.75" height="103.12"/>
		<rect x="1844.25" y="590.25" fill="#FF0000" width="134.38" height="115.63"/>
		<rect x="1622.37" y="249.63" fill="#FF0000" width="121.88" height="93.75"/>
	</g>
	<g id="_BC550">
		<rect x="460.43" y="1181.82" fill="#FF0000" width="99.32" height="94.856"/>
		<rect x="1588" y="580.88" fill="#FF0000" width="112.5" height="78.12"/>
		<rect x="2031.75" y="618.38" fill="#FF0000" width="118.75" height="106.25"/>
		<rect x="1500.5" y="746.5" fill="#FF0000" width="240.63" height="118.75"/>
	</g>
</g>
<g id="ICs">
	<rect id="_NTE929" x="448.98" y="787.6" fill="#FF0000" width="143.93" height="339.41"/>
	<g id="_TL082">
		<rect x="2489.86" y="988.73" fill="#FF0000" width="148.33" height="188.47"/>
		<rect x="729.77" y="55.82" fill="#FF0000" width="149.24" height="217.18"/>
	</g>
	<rect id="_TL071" x="1142.71" y="904.3" fill="#FF0000" width="148.21" height="170"/>
	<rect id="_LM337" x="1309.52" y="1444.05" fill="#FF0000" width="159" height="66.5"/>
	<rect id="_LM317" x="1053" y="1451" fill="#FF0000" width="159" height="66.5"/>
	<g id="_LM301">
		<rect x="204.5" y="808.08" fill="#FF0000" width="148.15" height="183.76"/>
		<rect x="626.24" y="796.86" fill="#FF0000" width="143.646" height="196.979"/>
		<rect x="2385.47" y="83.15" fill="#FF0000" width="178.03" height="166.85"/>
	</g>
	<rect id="_4558" x="967.54" y="538.57" fill="#FF0000" width="169.33" height="180.68"/>
</g>
<g id="Diodes">
	<g id="_1N4148">
		<rect x="1897.37" y="434" fill="#FF0000" width="259.38" height="81.25"/>
		<rect x="2845.09" y="719.75" fill="#FF0000" width="163.74" height="33.65"/>
		<rect x="2845.09" y="781.59" fill="#FF0000" width="163.74" height="33.65"/>
		<rect x="2845.09" y="834.32" fill="#FF0000" width="163.74" height="33.646"/>
		<rect x="2845.09" y="894.89" fill="#FF0000" width="163.74" height="33.65"/>
		<rect x="791.5" y="534.84" fill="#FF0000" width="169.71" height="36.01"/>
		<polygon fill="#FF0000" points="972.43,574.21 972.43,610.22 802.72,610.22 802.72,574.21 972.439,574.21 		"/>
		<polygon fill="#FF0000" points="967.88,616.43 967.87,652.44 798.16,652.44 798.16,616.43 		"/>
		<rect x="915.53" y="485.73" fill="#FF0000" width="169.71" height="36.01"/>
		<rect x="917.12" y="445.22" fill="#FF0000" width="169.71" height="36.014"/>
		<rect x="895.25" y="404.37" fill="#FF0000" width="169.71" height="36.01"/>
		<polygon fill="#FF0000" points="1065.59,363.85 1065.58,399.86 895.87,399.86 895.87,363.85 		"/>
	</g>
	<g id="_1N4007">
		<rect x="197" y="1292" fill="#FF0000" width="226.1" height="40.35"/>
		<rect x="192.65" y="1329.42" fill="#FF0000" width="226.1" height="40.35"/>
		<rect x="188.24" y="1429.82" fill="#FF0000" width="226.1" height="40.35"/>
		<rect x="190.83" y="1471.86" fill="#FF0000" width="226.1" height="40.35"/>
		<rect x="1246.34" y="1292" fill="#FF0000" width="202.66" height="57.6"/>
		<rect x="1034" y="1312.18" fill="#FF0000" width="212.34" height="45.82"/>
		<rect x="1628.51" y="1212.21" fill="#FF0000" width="36.67" height="199.79"/>
		<rect x="1698" y="1217.9" fill="#FF0000" width="36.189" height="190.1"/>
	</g>
</g>
<g id="Trimmers">
	<path id="_5K_Trimmer" fill="#3399CC" d="M1172,1257h-121v-123h121V1257z M1406.71,1134.64h-121v123h121V1134.64z"/>
	<path id="_50K_Trimmer" fill="#3399CC" d="M1753.63,265.25h150v90.63h-150V265.25z M1580,1059h-127.5v124.5H1580V1059z
		 M1722.21,1183.5h-127.5V1059h127.5V1183.5z M1869.27,1183.5h-127.5V1059h127.5V1183.5z M2027.67,1183.5h-127.5V1059h127.5V1183.5z
		 M1429.58,1098.03h-127.5v-124.5h127.5V1098.03z M574.82,653.89h-127.5v-124.5h127.5V653.89z M413.56,653.66h-127.5v-124.5h127.5
		V653.66z M1053.5,336.2H925.19V210.51h128.31V336.2z"/>
	<rect id="_500K_Trimmer" x="90.61" y="527.61" fill="#3399CC" width="126.81" height="129.81"/>
</g>
<g id="Capacitors">
	<g id="Electrolytic">
		<rect id="_1uF_50v" x="2592.75" y="546.87" fill="#FF9900" width="124.24" height="108.05"/>
		<rect id="_4.7uF_25v" x="2131.02" y="274" fill="#FF9900" width="450.98" height="126"/>
		<path id="_10uF_25v" fill="#FF9900" d="M1589.45,1430.811h-93.5v-86.869h93.5V1430.811z M1582.95,1241.64h-93.5v86.87h93.5
			V1241.64z M1270,1219.35h-93.5v86.87h93.5V1219.35z M1269.49,1125.34h-93.5v86.87h93.5V1125.34z"/>
		<path id="_1000uF_50v" fill="#FF9900" d="M633.24,1559.97H383.55V1294.5h249.69V1559.97z M929.9,1296.97H680.21v265.47H929.9
			V1296.97z"/>
		<path id="_22uF_16v" fill="#FF9900" d="M2955.08,1212.21h-90.561V1108.98h90.561V1212.21z M2709.561,677.59H2592v83.91h117.561
			V677.59z M2810.23,514H2934v-83.52h-123.77V514z M2441.13,962.13h-125v84.38h125V962.13z"/>
	</g>
	<g id="Tantalum">
		<rect id="_22uf" x="872.18" y="857.21" fill="#FF0000" width="138.894" height="94.79"/>
	</g>
	<g id="Film">
		<rect id="_0.47uF" x="2027.67" y="1059" fill="#FF0000" width="284.33" height="124.5"/>
		<rect id="_1.8uF" x="1166.55" y="193.58" fill="#FF0000" width="438.45" height="158.42"/>
		<rect id="_0.33uF" x="287.57" y="389" fill="#FF0000" width="272.42" height="123"/>
		<rect id="_0.01uF" x="1111" y="415.85" fill="#FF0000" width="273" height="119.15"/>
		<g id="_100nF">
			<rect x="1505.37" y="1453.49" fill="#FF0000" width="156.3" height="79.106"/>
			<rect x="633.24" y="1411.25" fill="#FF0000" width="47.68" height="177.76"/>
			<rect x="927.09" y="1277.96" fill="#FF0000" width="62.91" height="178.021"/>
			<rect x="1045.439" y="1366.97" fill="#FF0000" width="158.868" height="56.03"/>
			<rect x="1271.061" y="1349.66" fill="#FF0000" width="164.399" height="61.59"/>
			<rect x="1730.89" y="1261.2" fill="#FF0000" width="59.4" height="144.816"/>
		</g>
		<g id="_1nF">
			<rect x="791.46" y="971.41" fill="#FF0000" width="50.34" height="205.79"/>
			<rect x="185.77" y="202.56" fill="#FF0000" width="66.2" height="150.8"/>
			<rect x="109.13" y="202.56" fill="#FF0000" width="66.2" height="150.8"/>
			<rect x="2608.17" y="476.97" fill="#FF0000" width="153.62" height="59.33"/>
			<rect x="2608.17" y="794.86" fill="#FF0000" width="49.89" height="158.68"/>
			<rect x="507.16" y="147.5" fill="#FF0000" width="172.76" height="55.06"/>
			<rect x="507.16" y="213.31" fill="#FF0000" width="164.479" height="61.42"/>
		</g>
	</g>
	<g id="Electrolytic">
		<g id="_1000uF_50v">
			<rect x="383.55" y="1294.5" fill="#FF0000" width="249.69" height="265.47"/>
			<rect x="680.21" y="1296.97" fill="#FF0000" width="249.69" height="265.47"/>
		</g>
		<g id="_22uF_16v">
			<rect x="2864.52" y="1108.98" fill="#FF0000" width="90.563" height="103.229"/>
			<rect x="2592" y="677.59" fill="#FF0000" width="117.561" height="83.91"/>
			<rect x="2810.23" y="430.48" fill="#FF0000" width="123.77" height="83.52"/>
			<rect x="2316.13" y="962.13" fill="#FF0000" width="125" height="84.38"/>
		</g>
		<g id="_10uF_25v">
			<rect x="1495.95" y="1343.939" fill="#FF0000" width="93.5" height="86.868"/>
			<rect x="1489.45" y="1241.64" fill="#FF0000" width="93.5" height="86.87"/>
			<rect x="1176.5" y="1219.35" fill="#FF0000" width="93.5" height="86.87"/>
			<rect x="1175.99" y="1125.34" fill="#FF0000" width="93.5" height="86.87"/>
		</g>
		<rect id="_4.7uF_25v" x="2131.02" y="274" fill="#FF0000" width="450.98" height="126"/>
		<rect id="_1uF_50v" x="2592.75" y="546.87" fill="#FF0000" width="124.24" height="108.05"/>
	</g>
	<g id="Ceramic">
		<rect id="_560pF" x="1972.38" y="755.88" fill="#FF9900" width="200" height="78.13"/>
		<path id="_150pF" fill="#FF9900" d="M3008.83,430.48H2842V379.46h166.83V430.48z M592.91,732.14H440.4v55.46h152.51V732.14z"/>
		<path id="_100pF" fill="#FF9900" d="M961.21,799.5h-48.35V662.35h48.35V799.5z M2811.45,379.46h237.12v-77.35h-237.121
			L2811.45,379.46L2811.45,379.46z"/>
		<rect id="_22pF" x="2325.72" y="1051.4" fill="#FF9900" width="59.75" height="153.05"/>
		<rect id="_15pF" x="621.51" y="1001.54" fill="#FF9900" width="150.41" height="56.42"/>
		<path id="_10pF" fill="#FF9900" d="M458.14,725.24H298.79v-52.67h159.35V725.24z M2631.311,106.47h-59.75v120.69h59.75V106.47z
			 M2385.47,106.47h-59.75v120.69h59.75V106.47z"/>
		<rect id="_5pF" x="204.5" y="1001.54" fill="#FF9900" width="150.41" height="56.42"/>
	</g>
</g>
<g id="Resistors">
	<g id="_22M">
		<polygon fill="#FF0000" points="287.56,1214.061 63.1,1214.061 63.1,1261.2 287.57,1261.2 		"/>
		<rect x="791.5" y="725.24" fill="#FF0000" width="52.75" height="203.3"/>
	</g>
	<rect id="_1M29" x="1790.29" y="1216.38" fill="#FF0000" width="213.85" height="63.62"/>
	<g id="_1M5">
		<rect x="592.91" y="350.13" fill="#FF0000" width="49.3" height="190.87"/>
		<rect x="1790.29" y="1280" fill="#FF0000" width="216.71" height="44.35"/>
	</g>
	<g id="_909K">
		<rect x="690.5" y="335" fill="#FF0000" width="209.5" height="53.5"/>
		<rect x="90.61" y="487.93" fill="#FF0000" width="190.98" height="39.684"/>
	</g>
	<rect id="_523K" x="1647" y="188.31" fill="#FF0000" width="227.64" height="61.69"/>
	<rect id="_390K" x="642.21" y="350.13" fill="#FF0000" width="48.12" height="186.86"/>
	<rect id="_300K" x="1927.05" y="335" fill="#FF0000" width="203.96" height="65"/>
	<rect id="_200K" x="2247" y="1294.5" fill="#FF0000" width="210.79" height="59.7"/>
	<g id="_100K">
		<rect x="2385.47" y="1026.38" fill="#FF0000" width="87.42" height="178.07"/>
		<rect x="1906.75" y="249.63" fill="#FF0000" width="212.5" height="81.25"/>
		<rect x="1063.4" y="855.21" fill="#FF0000" width="59.33" height="203.79"/>
		<polygon fill="#FF0000" points="1317.82,846.03 1110.26,846.03 1110.26,902.33 1317.82,902.33 		"/>
		<rect x="1411.39" y="778.04" fill="#FF0000" width="52.591" height="194.38"/>
		<rect x="375" y="874.18" fill="#FF0000" width="48.11" height="200.82"/>
		<rect x="569.2" y="672.04" fill="#FF0000" width="200.01" height="60.1"/>
		<rect x="2475.02" y="1224" fill="#FF0000" width="197.961" height="70.5"/>
		<rect x="2802.26" y="513.74" fill="#FF0000" width="58.42" height="211.5"/>
		<rect x="1214.04" y="358.94" fill="#FF0000" width="206.149" height="52.08"/>
	</g>
	<rect id="_90K9" x="2063.08" y="1204.45" fill="#FF0000" width="197.54" height="60.81"/>
	<rect id="_24K9" x="1136.87" y="623.96" fill="#FF0000" width="195.5" height="95.29"/>
	<rect id="_23K2" x="592.91" y="550.38" fill="#FF0000" width="203.75" height="46.12"/>
	<g id="_22K1">
		<rect x="2608.17" y="342.24" fill="#FF0000" width="222.13" height="61.1"/>
		<rect x="2622.96" y="131.48" fill="#FF0000" width="222.13" height="61.1"/>
	</g>
	<g id="_20K">
		<polygon fill="#FF0000" points="490.34,208.29 490.34,251.4 276.11,251.4 276.11,208.29 		"/>
		<rect x="2242.63" y="1354.2" fill="#FF0000" width="215.16" height="70.91"/>
		<rect x="278.58" y="150.09" fill="#FF0000" width="214.229" height="43.11"/>
	</g>
	<g id="_10K">
		<rect x="1399.62" y="355.99" fill="#FF0000" width="55.16" height="189.16"/>
		<rect x="2817.09" y="235.07" fill="#FF0000" width="209.99" height="62.01"/>
		<rect x="2808.11" y="165.49" fill="#FF0000" width="209.989" height="62.01"/>
		<rect x="2078.8" y="181.52" fill="#FF0000" width="222.12" height="61.14"/>
		<rect x="877.91" y="76.02" fill="#FF0000" width="207.43" height="53.81"/>
		<rect x="267.36" y="320.68" fill="#FF0000" width="225.16" height="49.32"/>
		<rect x="267.36" y="263.68" fill="#FF0000" width="225.16" height="49.32"/>
		<rect x="1115.84" y="799.5" fill="#FF0000" width="211" height="46.44"/>
	</g>
	<rect id="_7K5" x="1111.72" y="188.31" fill="#FF0000" width="45.15" height="202.69"/>
	<rect id="_6K04" x="54.63" y="697" fill="#FF0000" width="46.33" height="207.29"/>
	<g id="_5K6">
		<rect x="2811.451" y="1040.75" fill="#FF0000" width="53.068" height="213.25"/>
		<rect x="2781.39" y="735.95" fill="#FF0000" width="60.11" height="206.54"/>
	</g>
	<rect id="_5K49" x="690.5" y="272.79" fill="#FF0000" width="212.32" height="62.21"/>
	<g id="_4K7">
		<rect x="1828.63" y="834" fill="#FF0000" width="187.5" height="40.63"/>
		<rect x="61" y="931.86" fill="#FF0000" width="48.13" height="193.14"/>
		<polygon fill="#FF0000" points="1115.84,855.21 912.86,855.21 912.86,799.5 1115.839,799.5 1115.839,855.21 		"/>
		<rect x="2715" y="1048.05" fill="#FF0000" width="46.79" height="205.95"/>
		<rect x="2655.67" y="1008.5" fill="#FF0000" width="46.79" height="205.95"/>
		<polygon fill="#FF0000" points="1085.34,129.83 1085.34,185.26 885.4,185.26 885.4,129.83 		"/>
	</g>
	<rect id="_3K3_or_10K" x="1359.5" y="749.4" fill="#FF0000" width="55.42" height="209.1"/>
	<rect id="_3K02" x="121.46" y="853.95" fill="#FF0000" width="66.78" height="213.01"/>
	<g id="_2K4">
		<rect x="2597.46" y="227.5" fill="#FF0000" width="198.649" height="51.4"/>
		<rect x="1058" y="188.31" fill="#FF0000" width="53.72" height="202.69"/>
	</g>
	<g id="_2K2">
		<polygon fill="#FF0000" points="2605.64,409.31 2827.77,409.31 2827.77,466.31 2605.641,466.31 		"/>
		<rect x="2609.46" y="278.9" fill="#FF0000" width="222.13" height="57"/>
		<polygon fill="#FF0000" points="487.34,93.97 278.58,93.97 278.58,150.09 487.33,150.09 		"/>
		<polygon fill="#FF0000" points="697.33,83.15 488.58,83.15 488.58,139.27 697.33,139.27 		"/>
		<rect x="2711.35" y="963.92" fill="#FF0000" width="190.4" height="50.62"/>
		<rect x="2761.79" y="1048.061" fill="#FF0000" width="49.66" height="205.939"/>
		<rect x="1491.12" y="480.88" fill="#FF0000" width="40.63" height="190.62"/>
	</g>
	<g id="_1K5">
		<rect x="1012.07" y="855.21" fill="#FF0000" width="51.33" height="211.75"/>
		<rect x="1348.51" y="533.84" fill="#FF0000" width="51.11" height="204.68"/>
		<rect x="592.91" y="602.5" fill="#FF0000" width="203.45" height="51.45"/>
	</g>
	<g id="_1K">
		<rect x="492.52" y="295.22" fill="#FF0000" width="201.553" height="54.91"/>
		<rect x="690.5" y="388.5" fill="#FF0000" width="205.5" height="53.38"/>
		<rect x="2247" y="1229" fill="#FF0000" width="196.98" height="65.5"/>
		<rect x="633.24" y="1212.21" fill="#FF0000" width="212.607" height="48.99"/>
		<rect x="1731.75" y="968.38" fill="#FF0000" width="196.88" height="65.62"/>
	</g>
	<rect id="_470R" x="1450.5" y="349.63" fill="#FF0000" width="196.88" height="68.75"/>
	<g id="_390R">
		<rect x="2022.37" y="837.13" fill="#FF0000" width="196.88" height="43.75"/>
		<rect x="1747.38" y="712.13" fill="#FF0000" width="200" height="43.75"/>
	</g>
	<rect id="_270R" x="1414.92" y="550.38" fill="#FF0000" width="49.38" height="199.021"/>
	<rect id="_220R" x="1978.63" y="880.88" fill="#FF0000" width="200" height="43.75"/>
	<path id="_200R" stroke="#FFFFFF" stroke-miterlimit="10" d="M1134.88,534h206.25v87.5h-206.25V534z M1125.5,709H1338v81.25h-212.5
		V709z"/>
	<path id="_120R" stroke="#FFFFFF" stroke-miterlimit="10" d="M1448.561,1237.63h42.529v213.87h-42.529V1237.63z M990,1204.45
		h55.061v205.729H990V1204.45z"/>
	<g id="_100R">
		<rect x="2747.189" y="513.74" fill="#FF0000" width="55.067" height="211.5"/>
		<rect x="1874.64" y="181.52" fill="#FF0000" width="204.16" height="68.48"/>
	</g>
	<path id="_22R" stroke="#FFFFFF" stroke-miterlimit="10" d="M2727.13,725.24h56.56v218.18h-56.56V725.24z M2666.5,722.62h56.561
		V940.8H2666.5V722.62z M2624,74.63h218V125h-218V74.63z M684.88,443.38h196.88v68.75H684.88V443.38z M1619.25,834H1813v46.88
		h-193.75V834z M1744.25,768.37h203.13v46.88h-203.13V768.37z"/>
	<g id="_Select">
		<rect x="2163" y="468.38" fill="#FF0000" width="50" height="206.25"/>
		<rect x="1719.25" y="884" fill="#FF0000" width="203.13" height="46.88"/>
		<rect x="1663" y="437.13" fill="#FF0000" width="196.88" height="53.13"/>
		<rect x="1481.75" y="868.38" fill="#FF0000" width="203.13" height="50"/>
	</g>
</g>
</svg>
