<?xml version="1.0" encoding="utf-8"?>
<!-- Generator: Adobe Illustrator 16.0.0, SVG Export Plug-In . SVG Version: 6.00 Build 0)  -->
<!DOCTYPE svg PUBLIC "-//W3C//DTD SVG 1.1//EN" "http://www.w3.org/Graphics/SVG/1.1/DTD/svg11.dtd">
<svg version="1.1" id="Parts" xmlns="http://www.w3.org/2000/svg" xmlns:xlink="http://www.w3.org/1999/xlink" x="0px" y="0px"
	 width="3113px" height="1599px" viewBox="0 0 3113 1599" enable-background="new 0 0 3113 1599" xml:space="preserve">
<g id="ICs">
	<rect id="_NTE929" x="448.98" y="787.6" fill="#999999" width="143.93" height="339.41"/>
	<path id="_LM301" fill="#999999" d="M352.65,991.84H204.5V808.08h148.15V991.84z M769.89,796.86H626.24V993.84H769.89V796.86z
		 M2563.5,83.15h-178.03V250h178.03V83.15z"/>
	<rect id="_TL071" x="1142.71" y="904.3" fill="#999999" width="148.21" height="170"/>
	<rect id="_LM337" x="1309.52" y="1444.05" fill="#999999" width="159" height="66.5"/>
	<rect id="_LM317" x="1053" y="1451" fill="#999999" width="159" height="66.5"/>
	<rect id="_4558" x="967.54" y="538.57" fill="#999999" width="169.33" height="180.68"/>
	<path id="_TL082" fill="#999999" d="M2489.86,988.73h148.33v188.47h-148.33V988.73z M879.01,55.82H729.77V273h149.24V55.82z"/>
</g>
<g id="Transistors">
	<rect id="_NTE128" x="2886.89" y="533.84" fill="#F781BF" width="140.19" height="134.74"/>
	<rect id="_NTE129" x="2901.75" y="963.92" fill="#F781BF" width="146.82" height="142.4"/>
	<rect id="_J201" x="1725.5" y="612.13" fill="#F781BF" width="100" height="106.25"/>
	<path id="_BC560" fill="#F781BF" d="M1750.5,759h-243.75V655.88h243.75V759z M1978.63,590.25h-134.38v115.63h134.38V590.25z
		 M1744.25,249.63h-121.88v93.75h121.88V249.63z"/>
	<path id="_BC550" fill="#F781BF" d="M460.43,1181.82h99.32v94.855h-99.32V1181.82z M1700.5,580.88H1588V659h112.5V580.88z
		 M2150.5,618.38h-118.75v106.25h118.75V618.38z M1741.13,746.5H1500.5v118.75h240.63V746.5z"/>
</g>
<g id="Diodes">
	<path id="_1N4148" fill="#E41A1C" d="M2156.75,515.25h-259.38V434h259.38V515.25z M2845.09,753.4h163.74v-33.65h-163.74V753.4z
		 M2845.09,781.59h163.74v33.65h-163.74V781.59z M2845.09,834.32h163.74v33.646h-163.74V834.32z M2845.09,894.89h163.74v33.65
		h-163.74V894.89z M961.21,570.85H791.5v-36.01h169.71V570.85z M972.43,574.21v36.01H802.72v-36.01h169.72H972.43z M967.88,616.43
		l-0.01,36.015H798.16V616.43H967.88L967.88,616.43z M1085.24,521.74H915.53v-36.01h169.71V521.74z M1086.83,481.23H917.12V445.22
		h169.71V481.23z M1064.96,440.38H895.25v-36.01h169.71V440.38z M1065.59,363.85l-0.01,36.01H895.87v-36.01H1065.59L1065.59,363.85z
		"/>
	<path id="_1N4007" fill="#E41A1C" d="M423.1,1332.35H197V1292h226.1V1332.35z M418.75,1329.42h-226.1v40.35h226.1V1329.42z
		 M414.34,1429.82h-226.1v40.35h226.1V1429.82z M416.93,1471.86h-226.1v40.35h226.1V1471.86z M1449,1292h-202.66v57.6H1449V1292z
		 M1246.34,1312.18H1034V1358h212.34V1312.18z M1665.18,1212.21h-36.67V1412h36.67V1212.21z M1734.189,1217.9H1698V1408h36.189
		V1217.9z"/>
</g>
<g id="Capacitors">
	<g id="Electrolytic">
		<rect id="_1uF_50v" x="2592.75" y="546.87" fill="#984EA3" width="124.24" height="108.05"/>
		<rect id="_4.7uF_25v" x="2131.02" y="274" fill="#984EA3" width="450.98" height="126"/>
		<path id="_10uF_25v" fill="#984EA3" d="M1589.45,1430.811h-93.5v-86.866h93.5V1430.811z M1582.95,1241.64h-93.5v86.87h93.5
			V1241.64z M1270,1219.35h-93.5v86.87h93.5V1219.35z M1269.49,1125.34h-93.5v86.87h93.5V1125.34z"/>
		<path id="_1000uF_50v" fill="#984EA3" d="M633.24,1559.97H383.55V1294.5h249.69V1559.97z M929.9,1296.97H680.21v265.47H929.9
			V1296.97z"/>
		<path id="_22uF_16v" fill="#984EA3" d="M2955.08,1212.21h-90.561V1108.98h90.561V1212.21z M2709.561,677.59H2592v83.91h117.561
			V677.59z M2810.23,514H2934v-83.52h-123.77V514z M2441.13,962.13h-125v84.38h125V962.13z"/>
	</g>
	<g id="Tantalum">
		<rect id="_22uf" x="872.18" y="857.21" fill="#FF7F00" width="138.895" height="94.79"/>
	</g>
	<g id="Film">
		<rect id="_0.47uF" x="2027.67" y="1059" fill="#D6D600" width="284.33" height="124.5"/>
		<rect id="_1.8uF" x="1166.55" y="193.58" fill="#D6D600" width="438.45" height="158.42"/>
		<rect id="_0.33uF" x="287.57" y="389" fill="#D6D600" width="272.42" height="123"/>
		<path id="_100nF" fill="#D6D600" d="M1661.67,1532.6h-156.3v-79.105h156.3V1532.6z M680.92,1411.25h-47.68v177.76h47.68V1411.25z
			 M990,1277.96h-62.91v178.021H990V1277.96z M1204.311,1366.97h-158.866V1423h158.866V1366.97z M1435.46,1349.66h-164.4v61.59
			h164.4V1349.66z M1730.89,1406.02h59.4V1261.2h-59.4V1406.02z"/>
		<rect id="_0.01uF" x="1111" y="415.85" fill="#D6D600" width="273" height="119.15"/>
		<path id="_1nF" fill="#D6D600" d="M791.46,971.41h50.34v205.79h-50.34V971.41z M175.33,202.56h-66.2v150.8h66.2V202.56z
			 M251.97,202.56h-66.2v150.8h66.2V202.56z M2761.79,476.97h-153.62v59.33h153.62V476.97z M2608.17,953.54h49.89V794.86h-49.89
			V953.54z M679.92,147.5H507.16v55.06h172.76V147.5z M671.64,213.31H507.16v61.42H671.64V213.31z"/>
	</g>
	<g id="Ceramic">
		<rect id="_560pF" x="1972.38" y="755.88" fill="#A65628" width="200" height="78.13"/>
		<path id="_150pF" fill="#A65628" d="M3008.83,430.48H2842V379.46h166.83V430.48z M592.91,732.14H440.4v55.46h152.51V732.14z"/>
		<path id="_100pF" fill="#A65628" d="M961.21,799.5h-48.35V662.35h48.35V799.5z M2811.45,379.46h237.12v-77.35h-237.121
			L2811.45,379.46L2811.45,379.46z"/>
		<rect id="_22pF" x="2325.72" y="1051.4" fill="#A65628" width="59.75" height="153.05"/>
		<rect id="_15pF" x="621.51" y="1001.54" fill="#A65628" width="150.41" height="56.42"/>
		<path id="_10pF" fill="#A65628" d="M458.14,725.24H298.79v-52.67h159.35V725.24z M2631.311,106.47h-59.75v120.69h59.75V106.47z
			 M2385.47,106.47h-59.75v120.69h59.75V106.47z"/>
		<rect id="_5pF" x="204.5" y="1001.54" fill="#A65628" width="150.41" height="56.42"/>
	</g>
</g>
<g id="Trimpots">
	<rect id="_500K_Trimpot" x="90.61" y="527.61" fill="#4DAF4A" width="126.81" height="129.81"/>
	<path id="_50K_Trimpot" fill="#4DAF4A" d="M1753.63,265.25h150v90.63h-150V265.25z M1580,1059h-127.5v124.5H1580V1059z
		 M1722.21,1183.5h-127.5V1059h127.5V1183.5z M1869.27,1183.5h-127.5V1059h127.5V1183.5z M2027.67,1183.5h-127.5V1059h127.5V1183.5z
		 M1429.58,1098.03h-127.5v-124.5h127.5V1098.03z M574.82,653.89h-127.5v-124.5h127.5V653.89z M413.56,653.66h-127.5v-124.5h127.5
		V653.66z M1053.5,336.2H925.19V210.51h128.31V336.2z"/>
	<path id="_5K_Trimpot" fill="#4DAF4A" d="M1172,1257h-121v-123h121V1257z M1406.71,1134.64h-121v123h121V1134.64z"/>
</g>
<g id="Resistors">
	<path id="_22M" fill="#377EB8" d="M287.56,1214.061H63.1v47.144h224.47L287.56,1214.061L287.56,1214.061z M844.25,928.54H791.5
		v-203.3h52.75V928.54z"/>
	<path id="_1M5" fill="#377EB8" d="M592.91,350.13h49.3V541h-49.3V350.13z M2007,1280h-216.71v44.35H2007V1280z"/>
	<rect id="_1M29" x="1790.29" y="1216.38" fill="#377EB8" width="213.85" height="63.62"/>
	<path id="_909K" fill="#377EB8" d="M281.59,527.61H90.61V487.93h190.98V527.61z M900,335H690.5v53.5H900V335z"/>
	<rect id="_523K" x="1647" y="188.31" fill="#377EB8" width="227.64" height="61.69"/>
	<rect id="_390K" x="642.21" y="350.13" fill="#377EB8" width="48.12" height="186.86"/>
	<rect id="_200K" x="2247" y="1294.5" fill="#377EB8" width="210.79" height="59.7"/>
	<path id="_100K" fill="#377EB8" d="M2385.47,1026.38h87.42v178.07h-87.42V1026.38z M2119.25,249.63h-212.5v81.25h212.5V249.63z
		 M1063.4,855.21h59.33V1059h-59.33V855.21z M1317.82,846.03H1110.26v56.3h207.563L1317.82,846.03L1317.82,846.03z M1463.98,778.04
		h-52.595v194.38h52.595V778.04z M423.11,874.18H375V1075h48.11V874.18z M769.21,672.04H569.2v60.1h200.01V672.04z M2672.98,1224
		H2475.02v70.5h197.961V1224L2672.98,1224z M2860.68,513.74h-58.42v211.5h58.42V513.74z M1420.189,358.94H1214.04v52.08h206.149
		V358.94L1420.189,358.94z"/>
	<rect id="_90K9" x="2063.08" y="1204.45" fill="#377EB8" width="197.54" height="60.81"/>
	<rect id="_23K2" x="592.91" y="550.38" fill="#377EB8" width="203.75" height="46.12"/>
	<path id="_22K1" fill="#377EB8" d="M2608.17,342.24h222.13v61.1h-222.13V342.24z M2622.96,192.58h222.13v-61.1h-222.13V192.58z"/>
	<path id="_20K" fill="#377EB8" d="M492.81,150.09H278.58v43.11H492.81V150.09z M490.34,208.29v43.11H276.11v-43.11H490.34
		L490.34,208.29z M2457.79,1425.11h-215.16v-70.91h215.16V1425.11z"/>
	<path id="_10K" fill="#377EB8" d="M1454.78,545.15h-55.16V355.99h55.16V545.15z M2817.09,297.08h209.99v-62.01h-209.99V297.08z
		 M2808.11,165.49H3018.1v62.01H2808.11V165.49z M2078.8,181.52h222.12v61.14H2078.8V181.52z M877.91,76.02h207.43v53.81H877.91
		V76.02z M267.36,320.68h225.16V370H267.36V320.68z M267.36,263.68h225.16V313H267.36V263.68z M1326.84,845.94h-211V799.5h211
		V845.94z"/>
	<rect id="_7K5" x="1111.72" y="188.31" fill="#377EB8" width="45.15" height="202.69"/>
	<rect id="_6K04" x="54.63" y="697" fill="#377EB8" width="46.33" height="207.29"/>
	<path id="_5K6" fill="#377EB8" d="M2864.52,1254h-53.065v-213.25h53.065V1254z M2781.39,942.49h60.11V735.95h-60.11V942.49z"/>
	<rect id="_5K49" x="690.5" y="272.79" fill="#377EB8" width="212.32" height="62.21"/>
	<path id="_4K7" fill="#377EB8" d="M2016.13,874.63h-187.5V834h187.5V874.63z M109.13,931.86H61V1125h48.13V931.86z M1115.84,855.21
		H912.86V799.5h202.979L1115.84,855.21L1115.84,855.21z M2761.79,1254H2715v-205.95h46.79V1254z M2702.46,1214.45h-46.79V1008.5
		h46.79V1214.45z M1085.34,129.83v55.43H885.4v-55.43H1085.34L1085.34,129.83z"/>
	<rect id="_3K3_or_10K" x="1359.5" y="749.4" fill="#377EB8" width="55.42" height="209.1"/>
	<rect id="_3K02" x="121.46" y="853.95" fill="#377EB8" width="66.78" height="213.01"/>
	<path id="_2K4" fill="#377EB8" d="M2796.11,278.9h-198.65v-51.4h198.65V278.9z M1111.72,188.31H1058V391h53.72V188.31z"/>
	<path id="_2K2" fill="#377EB8" d="M2605.64,409.31h222.13v57h-222.129L2605.64,409.31L2605.64,409.31z M2609.46,335.9h222.13v-57
		h-222.13V335.9z M487.34,93.97H278.58v56.12h208.75L487.34,93.97L487.34,93.97z M697.33,83.15H488.58v56.12h208.75V83.15
		L697.33,83.15z M2901.75,1014.54h-190.4v-50.62h190.4V1014.54z M2811.45,1048.061h-49.66V1254h49.66V1048.061z M1531.75,480.88
		h-40.63V671.5h40.63V480.88z"/>
	<path id="_1K5" fill="#377EB8" d="M1063.4,1066.96h-51.33V855.21h51.33V1066.96z M1399.62,533.84h-51.11v204.68h51.11V533.84z
		 M796.36,602.5H592.91v51.45h203.45V602.5z"/>
	<path id="_1K" fill="#377EB8" d="M492.52,295.22H694.07v54.91H492.52V295.22z M690.5,441.88H896V388.5H690.5V441.88z M2247,1294.5
		h196.98V1229H2247V1294.5z M845.85,1212.21H633.24v48.99H845.85V1212.21z M1928.63,968.38h-196.88V1034h196.88V968.38z"/>
	<rect id="_470R" x="1450.5" y="349.63" fill="#377EB8" width="196.88" height="68.75"/>
	<path id="_390R" fill="#377EB8" d="M2219.25,880.88h-196.88v-43.75h196.88V880.88z M1947.38,712.13h-200v43.75h200V712.13z"/>
	<rect id="_270R" x="1414.92" y="550.38" fill="#377EB8" width="49.38" height="199.021"/>
	<rect id="_220R" x="1978.63" y="880.88" fill="#377EB8" width="200" height="43.75"/>
	<path id="_200R" fill="#377EB8" d="M1134.88,534h206.25v87.5h-206.25V534z M1125.5,790.25H1338V709h-212.5V790.25z"/>
	<path id="_120R" fill="#377EB8" d="M1491.09,1451.5h-42.53v-213.87h42.53V1451.5z M1045.061,1204.45H990v205.729h55.061V1204.45z"
		/>
	<path id="_100R" fill="#377EB8" d="M2747.189,513.74h55.066v211.5h-55.066V513.74z M2078.8,181.52h-204.16V250h204.16V181.52z"/>
	<rect id="_300K" x="1927.05" y="335" fill="#377EB8" width="203.96" height="65"/>
	<rect id="_24K9" x="1136.87" y="623.96" fill="#377EB8" width="195.5" height="95.29"/>
	<path id="_22R" fill="#377EB8" d="M2727.13,943.42h56.56V725.24h-56.56V943.42z M2666.5,722.62h56.561V940.8H2666.5V722.62z
		 M2624,74.63h218V125h-218V74.63z M684.88,443.38h196.88v68.75H684.88V443.38z M1813,880.88h-193.75V834H1813V880.88z
		 M1947.38,815.25h-203.13v-46.88h203.13V815.25z"/>
	<path id="_Select" fill="#377EB8" d="M2213,674.63h-50V468.38h50V674.63z M1922.38,884h-203.13v46.88h203.13V884z M1859.88,437.13
		H1663v53.13h196.88V437.13z M1684.88,868.38h-203.13v50h203.13V868.38z"/>
</g>
</svg>
